<?xml version="1.0" encoding="utf-8"?>
<!-- Generator: Adobe Illustrator 19.2.0, SVG Export Plug-In . SVG Version: 6.00 Build 0)  -->
<svg version="1.1" id="Capa_1" xmlns="http://www.w3.org/2000/svg" xmlns:xlink="http://www.w3.org/1999/xlink" x="0px" y="0px"
	 viewBox="0 0 512 512" style="enable-background:new 0 0 512 512;" xml:space="preserve">
<g>
	<g>
		<path d="M174.9,295.1L162,307.6c-1.8,1.8-2.8,4.2-2.8,6.7v5.3c0,5.2,4.2,9.4,9.4,9.4h77c5.2,0,9.4-4.2,9.4-9.4v-6.9
			c0-5.2-4.2-9.4-9.4-9.4h-42.5l1.2-1.1c27.8-26.8,47.5-47.8,47.5-75.3c0-21.9-14.3-44.1-46.1-44.1c-13.9,0-27.5,4.5-38.4,12.6
			c-3.5,2.6-4.7,7.4-2.9,11.4l2.4,5.2c1.1,2.5,3.4,4.4,6.1,5.2c2.7,0.7,5.6,0.2,7.9-1.4c7-4.9,14.1-7.3,21.3-7.3
			c14,0,21.1,6.9,21.1,20.6C222.6,247.6,207.3,264.2,174.9,295.1z"/>
	</g>
	<g>
		<path d="M315.1,185.2c-0.3,0-0.5,0-0.8,0h-2.9c-3.1,0-5.9,1.5-7.7,4l-57.5,82.2c-1.1,1.6-1.7,3.5-1.7,5.4v6.6
			c0,5.2,4.2,9.4,9.4,9.4h52.5v26.9c0,5.2,4.2,9.4,9.4,9.4h9c5.2,0,9.4-4.2,9.4-9.4v-26.9h9.3c5.2,0,9.4-4.2,9.4-9.4v-6.1
			c0-5.2-4.2-9.4-9.4-9.4h-9.3v-73.4c0-5.2-4.2-9.4-9.4-9.4h-9C315.6,185.2,315.4,185.2,315.1,185.2z M306.5,267.9h-28.3
			c7.2-10.5,19.5-28.4,28.3-41.6V267.9z"/>
	</g>
	<g>
		<path d="M256.4,471.4c-110.4,0-200.3-89.8-200.3-200.3c0-104.6,80.6-190.7,182.9-199.5v31.9c0,2.3,1.3,4.4,3.3,5.4
			c0.9,0.5,1.9,0.7,2.9,0.7c1.2,0,2.4-0.4,3.4-1L321,59.9c1.7-1.1,2.7-3.1,2.7-5.1c0-2-1-4-2.7-5.1L248.5,1
			c-1.9-1.3-4.3-1.4-6.3-0.3c-2,1.1-3.3,3.2-3.3,5.4v24.8C114.2,39.9,15.5,144.2,15.5,271.1C15.5,403.9,123.5,512,256.4,512
			c61.5,0,120-23.2,164.8-65.2l-27.8-29.6C356.2,452.2,307.5,471.4,256.4,471.4z"/>
	</g>
	<g>
		<path d="M462,145.6c-8.3-13.6-18-26.4-28.8-38.1l-29.8,27.6c9,9.7,17.1,20.4,24,31.7L462,145.6z"/>
	</g>
	<g>
		<path d="M454.8,243.9l40.2-5.5c-2.1-15.8-5.9-31.5-11.1-46.5l-38.3,13.3C449.9,217.8,453,230.8,454.8,243.9z"/>
	</g>
	<g>
		<path d="M394.5,73.8c-13.1-9.2-27.1-17-41.7-23.4l-16.3,37.2c12.1,5.3,23.8,11.9,34.6,19.5L394.5,73.8z"/>
	</g>
	<g>
		<path d="M411.1,398.3l31.3,25.8c10.1-12.3,19.1-25.7,26.6-39.7l-35.8-19.1C426.9,377,419.5,388.1,411.1,398.3z"/>
	</g>
	<g>
		<path d="M456,286.6c-1,13.2-3.3,26.4-6.9,39.1l39.1,11c4.3-15.3,7.1-31.1,8.4-47.1L456,286.6z"/>
	</g>
</g>
</svg>
