<?xml version="1.0" encoding="utf-8"?>
<!-- Generator: Adobe Illustrator 19.2.0, SVG Export Plug-In . SVG Version: 6.00 Build 0)  -->
<svg version="1.1" id="Capa_1" xmlns="http://www.w3.org/2000/svg" xmlns:xlink="http://www.w3.org/1999/xlink" x="0px" y="0px"
	 viewBox="0 0 512 512" style="enable-background:new 0 0 512 512;" xml:space="preserve">
<g>
	<g>
		<path d="M376,35.9h-68.1V24.3c0-13.4-10.9-24.3-24.3-24.3h-55.3c-13.4,0-24.3,10.9-24.3,24.3v11.6H136c-30.9,0-56,25.1-56,56V456
			c0,30.9,25.1,56,56,56H376c30.9,0,56-25.1,56-56V91.9C432.1,61,407,35.9,376,35.9z M256,11c6.7,0,12.1,5.4,12.1,12.1
			c0,6.7-5.4,12.1-12.1,12.1c-6.7,0-12.1-5.4-12.1-12.1C243.9,16.4,249.3,11,256,11z M190.5,70.3h131.1v51.2H190.5V70.3z M376.1,480
			H136c-13.2,0-24-10.8-24-24V91.9c0-13.2,10.8-24,24-24h22.9v57.2c0,15.4,12.5,27.9,27.9,27.9h138.4c15.4,0,27.9-12.5,27.9-27.9
			V67.9H376c13.2,0,24,10.8,24,24V456h0C400.1,469.2,389.3,480,376.1,480z"/>
		<path d="M200.8,206.8l-5.6,6.7c-1.9-4.8-6.6-8.3-12-8.3h-37.3c-7.1,0-13,5.8-13,13v41c0,7.1,5.8,13,13,13h37.3c7.1,0,13-5.8,13-13
			v-21.9l17-20.2c2.8-3.4,2.4-8.4-1-11.3C208.6,203,203.6,203.4,200.8,206.8z M187.4,259.2L187.4,259.2c0,2.4-2,4.3-4.3,4.3h-37.3
			c-2.4,0-4.3-2-4.3-4.3v-41c0-2.4,1.9-4.3,4.3-4.3h37.3c2.4,0,4.3,1.9,4.3,4.3v4.5l-10.8,12.9c-2.8,3.4-7.8,3.7-11,0.7l-6.7-6.2
			c-3.2-3-8.3-2.8-11.3,0.4c-3,3.2-2.8,8.3,0.4,11.3l18.7,17.3c1.5,1.4,3.4,2.1,5.4,2.1c0.2,0,0.3,0,0.5,0c2.2-0.1,4.2-1.2,5.6-2.8
			l9.1-10.8C187.4,247.6,187.4,259.2,187.4,259.2z"/>
		<path d="M200.8,293.8l-6.2,7.4c-2.2-4.2-6.5-7-11.5-7h-37.3c-7.1,0-13,5.8-13,13v41c0,7.1,5.8,13,13,13h37.3c7.1,0,13-5.8,13-13
			v-23.8l17-20.2c2.8-3.4,2.4-8.4-1-11.3C208.6,290,203.6,290.4,200.8,293.8z M187.4,348.2L187.4,348.2c0,2.4-2,4.3-4.3,4.3h-37.3
			c-2.4,0-4.3-1.9-4.3-4.3v-41c0-2.4,1.9-4.3,4.3-4.3h37.3c2.4,0,4.3,2,4.3,4.3v2.6l-10.8,12.9c-2.8,3.4-7.8,3.7-11,0.7l-6.7-6.2
			c-3.2-3-8.3-2.8-11.3,0.4c-3,3.2-2.8,8.3,0.4,11.3l18.7,17.3c1.5,1.4,3.4,2.1,5.4,2.1c0.2,0,0.3,0,0.5,0c2.2-0.1,4.2-1.2,5.6-2.8
			l9.1-10.8C187.4,334.6,187.4,348.2,187.4,348.2z"/>
		<path d="M200.8,381.3l-6.4,7.7c-2.2-3.9-6.4-6.6-11.2-6.6h-37.3c-7.1,0-13,5.8-13,13v41c0,7.1,5.8,13,13,13h37.3
			c7.1,0,13-5.8,13-13v-24.6l17-20.2c2.8-3.4,2.4-8.4-1-11.3C208.6,377.5,203.6,377.9,200.8,381.3z M187.4,436.4L187.4,436.4
			c0,2.4-2,4.3-4.3,4.3h-37.3c-2.4,0-4.3-2-4.3-4.3v-41c0-2.4,1.9-4.3,4.3-4.3h37.3c2.4,0,4.3,1.9,4.3,4.3v1.9l-10.8,12.9
			c-2.8,3.4-7.8,3.7-11,0.7l-6.7-6.2c-3.2-3-8.3-2.8-11.3,0.4c-3,3.2-2.8,8.3,0.4,11.3l18.7,17.4c1.5,1.4,3.4,2.1,5.4,2.1
			c0.2,0,0.3,0,0.5,0c2.2-0.1,4.2-1.2,5.6-2.8l9.1-10.8C187.4,422.1,187.4,436.4,187.4,436.4z"/>
		<path d="M373.6,233.2H244.2c-4.4,0-8,3.6-8,8c0,4.4,3.6,8,8,8h129.4c4.4,0,8-3.6,8-8C381.6,236.8,378,233.2,373.6,233.2z"/>
		<path d="M373.6,311.6H244.2c-4.4,0-8,3.6-8,8c0,4.4,3.6,8,8,8h129.4c4.4,0,8-3.6,8-8C381.6,315.2,378,311.6,373.6,311.6z"/>
		<path d="M373.6,390H244.2c-4.4,0-8,3.6-8,8c0,4.4,3.6,8,8,8h129.4c4.4,0,8-3.6,8-8C381.6,393.6,378,390,373.6,390z"/>
	</g>
</g>
</svg>
