<?xml version="1.0" encoding="utf-8"?>
<!-- Generator: Adobe Illustrator 19.2.0, SVG Export Plug-In . SVG Version: 6.00 Build 0)  -->
<svg version="1.1" id="Capa_1" xmlns="http://www.w3.org/2000/svg" xmlns:xlink="http://www.w3.org/1999/xlink" x="0px" y="0px"
	 viewBox="0 0 512 512" style="enable-background:new 0 0 512 512;" xml:space="preserve">
<g>
	<g id="Layer_1_95_">
		<g>
			<path d="M302.5,302.5H34.9V46.6h267.5v97.8l23.3,5v-106c6.9-4,11.6-11.4,11.6-20c0-12.8-10.4-23.3-23.3-23.3H23.3
				C10.4,0.1,0,10.5,0,23.3c0,8.6,4.7,16,11.6,20v270.8c0,6.4,5.2,11.6,11.6,11.6h71.7L53.1,482.6c-3.3,12.4,4.1,25.2,16.5,28.5
				c2,0.5,4,0.8,6,0.8c10.3,0,19.7-6.9,22.5-17.3l45-168.9h51.1l45,168.9c2.8,10.4,12.2,17.3,22.5,17.3c2,0,4-0.3,6-0.8
				c12.4-3.3,19.8-16.1,16.5-28.5l-41.8-156.8h71.7c6.4,0,11.6-5.2,11.6-11.6v-69.6l-23.3-5L302.5,302.5L302.5,302.5z"/>
			<path d="M401.4,168.9c22.8,0,41.3-18.5,41.3-41.3c0-22.8-18.5-41.3-41.3-41.3c-22.8,0-41.3,18.5-41.3,41.3
				C360.1,150.4,378.6,168.9,401.4,168.9z"/>
			<path d="M510.4,305.8l-42.7-110.6c-3.4-9-12.1-14.9-21.7-14.9h-22.7c-6.4,0-12,2.8-16.1,7l10.8,79.5l-16.6,14.1l-16.6-14.1
				l10.8-79.5c-4.2-4.2-9.8-7-16.1-7h-20.2l-133.4-28.5c-12.6-2.7-24.9,5.3-27.6,17.9c-2.7,12.6,5.3,24.9,17.9,27.6l135.8,29
				c1.4,0.3,2.9,0.5,4.3,0.5v107.6l-8.9,152.8c-0.7,12.8,9.1,23.8,21.9,24.6c0.4,0,0.9,0,1.4,0c12.2,0,22.5-9.5,23.2-21.9l7.6-131
				l7.6,131c0.7,12.4,11,21.9,23.2,21.9c0.4,0,0.9,0,1.4,0c12.8-0.8,22.6-11.8,21.9-24.6l-8.9-152.8v-64.8l20.4,52.9
				c4.6,12,18.1,17.9,30.1,13.3C509.1,331.3,515.1,317.8,510.4,305.8z"/>
			<path d="M52.4,165.9v98.9c0,6.4,5.2,11.6,11.6,11.6c6.4,0,11.6-5.2,11.6-11.6v-98.9c0-6.4-5.2-11.6-11.6-11.6
				S52.4,159.4,52.4,165.9z"/>
			<path d="M104.7,84.4v180.3c0,6.4,5.2,11.6,11.6,11.6c6.4,0,11.6-5.2,11.6-11.6V84.4c0-6.4-5.2-11.6-11.6-11.6
				C109.9,72.8,104.7,78,104.7,84.4z"/>
			<path d="M157,130.9v133.8c0,6.4,5.2,11.6,11.6,11.6c6.4,0,11.6-5.2,11.6-11.6V130.9c0-6.4-5.2-11.6-11.6-11.6
				C162.2,119.3,157,124.5,157,130.9z"/>
		</g>
	</g>
</g>
</svg>
