<?xml version="1.0" encoding="utf-8"?>
<!-- Generator: Adobe Illustrator 19.2.0, SVG Export Plug-In . SVG Version: 6.00 Build 0)  -->
<svg version="1.1" id="Capa_1" xmlns="http://www.w3.org/2000/svg" xmlns:xlink="http://www.w3.org/1999/xlink" x="0px" y="0px"
	 viewBox="0 0 512 512" style="enable-background:new 0 0 512 512;" xml:space="preserve">
<g>
	<g>
		<path d="M462.9,256.5l37.7-38.6c4.7-4.8,6.6-11.7,5.1-18.2c-1.5-6.5-6.2-11.9-12.5-14.2l-50.6-18.7l17.2-51.1
			c2.1-6.4,0.9-13.4-3.3-18.6c-4.2-5.3-10.7-8.1-17.4-7.4l-53.7,5.1l-6.7-53.5c-0.8-6.7-5-12.4-11-15.4c-6-2.9-13.1-2.6-18.9,0.9
			l-46.6,28.1L272.6,9c-3.7-5.6-9.9-9-16.6-9c-6.7,0-13,3.4-16.6,9l-29.4,45.3l-46.1-28c-5.7-3.5-12.8-3.8-18.9-0.9
			c-6,2.9-10.2,8.7-11.1,15.3L127,94.2l-53.7-5.3c-6.7-0.7-13.2,2.1-17.4,7.4c-4.2,5.2-5.4,12.3-3.3,18.6l17,51.2l-50.7,18.6
			c-6.3,2.3-11,7.6-12.5,14.2c-1.5,6.5,0.4,13.4,5.1,18.2L49,255.8l-37.6,38.7c-4.7,4.8-6.6,11.7-5.1,18.2
			c1.5,6.5,6.2,11.9,12.5,14.2l50.6,18.6l-17.1,51.2c-2.1,6.4-0.9,13.4,3.3,18.6c4.2,5.3,10.7,8,17.4,7.4l53.7-5.2l6.8,53.5
			c0.8,6.7,5,12.4,11,15.4c6,2.9,13.2,2.6,18.9-0.9l46.2-27.9l29.3,45.3c3.6,5.6,9.9,9,16.6,9.1c0,0,0,0,0,0c6.7,0,12.9-3.4,16.6-9
			l29.5-45.2l46.1,28.1c5.7,3.5,12.8,3.9,18.9,1c6.1-2.9,10.2-8.7,11.1-15.3l7-53.5l53.7,5.4c6.7,0.7,13.2-2.1,17.4-7.3
			c4.2-5.2,5.5-12.2,3.3-18.6l-16.9-51.2l50.7-18.5c6.3-2.3,11-7.6,12.5-14.2c1.5-6.5-0.4-13.4-5.1-18.2L462.9,256.5z M157.6,221.9
			c0,2.2-1.8,4.1-4.1,4.1h-38.1v16.9h35.3c2.2,0,4.1,1.8,4.1,4.1v20.2c0,2.2-1.8,4.1-4.1,4.1h-35.3v40c0,2.2-1.8,4.1-4.1,4.1H86.5
			c-2.2,0-4.1-1.8-4.1-4.1V201.6c0-2.2,1.8-4.1,4.1-4.1h67c2.2,0,4.1,1.8,4.1,4.1L157.6,221.9L157.6,221.9z M258.5,313.4
			c-0.7,1.2-2,1.9-3.5,1.9h-25.4c-1.5,0-2.8-0.8-3.5-2c-1.2-2.1-3.4-7.2-8.1-26.6c0,0,0-0.1,0-0.1c-2.7-12.8-6.5-14.2-13.8-14.4
			h-3.4v39c0,2.2-1.8,4.1-4.1,4.1h-24.6c-2.2,0-4.1-1.8-4.1-4.1V203.1c0-2,1.4-3.7,3.4-4c9.1-1.5,21.3-2.3,33.7-2.3
			c18,0,29.7,2.9,38,9.5c7.6,6.1,11.6,15.1,11.6,26.1c0,12.6-7.1,22.2-15.5,27.6c6.2,5.3,9,13.2,10.7,19.3c0.9,3.4,1.9,7,2.8,10.4
			c2.2,8.4,4.5,17.1,5.9,19.8C259.3,310.7,259.2,312.2,258.5,313.4z M342.7,311.2c0,2.2-1.8,4.1-4.1,4.1h-69.9
			c-2.2,0-4.1-1.8-4.1-4.1V201.6c0-2.2,1.8-4.1,4.1-4.1h67.7c2.2,0,4.1,1.8,4.1,4.1v20.3c0,2.2-1.8,4.1-4.1,4.1h-38.7v14.6h36.3
			c2.2,0,4.1,1.8,4.1,4.1v20.2c0,2.2-1.8,4.1-4.1,4.1h-36.3v17.9h41c2.2,0,4.1,1.8,4.1,4.1V311.2L342.7,311.2z M429.5,311.2
			c0,2.2-1.8,4.1-4.1,4.1h-69.9c-2.2,0-4.1-1.8-4.1-4.1V201.6c0-2.2,1.8-4.1,4.1-4.1h67.7c2.2,0,4.1,1.8,4.1,4.1v20.3
			c0,2.2-1.8,4.1-4.1,4.1h-38.7v14.6h36.3c2.2,0,4.1,1.8,4.1,4.1v20.2c0,2.2-1.8,4.1-4.1,4.1h-36.3v17.9h41c2.2,0,4.1,1.8,4.1,4.1
			L429.5,311.2L429.5,311.2z"/>
		<path d="M208,223.2c-2.7,0-5,0.1-7.1,0.3v22.6h5.7c4.7,0,15.6-1.1,15.6-11.7C222.2,231.7,222.2,223.4,208,223.2z"/>
	</g>
</g>
</svg>
