<?xml version="1.0" encoding="utf-8"?>
<!-- Generator: Adobe Illustrator 19.2.0, SVG Export Plug-In . SVG Version: 6.00 Build 0)  -->
<svg version="1.1" id="Capa_1" xmlns="http://www.w3.org/2000/svg" xmlns:xlink="http://www.w3.org/1999/xlink" x="0px" y="0px"
	 viewBox="0 0 512 512" style="enable-background:new 0 0 512 512;" xml:space="preserve">
<g>
	<g>
		<path d="M500.1,430.8h-13.5v-90.5c0-6.6-5.3-11.9-11.9-11.9h-84.3c-0.9-1-1.9-1.9-3.1-2.5l-118.7-65.8v-76.5h98.3
			c6.6,0,11.9-5.3,11.9-11.9V158c0-6.6-5.3-11.9-11.9-11.9h-13.5V55.6c0-6.6-5.3-11.9-11.9-11.9H171.8c-6.6,0-11.9,5.3-11.9,11.9
			v90.5h-13.5c-6.6,0-11.9,5.3-11.9,11.9v13.6c0,6.6,5.3,11.9,11.9,11.9h98.3V260L126,325.9c-1.2,0.7-2.2,1.5-3.1,2.5H37.3
			c-6.6,0-11.9,5.3-11.9,11.9v90.5H11.9c-6.6,0-11.9,5.3-11.9,11.9v13.6c0,6.6,5.3,11.9,11.9,11.9h220.4c6.6,0,11.9-5.3,11.9-11.9
			v-13.6c0-6.6-5.3-11.9-11.9-11.9h-13.5v-90.5c0-6.6-5.3-11.9-11.9-11.9h-36.2l85.9-47.6l85.9,47.6H305c-6.6,0-11.9,5.3-11.9,11.9
			v90.5h-13.5c-6.6,0-11.9,5.3-11.9,11.9v13.6c0,6.6,5.3,11.9,11.9,11.9H500c6.6,0,11.9-5.3,11.9-11.9v-13.6
			C512,436.1,506.7,430.8,500.1,430.8z M183.8,67.6h145.7V144H183.8V67.6z M195,430.8H49.3v-78.5H195V430.8z M317,352.3h145.7v76.5
			H317V352.3z"/>
	</g>
</g>
</svg>
