<?xml version="1.0" encoding="utf-8"?>
<!-- Generator: Adobe Illustrator 19.2.0, SVG Export Plug-In . SVG Version: 6.00 Build 0)  -->
<svg version="1.1" id="Capa_1" xmlns="http://www.w3.org/2000/svg" xmlns:xlink="http://www.w3.org/1999/xlink" x="0px" y="0px"
	 viewBox="0 0 512 512" style="enable-background:new 0 0 512 512;" xml:space="preserve">
<g>
	<g>
		<g>
			<g>
				<g>
					<g>
						<path d="M370.8,193.7H140.9c-14.8,0-26.8,11.2-26.8,26v179.4c0,14.9,12,27.5,26.8,27.5h95v29.7h-35.3
							c-13.5,0-25.1,11-25.1,24.4v15.8h160.9v-15.8c0-13.5-10.4-24.4-23.8-24.4h-36.5v-29.7h94.7c14.8,0,27.1-12.6,27.1-27.5V219.7
							C397.9,204.9,385.6,193.7,370.8,193.7z M357.6,386.4H153.9V233.9h0.7h203L357.6,386.4L357.6,386.4z"/>
						<path d="M409.5,93.8c-3.6-0.3-7-2.2-9.1-5.1C379.5,60.5,346,43,310.4,43c-2.3,0-4.5,0.1-6.8,0.2c-3,0.2-6-0.7-8.4-2.5
							c-21.7-16.4-48-25.3-75.5-25.3c-49.3,0-93.1,28.6-113.5,71.9c-1.8,3.9-5.5,6.6-9.7,7.1C42,102.1,0,148.9,0,205.3
							c0,54.9,39.8,100.6,92.1,110v-45.2c-27.7-8.5-48-34.3-48-64.8c0-37.4,30.4-67.8,67.8-67.8c1.9,0,3.7,0.2,5.6,0.3
							c10.8,0.8,20.5-6.2,23.1-16.6c9.1-36.3,41.6-61.7,79-61.7c21.4,0,41.6,8.3,57,23.2c5.3,5.1,12.7,7.3,19.9,5.8
							c4.6-0.9,9.3-1.4,13.9-1.4c26.2,0,49.5,14.7,61,38.4c4,8.3,12.8,13.3,22,12.3c2.3-0.2,4.6-0.3,6.8-0.3
							c37.4,0,67.8,30.4,67.8,67.8c0,30.5-20.2,56.3-48,64.8v45.2c52.2-9.4,92.1-55.1,92.1-110C512,146.8,466.8,98.6,409.5,93.8z"/>
						<g>
							<path d="M310.9,310.2c-4.1-27.2-26.9-48.3-54.8-50v-4.1c0-1.6-0.9-3.2-2.4-3.9s-3.2-0.6-4.6,0.4l-19.8,14.9
								c-1.1,0.8-1.7,2.1-1.7,3.5s0.6,2.6,1.7,3.5l19.8,14.9c1.3,1,3.1,1.2,4.6,0.4c1.5-0.7,2.4-2.2,2.4-3.9v-3.8
								c16.7,1.6,30.3,14.1,33.2,30.4c0.6,3.5,3.6,6,7.2,6h7.3c2.1,0,4.2-0.9,5.5-2.5S311.2,312.3,310.9,310.2z"/>
							<path d="M262.9,329.9c-1.3-1-3.1-1.2-4.6-0.4c-1.5,0.7-2.4,2.2-2.4,3.9v3.8c-16.7-1.6-30.3-14.1-33.2-30.4
								c-0.6-3.5-3.6-6-7.2-6h-7.3c-2.1,0-4.1,0.9-5.5,2.5s-2,3.7-1.7,5.8c4.1,27.2,26.9,48.3,54.8,50v4.1c0,1.6,0.9,3.2,2.4,3.9
								c1.5,0.7,3.2,0.6,4.6-0.4l19.8-14.9c1.1-0.8,1.7-2.1,1.7-3.5s-0.6-2.7-1.7-3.5L262.9,329.9z"/>
						</g>
					</g>
				</g>
			</g>
		</g>
	</g>
</g>
</svg>
