<?xml version="1.0" encoding="utf-8"?>
<!-- Generator: Adobe Illustrator 19.2.0, SVG Export Plug-In . SVG Version: 6.00 Build 0)  -->
<svg version="1.1" id="Capa_1" xmlns="http://www.w3.org/2000/svg" xmlns:xlink="http://www.w3.org/1999/xlink" x="0px" y="0px"
	 viewBox="0 0 512 512" style="enable-background:new 0 0 512 512;" xml:space="preserve">
<g>
	<g>
		<path d="M128,80H32C14.3,80,0,94.3,0,112v352c0,17.7,14.3,32,32,32h96c17.7,0,32-14.3,32-32V112C160,94.3,145.7,80,128,80z
			 M48,400c-8.8,0-16-7.2-16-16c0-8.8,7.2-16,16-16c8.8,0,16,7.2,16,16C64,392.8,56.8,400,48,400z M128,208H32v-32h96L128,208
			L128,208z M128,144H32v-32h96L128,144L128,144z"/>
		<path d="M336,432v-32h-96v32c-17.7,0-32,14.3-32,32h160C368,446.3,353.7,432,336,432z"/>
		<path d="M480,16H96c-17.7,0-32,14.3-32,32h32h96h288v256H192v64h288c17.7,0,32-14.3,32-32V48C512,30.3,497.7,16,480,16z M288,352
			c-8.8,0-16-7.2-16-16c0-8.8,7.2-16,16-16c8.8,0,16,7.2,16,16C304,344.9,296.8,352,288,352z"/>
	</g>
</g>
</svg>
