<svg version="1.1" xmlns="http://www.w3.org/2000/svg" xmlns:xlink="http://www.w3.org/1999/xlink" x="0px" y="0px" viewBox="0 0 512 512">
	<defs>
        <filter id="drop-shadow">
            <feGaussianBlur in="SourceAlpha" stdDeviation="2.2"/>
            <feOffset dx="0" dy="5" result="offsetblur"/>
            <feFlood flood-color="rgba(0,0,0,0.35)"/>
            <feComposite in2="offsetblur" operator="in"/>
            <feMerge>
                <feMergeNode/>
                <feMergeNode in="SourceGraphic"/>
            </feMerge>
        </filter>

        <g id="service-1">
        	<path d="M468.3,32H43.7C19.6,32,0,51.6,0,75.7v262.1c0,24.1,19.6,43.7,43.7,43.7h170.4V421h-34.5c-16.3,0-29.5,13.2-29.5,29.5
        		s13.2,29.5,29.5,29.5h152.8c16.3,0,29.5-13.2,29.5-29.5S348.7,421,332.4,421h-34.5v-39.5h170.4c24.1,0,43.7-19.6,43.7-43.7V75.7
        		C512,51.6,492.4,32,468.3,32z M51.5,287.9c0-23,18.7-41.8,41.8-41.8c23,0,41.8,18.7,41.8,41.8c0,23-18.7,41.8-41.8,41.8
        		C70.2,329.7,51.5,311,51.5,287.9z M461.3,330.8H204.1c1.2-3,0.4-6.5-2.1-8.7l-16.8-14.9c1.3-6.2,2-12.7,2-19.3
        		c0-6.6-0.7-13.1-2-19.3l16.8-14.9c2.8-2.5,3.4-6.5,1.6-9.7l-17.1-29.7c-1.8-3.2-5.7-4.7-9.2-3.5l-21.3,7.1
        		c-9.6-8.6-20.9-15.2-33.4-19.3l-4.5-22c-0.7-3.6-3.9-6.2-7.6-6.2H76.1c-3.7,0-6.9,2.6-7.6,6.2l-4.5,22c-4.6,1.5-9.1,3.4-13.3,5.6
        		V82.7h410.6L461.3,330.8L461.3,330.8z"/>
        	<path d="M230.2,204.4c-2.1-0.7-4.3,0.2-5.4,2.1L214.7,224c-1.1,1.9-0.7,4.3,0.9,5.7l9.9,8.8c-0.8,3.7-1.2,7.5-1.2,11.4
        		s0.4,7.7,1.2,11.4l-9.9,8.8c-1.6,1.4-2,3.8-0.9,5.7l10.1,17.5c1.1,1.9,3.4,2.7,5.4,2.1l12.6-4.2c5.6,5.1,12.3,9,19.7,11.4l2.7,12.9
        		c0.4,2.1,2.3,3.7,4.5,3.7h20.2c2.2,0,4.1-1.5,4.5-3.7l2.7-13c7.4-2.4,14-6.3,19.7-11.4l12.6,4.2c2.1,0.7,4.3-0.2,5.4-2.1l10.1-17.5
        		c1.1-1.9,0.7-4.3-0.9-5.7l-9.9-8.8c0.8-3.7,1.2-7.5,1.2-11.4s-0.4-7.7-1.2-11.4l9.9-8.8c1.6-1.4,2-3.8,0.9-5.7l-10.1-17.5
        		c-1.1-1.9-3.4-2.7-5.4-2.1l-12.6,4.2c-5.6-5.1-12.3-9-19.7-11.4l-2.7-12.9c-0.4-2.1-2.3-3.7-4.5-3.7h-20.2c-2.2,0-4.1,1.5-4.5,3.7
        		l-2.7,13c-7.4,2.4-14,6.3-19.7,11.4L230.2,204.4z M279.7,225.3c13.6,0,24.6,11,24.6,24.6c0,13.6-11,24.6-24.6,24.6
        		s-24.6-11-24.6-24.6C255.1,236.3,266.1,225.3,279.7,225.3z"/>
        	<path d="M167.5,147.1c-0.5,2.5-0.8,5.1-0.8,7.8s0.3,5.3,0.8,7.8l-6.8,6c-1.1,1-1.4,2.6-0.6,3.9l6.9,12c0.7,1.3,2.3,1.9,3.7,1.4
        		l8.6-2.9c3.9,3.5,8.5,6.2,13.5,7.8l1.8,8.9c0.3,1.5,1.6,2.5,3.1,2.5h13.8c1.5,0,2.8-1,3.1-2.5l1.8-8.9c5-1.7,9.6-4.3,13.5-7.8
        		l8.6,2.9c1.4,0.5,3-0.1,3.7-1.4l6.9-12c0.7-1.3,0.5-2.9-0.6-3.9l-6.8-6c0.5-2.5,0.8-5.1,0.8-7.8s-0.3-5.3-0.8-7.8l6.8-6
        		c1.1-1,1.4-2.6,0.6-3.9l-6.9-12c-0.7-1.3-2.3-1.9-3.7-1.4l-8.6,2.9c-3.9-3.5-8.5-6.2-13.5-7.8l-1.8-8.9c-0.3-1.5-1.6-2.5-3.1-2.5
        		h-13.8c-1.5,0-2.8,1-3.1,2.5l-1.8,8.9c-5,1.7-9.6,4.3-13.5,7.8l-8.6-2.9c-1.4-0.5-3,0.1-3.7,1.4l-6.9,12c-0.7,1.3-0.5,2.9,0.6,3.9
        		L167.5,147.1z M204.7,138c9.3,0,16.9,7.6,16.9,16.9s-7.6,16.9-16.9,16.9s-16.9-7.6-16.9-16.9S195.4,138,204.7,138z"/>
        </g>

        <g id="service-2">
            <path d="M382.5,156.6H129.6c-8.1,0-14.7,6.5-14.7,14.6v49.9c0,8.1,6.6,14.6,14.7,14.6h252.9c8.1,0,14.7-6.5,14.7-14.6v-49.9
                C397.1,163.1,390.5,156.6,382.5,156.6z M141.3,191.3c-5,0-9-4-9-9s4-9,9-9s9,4,9,9C150.4,187.3,146.3,191.3,141.3,191.3z
                 M358.5,217.4h-63.9v-21.2h63.9V217.4L358.5,217.4z"/>
            <path d="M382.5,243.8H129.6c-8.1,0-14.7,6.6-14.7,14.7v49.9c0,8.1,6.6,14.7,14.7,14.7h252.9c8.1,0,14.7-6.6,14.7-14.7v-49.9
                C397.1,250.4,390.5,243.8,382.5,243.8z M141.3,278.5c-5,0-9-4-9-9s4-9.1,9-9.1s9,4.1,9,9.1C150.4,274.5,146.3,278.5,141.3,278.5
                z M358.5,304.6h-63.9v-21.2h63.9V304.6L358.5,304.6z"/>
            <path d="M382.5,331H129.6c-8.1,0-14.7,6.6-14.7,14.7v49.9c0,8.1,6.6,14.7,14.7,14.7h252.9c8.1,0,14.7-6.6,14.7-14.7v-49.9
                C397.1,337.6,390.5,331,382.5,331z M141.3,365.7c-5,0-9-4-9-9s4-9,9-9s9,4,9,9C150.4,361.7,146.3,365.7,141.3,365.7z
                 M358.5,391.8h-63.9v-21.2h63.9V391.8L358.5,391.8z"/>
            <polygon points="299.7,457.9 272.7,457.9 272.7,418.7 239.3,418.7 239.3,457.9 212.3,457.9 212.3,468.2 118,468.2 118,501.7
                212.3,501.7 212.3,512 299.7,512 299.7,501.7 394,501.7 394,468.2 299.7,468.2 				"/>
            <path d="M405.3,76.2c-3.6-0.3-6.9-2.2-9.1-5.1c-20.3-27.4-52.8-44.3-87.4-44.3c-2.2,0-4.3,0.1-6.5,0.2c-3,0.2-6-0.7-8.4-2.5
                C272.9,8.6,247.3,0,220.6,0c-47.9,0-90.3,27.7-110.2,69.7c-1.8,3.8-5.5,6.5-9.7,7.1C48,84.2,7.3,129.7,7.3,184.4
                c0,52.2,37,95.9,86.2,106.3v-32.3c0-4,0.7-7.9,2-11.5c-26.3-8.6-45.4-33.4-45.4-62.5c0-36.3,29.5-65.9,65.9-65.9
                c1.8,0,3.6,0.1,5.4,0.3c10.5,0.8,19.9-6,22.5-16.1c8.9-35.3,40.4-59.9,76.8-59.9c20.8,0,40.4,8,55.3,22.6
                c5.1,5,12.3,7.1,19.3,5.6c4.4-0.9,9-1.4,13.5-1.4c25.4,0,48.1,14.3,59.2,37.3c3.9,8.1,12.5,12.9,21.4,12
                c2.2-0.2,4.4-0.3,6.6-0.3c36.3,0,65.9,29.5,65.9,65.9c0,29.2-19.1,53.9-45.4,62.5c1.2,3.6,2,7.4,2,11.5v32.3
                c49.2-10.4,86.2-54.1,86.2-106.3C504.7,127.6,460.9,80.9,405.3,76.2z"/>
        </g>

        <g id="service-3">
            <path d="M370.8,193.7H140.9c-14.8,0-26.8,11.2-26.8,26v179.4c0,14.9,12,27.5,26.8,27.5h95v29.7h-35.3
                c-13.5,0-25.1,11-25.1,24.4v15.8h160.9v-15.8c0-13.5-10.4-24.4-23.8-24.4h-36.5v-29.7h94.7c14.8,0,27.1-12.6,27.1-27.5V219.7
                C397.9,204.9,385.6,193.7,370.8,193.7z M357.6,386.4H153.9V233.9h0.7h203L357.6,386.4L357.6,386.4z"/>
            <path d="M409.5,93.8c-3.6-0.3-7-2.2-9.1-5.1C379.5,60.5,346,43,310.4,43c-2.3,0-4.5,0.1-6.8,0.2c-3,0.2-6-0.7-8.4-2.5
                c-21.7-16.4-48-25.3-75.5-25.3c-49.3,0-93.1,28.6-113.5,71.9c-1.8,3.9-5.5,6.6-9.7,7.1C42,102.1,0,148.9,0,205.3
                c0,54.9,39.8,100.6,92.1,110v-45.2c-27.7-8.5-48-34.3-48-64.8c0-37.4,30.4-67.8,67.8-67.8c1.9,0,3.7,0.2,5.6,0.3
                c10.8,0.8,20.5-6.2,23.1-16.6c9.1-36.3,41.6-61.7,79-61.7c21.4,0,41.6,8.3,57,23.2c5.3,5.1,12.7,7.3,19.9,5.8
                c4.6-0.9,9.3-1.4,13.9-1.4c26.2,0,49.5,14.7,61,38.4c4,8.3,12.8,13.3,22,12.3c2.3-0.2,4.6-0.3,6.8-0.3
                c37.4,0,67.8,30.4,67.8,67.8c0,30.5-20.2,56.3-48,64.8v45.2c52.2-9.4,92.1-55.1,92.1-110C512,146.8,466.8,98.6,409.5,93.8z"/>
            <g>
                <path d="M310.9,310.2c-4.1-27.2-26.9-48.3-54.8-50v-4.1c0-1.6-0.9-3.2-2.4-3.9s-3.2-0.6-4.6,0.4l-19.8,14.9
                    c-1.1,0.8-1.7,2.1-1.7,3.5s0.6,2.6,1.7,3.5l19.8,14.9c1.3,1,3.1,1.2,4.6,0.4c1.5-0.7,2.4-2.2,2.4-3.9v-3.8
                    c16.7,1.6,30.3,14.1,33.2,30.4c0.6,3.5,3.6,6,7.2,6h7.3c2.1,0,4.2-0.9,5.5-2.5S311.2,312.3,310.9,310.2z"/>
                <path d="M262.9,329.9c-1.3-1-3.1-1.2-4.6-0.4c-1.5,0.7-2.4,2.2-2.4,3.9v3.8c-16.7-1.6-30.3-14.1-33.2-30.4
                    c-0.6-3.5-3.6-6-7.2-6h-7.3c-2.1,0-4.1,0.9-5.5,2.5s-2,3.7-1.7,5.8c4.1,27.2,26.9,48.3,54.8,50v4.1c0,1.6,0.9,3.2,2.4,3.9
                    c1.5,0.7,3.2,0.6,4.6-0.4l19.8-14.9c1.1-0.8,1.7-2.1,1.7-3.5s-0.6-2.7-1.7-3.5L262.9,329.9z"/>
            </g>
        </g>

        <path id="service-4" d="M500.1,430.8h-13.5v-90.5c0-6.6-5.3-11.9-11.9-11.9h-84.3c-0.9-1-1.9-1.9-3.1-2.5l-118.7-65.8v-76.5h98.3
            c6.6,0,11.9-5.3,11.9-11.9V158c0-6.6-5.3-11.9-11.9-11.9h-13.5V55.6c0-6.6-5.3-11.9-11.9-11.9H171.8c-6.6,0-11.9,5.3-11.9,11.9
            v90.5h-13.5c-6.6,0-11.9,5.3-11.9,11.9v13.6c0,6.6,5.3,11.9,11.9,11.9h98.3V260L126,325.9c-1.2,0.7-2.2,1.5-3.1,2.5H37.3
            c-6.6,0-11.9,5.3-11.9,11.9v90.5H11.9c-6.6,0-11.9,5.3-11.9,11.9v13.6c0,6.6,5.3,11.9,11.9,11.9h220.4c6.6,0,11.9-5.3,11.9-11.9
            v-13.6c0-6.6-5.3-11.9-11.9-11.9h-13.5v-90.5c0-6.6-5.3-11.9-11.9-11.9h-36.2l85.9-47.6l85.9,47.6H305c-6.6,0-11.9,5.3-11.9,11.9
            v90.5h-13.5c-6.6,0-11.9,5.3-11.9,11.9v13.6c0,6.6,5.3,11.9,11.9,11.9H500c6.6,0,11.9-5.3,11.9-11.9v-13.6
            C512,436.1,506.7,430.8,500.1,430.8z M183.8,67.6h145.7V144H183.8V67.6z M195,430.8H49.3v-78.5H195V430.8z M317,352.3h145.7v76.5
            H317V352.3z"/>

        <g id="service-5">
            <path d="M413.9,213.3c-14.9-72.5-78.9-128-157.9-128c-61.9,0-115.2,34.1-140.8,85.3C49.1,179.2,0,232.5,0,298.7
                c0,70.4,57.6,128,128,128h277.3c59.7,0,106.7-46.9,106.7-106.7C512,264.5,467.2,217.6,413.9,213.3z M298.7,277.3v85.3h-85.3v-85.3
                h-64L256,170.7l106.7,106.7H298.7z"/>
        </g>

        <g id="service-6">
            <path d="M433.5,0H210.9c-12.9,0-25.2,5.1-34.3,14.3l-132.3,133c-9,9.1-14.1,21.4-14.1,34.2v282.2c0,26.7,21.7,48.4,48.4,48.4
                h354.9c26.7,0,48.4-21.7,48.4-48.4V48.4C481.9,21.7,460.2,0,433.5,0z M447.7,463.6c0,7.9-6.4,14.3-14.3,14.3H78.5
                c-7.9,0-14.3-6.4-14.3-14.3V191h136.1c12.5,0,22.7-10.2,22.7-22.7V34.1h210.4c7.9,0,14.3,6.4,14.3,14.3L447.7,463.6L447.7,463.6z
                "/>
            <path d="M351.7,263.8H160.3c-14.1,0-25.6,11.5-25.6,25.6c0,14.1,11.5,25.6,25.6,25.6h191.4c14.1,0,25.6-11.5,25.6-25.6
                C377.3,275.2,365.8,263.8,351.7,263.8z"/>
            <path d="M351.7,178.4h-71.9c-14.1,0-25.6,11.5-25.6,25.6c0,14.1,11.5,25.6,25.6,25.6h71.9c14.1,0,25.6-11.5,25.6-25.6
                C377.3,189.9,365.8,178.4,351.7,178.4z"/>
            <path d="M351.7,93.1h-71.9c-14.1,0-25.6,11.5-25.6,25.6c0,14.1,11.5,25.6,25.6,25.6h71.9c14.1,0,25.6-11.5,25.6-25.6
                C377.3,104.6,365.8,93.1,351.7,93.1z"/>
            <path d="M351.7,360.2H160.3c-14.1,0-25.6,11.5-25.6,25.6c0,14.1,11.5,25.6,25.6,25.6h191.4c14.1,0,25.6-11.5,25.6-25.6
                C377.3,371.6,365.8,360.2,351.7,360.2z"/>
        </g>

        <g id="work-1">
            <path d="M462.9,256.5l37.7-38.6c4.7-4.8,6.6-11.7,5.1-18.2c-1.5-6.5-6.2-11.9-12.5-14.2l-50.6-18.7l17.2-51.1
                c2.1-6.4,0.9-13.4-3.3-18.6c-4.2-5.3-10.7-8.1-17.4-7.4l-53.7,5.1l-6.7-53.5c-0.8-6.7-5-12.4-11-15.4c-6-2.9-13.1-2.6-18.9,0.9
                l-46.6,28.1L272.6,9c-3.7-5.6-9.9-9-16.6-9c-6.7,0-13,3.4-16.6,9l-29.4,45.3l-46.1-28c-5.7-3.5-12.8-3.8-18.9-0.9
                c-6,2.9-10.2,8.7-11.1,15.3L127,94.2l-53.7-5.3c-6.7-0.7-13.2,2.1-17.4,7.4c-4.2,5.2-5.4,12.3-3.3,18.6l17,51.2l-50.7,18.6
                c-6.3,2.3-11,7.6-12.5,14.2c-1.5,6.5,0.4,13.4,5.1,18.2L49,255.8l-37.6,38.7c-4.7,4.8-6.6,11.7-5.1,18.2
                c1.5,6.5,6.2,11.9,12.5,14.2l50.6,18.6l-17.1,51.2c-2.1,6.4-0.9,13.4,3.3,18.6c4.2,5.3,10.7,8,17.4,7.4l53.7-5.2l6.8,53.5
                c0.8,6.7,5,12.4,11,15.4c6,2.9,13.2,2.6,18.9-0.9l46.2-27.9l29.3,45.3c3.6,5.6,9.9,9,16.6,9.1c0,0,0,0,0,0c6.7,0,12.9-3.4,16.6-9
                l29.5-45.2l46.1,28.1c5.7,3.5,12.8,3.9,18.9,1c6.1-2.9,10.2-8.7,11.1-15.3l7-53.5l53.7,5.4c6.7,0.7,13.2-2.1,17.4-7.3
                c4.2-5.2,5.5-12.2,3.3-18.6l-16.9-51.2l50.7-18.5c6.3-2.3,11-7.6,12.5-14.2c1.5-6.5-0.4-13.4-5.1-18.2L462.9,256.5z M157.6,221.9
                c0,2.2-1.8,4.1-4.1,4.1h-38.1v16.9h35.3c2.2,0,4.1,1.8,4.1,4.1v20.2c0,2.2-1.8,4.1-4.1,4.1h-35.3v40c0,2.2-1.8,4.1-4.1,4.1H86.5
                c-2.2,0-4.1-1.8-4.1-4.1V201.6c0-2.2,1.8-4.1,4.1-4.1h67c2.2,0,4.1,1.8,4.1,4.1L157.6,221.9L157.6,221.9z M258.5,313.4
                c-0.7,1.2-2,1.9-3.5,1.9h-25.4c-1.5,0-2.8-0.8-3.5-2c-1.2-2.1-3.4-7.2-8.1-26.6c0,0,0-0.1,0-0.1c-2.7-12.8-6.5-14.2-13.8-14.4
                h-3.4v39c0,2.2-1.8,4.1-4.1,4.1h-24.6c-2.2,0-4.1-1.8-4.1-4.1V203.1c0-2,1.4-3.7,3.4-4c9.1-1.5,21.3-2.3,33.7-2.3
                c18,0,29.7,2.9,38,9.5c7.6,6.1,11.6,15.1,11.6,26.1c0,12.6-7.1,22.2-15.5,27.6c6.2,5.3,9,13.2,10.7,19.3c0.9,3.4,1.9,7,2.8,10.4
                c2.2,8.4,4.5,17.1,5.9,19.8C259.3,310.7,259.2,312.2,258.5,313.4z M342.7,311.2c0,2.2-1.8,4.1-4.1,4.1h-69.9
                c-2.2,0-4.1-1.8-4.1-4.1V201.6c0-2.2,1.8-4.1,4.1-4.1h67.7c2.2,0,4.1,1.8,4.1,4.1v20.3c0,2.2-1.8,4.1-4.1,4.1h-38.7v14.6h36.3
                c2.2,0,4.1,1.8,4.1,4.1v20.2c0,2.2-1.8,4.1-4.1,4.1h-36.3v17.9h41c2.2,0,4.1,1.8,4.1,4.1V311.2L342.7,311.2z M429.5,311.2
                c0,2.2-1.8,4.1-4.1,4.1h-69.9c-2.2,0-4.1-1.8-4.1-4.1V201.6c0-2.2,1.8-4.1,4.1-4.1h67.7c2.2,0,4.1,1.8,4.1,4.1v20.3
                c0,2.2-1.8,4.1-4.1,4.1h-38.7v14.6h36.3c2.2,0,4.1,1.8,4.1,4.1v20.2c0,2.2-1.8,4.1-4.1,4.1h-36.3v17.9h41c2.2,0,4.1,1.8,4.1,4.1
                L429.5,311.2L429.5,311.2z"/>
            <path d="M208,223.2c-2.7,0-5,0.1-7.1,0.3v22.6h5.7c4.7,0,15.6-1.1,15.6-11.7C222.2,231.7,222.2,223.4,208,223.2z"/>
        </g>

        <g id="work-2">
        	<path d="M512,114.5c0-17.5-14.2-31.7-31.7-31.7H31.7C14.2,82.8,0,97,0,114.5V158h512V114.5z"/>
        	<path d="M512,216.2H0v181.4c0,17.5,14.2,31.7,31.7,31.7h448.6c17.5,0,31.7-14.2,31.7-31.7V216.2z"/>
        </g>

        <g id="work-3">
        	<g>
        		<path d="M174.9,295.1L162,307.6c-1.8,1.8-2.8,4.2-2.8,6.7v5.3c0,5.2,4.2,9.4,9.4,9.4h77c5.2,0,9.4-4.2,9.4-9.4v-6.9
        			c0-5.2-4.2-9.4-9.4-9.4h-42.5l1.2-1.1c27.8-26.8,47.5-47.8,47.5-75.3c0-21.9-14.3-44.1-46.1-44.1c-13.9,0-27.5,4.5-38.4,12.6
        			c-3.5,2.6-4.7,7.4-2.9,11.4l2.4,5.2c1.1,2.5,3.4,4.4,6.1,5.2c2.7,0.7,5.6,0.2,7.9-1.4c7-4.9,14.1-7.3,21.3-7.3
        			c14,0,21.1,6.9,21.1,20.6C222.6,247.6,207.3,264.2,174.9,295.1z"/>
        	</g>
        	<g>
        		<path d="M315.1,185.2c-0.3,0-0.5,0-0.8,0h-2.9c-3.1,0-5.9,1.5-7.7,4l-57.5,82.2c-1.1,1.6-1.7,3.5-1.7,5.4v6.6
        			c0,5.2,4.2,9.4,9.4,9.4h52.5v26.9c0,5.2,4.2,9.4,9.4,9.4h9c5.2,0,9.4-4.2,9.4-9.4v-26.9h9.3c5.2,0,9.4-4.2,9.4-9.4v-6.1
        			c0-5.2-4.2-9.4-9.4-9.4h-9.3v-73.4c0-5.2-4.2-9.4-9.4-9.4h-9C315.6,185.2,315.4,185.2,315.1,185.2z M306.5,267.9h-28.3
        			c7.2-10.5,19.5-28.4,28.3-41.6V267.9z"/>
        	</g>
        	<g>
        		<path d="M256.4,471.4c-110.4,0-200.3-89.8-200.3-200.3c0-104.6,80.6-190.7,182.9-199.5v31.9c0,2.3,1.3,4.4,3.3,5.4
        			c0.9,0.5,1.9,0.7,2.9,0.7c1.2,0,2.4-0.4,3.4-1L321,59.9c1.7-1.1,2.7-3.1,2.7-5.1c0-2-1-4-2.7-5.1L248.5,1
        			c-1.9-1.3-4.3-1.4-6.3-0.3c-2,1.1-3.3,3.2-3.3,5.4v24.8C114.2,39.9,15.5,144.2,15.5,271.1C15.5,403.9,123.5,512,256.4,512
        			c61.5,0,120-23.2,164.8-65.2l-27.8-29.6C356.2,452.2,307.5,471.4,256.4,471.4z"/>
        	</g>
        	<g>
        		<path d="M462,145.6c-8.3-13.6-18-26.4-28.8-38.1l-29.8,27.6c9,9.7,17.1,20.4,24,31.7L462,145.6z"/>
        	</g>
        	<g>
        		<path d="M454.8,243.9l40.2-5.5c-2.1-15.8-5.9-31.5-11.1-46.5l-38.3,13.3C449.9,217.8,453,230.8,454.8,243.9z"/>
        	</g>
        	<g>
        		<path d="M394.5,73.8c-13.1-9.2-27.1-17-41.7-23.4l-16.3,37.2c12.1,5.3,23.8,11.9,34.6,19.5L394.5,73.8z"/>
        	</g>
        	<g>
        		<path d="M411.1,398.3l31.3,25.8c10.1-12.3,19.1-25.7,26.6-39.7l-35.8-19.1C426.9,377,419.5,388.1,411.1,398.3z"/>
        	</g>
        	<g>
        		<path d="M456,286.6c-1,13.2-3.3,26.4-6.9,39.1l39.1,11c4.3-15.3,7.1-31.1,8.4-47.1L456,286.6z"/>
        	</g>
        </g>

        <g id="close">
        	<path d="M316.9,256L499.4,73.5c16.8-16.8,16.8-44,0-60.8c-16.8-16.8-44-16.8-60.8,0L256,195.2L73.5,12.6
        		c-16.8-16.8-44-16.8-60.8,0c-16.8,16.8-16.8,44,0,60.8L195.2,256L12.6,438.5c-16.8,16.8-16.8,44,0,60.8c16.8,16.8,44,16.8,60.8,0
        		L256,316.8l182.5,182.5c16.8,16.8,44,16.8,60.8,0c16.8-16.8,16.8-44,0-60.8L316.9,256z"/>
        </g>

        <path id="business-1" d="M376,35.9h-68.1V24.3c0-13.4-10.9-24.3-24.3-24.3h-55.3c-13.4,0-24.3,10.9-24.3,24.3v11.6H136c-30.9,0-56,25.1-56,56V456
            c0,30.9,25.1,56,56,56H376c30.9,0,56-25.1,56-56V91.9C432.1,61,407,35.9,376,35.9z M256,11c6.7,0,12.1,5.4,12.1,12.1
            c0,6.7-5.4,12.1-12.1,12.1c-6.7,0-12.1-5.4-12.1-12.1C243.9,16.4,249.3,11,256,11z M190.5,70.3h131.1v51.2H190.5V70.3z M376.1,480
            H136c-13.2,0-24-10.8-24-24V91.9c0-13.2,10.8-24,24-24h22.9v57.2c0,15.4,12.5,27.9,27.9,27.9h138.4c15.4,0,27.9-12.5,27.9-27.9
            V67.9H376c13.2,0,24,10.8,24,24V456h0C400.1,469.2,389.3,480,376.1,480z
            M200.8,206.8l-5.6,6.7c-1.9-4.8-6.6-8.3-12-8.3h-37.3c-7.1,0-13,5.8-13,13v41c0,7.1,5.8,13,13,13h37.3c7.1,0,13-5.8,13-13
            v-21.9l17-20.2c2.8-3.4,2.4-8.4-1-11.3C208.6,203,203.6,203.4,200.8,206.8z M187.4,259.2L187.4,259.2c0,2.4-2,4.3-4.3,4.3h-37.3
            c-2.4,0-4.3-2-4.3-4.3v-41c0-2.4,1.9-4.3,4.3-4.3h37.3c2.4,0,4.3,1.9,4.3,4.3v4.5l-10.8,12.9c-2.8,3.4-7.8,3.7-11,0.7l-6.7-6.2
            c-3.2-3-8.3-2.8-11.3,0.4c-3,3.2-2.8,8.3,0.4,11.3l18.7,17.3c1.5,1.4,3.4,2.1,5.4,2.1c0.2,0,0.3,0,0.5,0c2.2-0.1,4.2-1.2,5.6-2.8
            l9.1-10.8C187.4,247.6,187.4,259.2,187.4,259.2z
            M200.8,293.8l-6.2,7.4c-2.2-4.2-6.5-7-11.5-7h-37.3c-7.1,0-13,5.8-13,13v41c0,7.1,5.8,13,13,13h37.3c7.1,0,13-5.8,13-13
            v-23.8l17-20.2c2.8-3.4,2.4-8.4-1-11.3C208.6,290,203.6,290.4,200.8,293.8z M187.4,348.2L187.4,348.2c0,2.4-2,4.3-4.3,4.3h-37.3
            c-2.4,0-4.3-1.9-4.3-4.3v-41c0-2.4,1.9-4.3,4.3-4.3h37.3c2.4,0,4.3,2,4.3,4.3v2.6l-10.8,12.9c-2.8,3.4-7.8,3.7-11,0.7l-6.7-6.2
            c-3.2-3-8.3-2.8-11.3,0.4c-3,3.2-2.8,8.3,0.4,11.3l18.7,17.3c1.5,1.4,3.4,2.1,5.4,2.1c0.2,0,0.3,0,0.5,0c2.2-0.1,4.2-1.2,5.6-2.8
            l9.1-10.8C187.4,334.6,187.4,348.2,187.4,348.2z
            M200.8,381.3l-6.4,7.7c-2.2-3.9-6.4-6.6-11.2-6.6h-37.3c-7.1,0-13,5.8-13,13v41c0,7.1,5.8,13,13,13h37.3
            c7.1,0,13-5.8,13-13v-24.6l17-20.2c2.8-3.4,2.4-8.4-1-11.3C208.6,377.5,203.6,377.9,200.8,381.3z M187.4,436.4L187.4,436.4
            c0,2.4-2,4.3-4.3,4.3h-37.3c-2.4,0-4.3-2-4.3-4.3v-41c0-2.4,1.9-4.3,4.3-4.3h37.3c2.4,0,4.3,1.9,4.3,4.3v1.9l-10.8,12.9
            c-2.8,3.4-7.8,3.7-11,0.7l-6.7-6.2c-3.2-3-8.3-2.8-11.3,0.4c-3,3.2-2.8,8.3,0.4,11.3l18.7,17.4c1.5,1.4,3.4,2.1,5.4,2.1
            c0.2,0,0.3,0,0.5,0c2.2-0.1,4.2-1.2,5.6-2.8l9.1-10.8C187.4,422.1,187.4,436.4,187.4,436.4z
            M373.6,233.2H244.2c-4.4,0-8,3.6-8,8c0,4.4,3.6,8,8,8h129.4c4.4,0,8-3.6,8-8C381.6,236.8,378,233.2,373.6,233.2z
            M373.6,311.6H244.2c-4.4,0-8,3.6-8,8c0,4.4,3.6,8,8,8h129.4c4.4,0,8-3.6,8-8C381.6,315.2,378,311.6,373.6,311.6z
            M373.6,390H244.2c-4.4,0-8,3.6-8,8c0,4.4,3.6,8,8,8h129.4c4.4,0,8-3.6,8-8C381.6,393.6,378,390,373.6,390z"/>

        <g id="computer">
        	<g>
        		<g>
        			<path d="M247.3,203.7c-2,16.1,9.5,30.7,25.7,32.7c16.1,1.9,30.7-9.5,32.7-25.7c1.9-16.1-9.5-30.7-25.6-32.7
        				C263.8,176.1,249.2,187.5,247.3,203.7z"/>
        			<path d="M242.5,311.1c0.1-21.7-16.5-31.8-27.6-33.2l-2.2-0.1c-6.2,0-13.4,0.1-20.8,0.1c6.4-8.2,19-23.4,20.1-25.1
        				c2.4,3.7,5.5,7.3,9.1,10.5c8.9,8,20,12.7,33.2,14.3c7.2,0.9,30.7-1.4,36.3-2.4c6.4-1.4,9.8-4,12.2-7.4c3-5.8,2.7-12.4,2.7-12.4
        				c-0.5-11.6-11.3-15.6-20.4-13.5c-13.5,3-31.7,4.9-41.5-3.7c-4.1-3.6-6.4-8.8-7.6-13.7c3.7-8.4,3.2-18.6-2.3-26.9
        				c-8.6-12.9-25.1-15-39-7.9c-13.8,7-48.6,47.4-57.4,77.1h-0.1c-0.1,0.3-0.1,0.6-0.2,1c-0.9,3.3-1.5,6.5-1.7,9.5
        				c-0.9,5.9-1.4,11.4-1.4,16.4l0.3,0.1c0,8.4,6.6,15.4,15,15.8c4.9,0.3,47.5,0.2,60.9,0.1c0.1,0.3,0.1,0.6,0.1,1.4
        				c-0.1,12.2,0,56.8,0.1,77.5c0,5.9,4.8,10.5,10.7,10.5h10.5c2.8,0,5.5-1,7.5-3s3.2-4.7,3.1-7.5
        				C242.6,367.8,242.5,323.3,242.5,311.1z"/>
        			<path d="M125.9,176.2c0-8.8-7.1-15.9-15.9-15.9s-16,7.1-16,15.9v159.3c0,8.2,6.3,15,14.3,15.8l0.1,0.1h5.7v37.2
        				c0,5.9,4.6,10.6,10.5,10.6s10.5-4.8,10.5-10.6v-37.2h33.6v37.2c0,5.9,4.6,10.6,10.5,10.6s10.5-4.8,10.5-10.6v-37.2h10.5v-31.9
        				H126V176.2H125.9z"/>
        			<path d="M412.8,282.2c-2.4-12.5-10.4-23.1-21.4-28.9v-10.2h15.2v-70l-58.1-20.7v-10.2h-21v106.6h21v-5.7h10.9v7.3
        				c-14.4,4.6-25.3,16.7-28.2,31.5H264c-5.9,0-10.6,5.1-10.6,10.9c0,5.9,4.8,10.9,10.6,10.9h21.3v95.6h117v-95.6h10.3
        				c5.9,0,10.6-5,10.6-10.9C423.3,287.1,418.6,282.2,412.8,282.2z"/>
        			<polygon points="193.1,153.6 169.1,153.6 169.1,153.2 192.7,119 192.7,112.5 156,112.5 156,121.7 177.8,121.7 177.8,122.1
        				153.8,156.8 153.8,163.2 193.1,163.2 			"/>
        			<polygon points="230.7,154 215.4,154 215.4,154 230.7,132.1 230.7,127.8 207.1,127.8 207.1,133.9 221.1,133.9 221.1,134.2
        				205.8,156.3 205.8,160.1 230.7,160.1 			"/>
        			<polygon points="258.2,162.3 247.7,162.3 247.7,162.1 258.2,147 258.2,144 242,144 242,148.3 251.7,148.3 251.7,148.4
        				240.7,163.7 240.7,166.2 258.2,166.2 			"/>
        		</g>
        	</g>
        	<circle fill="none" stroke-width="35px" class="st0" cx="256" cy="256" r="240.5"/>
        	<line fill="none" stroke-width="35px" class="st0" x1="89.9" y1="425.4" x2="426.4" y2="86.3"/>
        </g>

        <path id="phone" d="M488.1,443.9V512H23.9v-68.1c0-32.2,27.7-71.7,61.6-87.8l75.4-35.8l52.3,109l26.8-72.6c5.3,1,10.5,2.3,16,2.3
        		c5.5,0,10.7-1.3,16-2.3l25.4,69.1L348.7,319l77.8,37C460.4,372.1,488.1,411.7,488.1,443.9z M92.4,205.2V156
        		c0-8.3,4.3-15.6,10.9-19.9C112.1,59.7,177.2,0,256,0s144,59.7,152.8,136.2c6.5,4.2,10.9,11.5,10.9,19.9v49.2
        		c0,13.1-10.6,23.7-23.7,23.7c-13.1,0-23.7-10.6-23.7-23.7v-10.3c-12.8,64.4-59.9,124.2-116.3,124.2s-103.5-59.8-116.3-124.2v10.3
        		c0,10.6-7,19.5-16.6,22.5c9.4,32,30.3,59.7,59.1,77.9c5.3-1.8,12-1.4,18.6,2c10.5,5.4,15.8,16,11.8,23.6
        		c-3.9,7.6-15.6,9.3-26.2,3.8c-7.7-4-12.6-10.7-13.1-17c-33-21.1-56.5-53.5-66.1-90.8C98.6,223.7,92.4,215.2,92.4,205.2z
        		 M119.4,130.7c0.7,0,1.4,0.1,2.1,0.3c1.7,0.6,3,1.9,3.8,3.3c5.1,2.2,9.2,6.2,11.7,11.1c7-65.4,57.5-100,119-100s112,34.6,119,100
        		c3.5-6.8,10-11.7,17.9-12.7C382.7,66.2,325.3,15.1,256,15.1C187.4,15.1,130.5,65.2,119.4,130.7z"/>

        <path id="phone-1" d="M283.9,16.4c-77.1,0-145.4,38.5-186.7,97.3c8.6,5.6,16.9,13.2,24.9,23.1c30.8-46.1,80.7-78.4,138.3-85.4L283.9,91
        		l23.4-39.6c88.6,10.7,159.1,81.1,169.8,169.8l-39.6,23.4l39.6,23.4c-7.1,59.3-41.1,110.3-89.2,140.9c3.1,7,4.8,14.1,5.1,21.5
        		c0.2,5.4-0.3,10.5-1.4,15.3C463.2,407.1,512,331.4,512,244.5C512,118.7,409.7,16.4,283.9,16.4z M342.1,392.1
        		c-52.6-42.3-67.3-21.5-91.2,2.4c-16.7,16.7-58.8-18.1-95.2-54.5s-71.2-78.6-54.5-95.2c23.9-23.9,44.6-38.6,2.4-91.2
        		C61.2,101,33.1,141.3,9.9,164.5c-26.7,26.7-1.4,126.1,96.9,224.4s197.7,123.5,224.4,96.9C354.3,462.6,394.7,434.4,342.1,392.1z
        		 M181.9,280.2c0-46.7,54.7-55.1,54.7-73.3c0-8.9-7.1-12.6-13.6-12.6c-12,0-18.8,13.5-18.8,13.5l-23-15.4c0,0,11.7-27.3,44.6-27.3
        		c20.7,0,43.2,11.9,43.2,38.8c0,39.5-51,47.1-51.9,63.4H271v26.6h-87.7C182.4,288.9,181.9,284.5,181.9,280.2z M283.9,244.5
        		l48.9-77.2h37.9v70.3h15.1v25.7h-15.1v30.6h-30.6v-30.6H284L283.9,244.5L283.9,244.5z M340.1,237.5v-28.3c0-6.9,1.1-14.2,1.1-14.2
        		h-0.4c0,0-2.7,7.8-6.2,13.1l-19.1,29v0.4H340.1L340.1,237.5z"/>

        <path id="web-guard" d="M472.3,40C469.6,38.3,405.2,0,256,0C106.8,0,42.4,38.3,39.7,40c-8.5,5.2-13.5,14.6-13.1,24.5
				c0.1,2.9,3.4,72.9,30.8,162.1c16.2,52.6,37.4,101,63.2,143.9c32.6,54.3,72.5,99.9,118.6,135.7c4.9,3.8,10.9,5.8,16.8,5.8
				c5.9,0,11.9-1.9,16.8-5.8c46.1-35.8,86-81.5,118.5-135.7c25.8-43,47.1-91.4,63.2-143.9c27.4-89.2,30.7-159.2,30.8-162.1
				C485.8,54.6,480.8,45.2,472.3,40z M357.7,172.7l-121,121c-3.5,3.5-8.2,5.4-13.1,5.4c-5,0-9.6-1.9-13.1-5.4l-56.1-56.2
				c-7.2-7.2-7.2-19,0-26.2l10.8-10.8c3.5-3.5,8.2-5.4,13.1-5.4c4.9,0,9.6,1.9,13.1,5.4l32.2,32.1l97-97c3.5-3.5,8.1-5.4,13.1-5.4
				c5,0,9.6,1.9,13.1,5.4l10.9,10.9C364.9,153.8,364.9,165.5,357.7,172.7z"/>

        <g id="clc-1">
            <path d="M128,80H32C14.3,80,0,94.3,0,112v352c0,17.7,14.3,32,32,32h96c17.7,0,32-14.3,32-32V112C160,94.3,145.7,80,128,80z
                 M48,400c-8.8,0-16-7.2-16-16c0-8.8,7.2-16,16-16c8.8,0,16,7.2,16,16C64,392.8,56.8,400,48,400z M128,208H32v-32h96L128,208
                L128,208z M128,144H32v-32h96L128,144L128,144z"/>
            <path d="M336,432v-32h-96v32c-17.7,0-32,14.3-32,32h160C368,446.3,353.7,432,336,432z"/>
            <path d="M480,16H96c-17.7,0-32,14.3-32,32h32h96h288v256H192v64h288c17.7,0,32-14.3,32-32V48C512,30.3,497.7,16,480,16z M288,352
                c-8.8,0-16-7.2-16-16c0-8.8,7.2-16,16-16c8.8,0,16,7.2,16,16C304,344.9,296.8,352,288,352z"/>
        </g>
        <path id="clc-2" d="M0.2,238.9L0,72.5l204.8-27.8v194.2H0.2z M238.9,39.7L511.9,0v238.9h-273V39.7z M512,273.1L511.9,512l-273-38.4V273.1H512z
        		 M204.8,469.2L0.2,441.2l0-168.1h204.6V469.2z"/>

        <path id="clc-3" d="M462.9,417.6c-13.5-5.6-24.7-14.3-23.9-31c0.8-16.7-12-27.8-12-27.8s11.2-36.6,0.8-66.9c-10.3-30.3-44.6-78.8-70.8-115.4
        			c-26.2-36.6-4-78.8-27.8-132.9c-23.9-54.1-85.9-50.9-119.4-27.8c-33.5,23-23.1,80.3-21.5,107.4c1.6,27,0.7,46.3-2.4,53.3
        			c-3.1,7-24.7,32.7-39,54.1c-14.3,21.5-24.7,66.1-35,84.4c-10.3,18.3-3.2,35-3.2,35s-7.2,2.4-12.7,14.4
        			c-5.6,11.9-16.7,17.5-36.6,21.4c-19.9,4-19.9,16.8-15.1,31.1c4.8,14.3,0,22.3-5.6,40.6c-5.6,18.3,22.3,23.9,49.3,27
        			c27.1,3.2,57.3,20.7,82.8,23.9c25.4,3.2,33.4-17.5,33.4-17.5s28.6-6.4,58.9-7.1c30.3-0.8,58.9,6.4,58.9,6.4s5.6,12.7,15.9,18.3
        			c10.4,5.6,32.6,6.4,47-8.7c14.3-15.2,52.5-34.2,74-46.2C480.4,441.5,476.4,423.2,462.9,417.6z M276.7,66.7
        			c13.6,0,24.7,13.5,24.7,30.2c0,11.8-5.5,22.1-13.6,27c-2.1-0.9-4.2-1.8-6.5-2.8c4.9-2.4,8.3-8.6,8.3-15.8c0-9.4-5.8-17-13-17
        			c-7.1,0-12.9,7.7-12.9,17c0,3.5,0.8,6.8,2.3,9.6c-4.2-1.7-8.2-3.3-11.2-4.4c-1.7-4.1-2.6-8.7-2.6-13.6
        			C252,80.2,263,66.7,276.7,66.7z M274.9,130.4c6.8,2.4,14.4,6.8,13.6,11.2c-0.8,4.4-4.4,4.4-13.6,10.1c-9.2,5.6-29.3,18-35.7,18.8
        			c-6.4,0.8-10-2.8-16.9-7.2c-6.8-4.4-19.7-14.9-16.4-20.5c0,0,10-7.7,14.4-11.7c4.4-4,15.7-13.6,22.5-12.4
        			C249.6,120,268.1,128,274.9,130.4z M213.4,71.5c10.8,0,19.5,12.8,19.5,28.6c0,2.9-0.3,5.6-0.8,8.2c-2.6,0.9-5.3,2.3-7.9,4.5
        			c-1.3,1.1-2.5,2.1-3.6,3.1c1.7-3.2,2.4-7.7,1.6-12.5c-1.4-8.6-7.2-14.9-12.9-14c-5.7,1-9.1,8.7-7.7,17.4c1.5,8.7,7.2,15,12.9,14
        			c0.3-0.1,0.6-0.2,1-0.3c-2.8,2.7-5.3,5-7.9,6.9c-7.9-3.7-13.6-14.5-13.6-27.4C193.9,84.3,202.6,71.5,213.4,71.5z M192.4,473.6
        			c-2.5,11.4-15.9,19.7-15.9,19.7c-12.1,3.8-45.8-10.8-61-17.2c-15.2-6.3-54-8.3-59.1-13.9c-5.1-5.8,2.5-18.5,4.5-30.5
        			c1.9-12.1-3.8-19.7-1.9-28c1.9-8.2,26.7-8.2,36.2-13.9c9.6-5.8,11.5-22.3,19.1-26.7c7.6-4.5,21.6,11.4,27.3,20.4
        			c5.7,8.9,27.3,47,36.2,56.6C186.7,449.4,194.9,462.2,192.4,473.6z M333.1,362.7c-2.3,11.2-2.3,51.8-2.3,51.8s-24.7,34.2-62.9,39.8
        			c-38.2,5.6-57.3,1.6-57.3,1.6l-21.5-24.6c0,0,16.7-2.4,14.3-19.1c-2.4-16.7-50.9-39.8-59.7-60.5c-8.7-20.7-1.6-55.7,9.6-73.2
        			c11.1-17.5,18.3-55.7,29.4-68.4c11.2-12.7,19.9-39.7,15.9-51.7c0,0,23.9,28.7,40.6,23.9c16.7-4.8,54.2-32.7,59.7-27.9
        			c5.6,4.8,53.3,109.8,58,143.2c4.8,33.4-3.2,58.9-3.2,58.9S335.5,351.5,333.1,362.7z M455.2,437.7c-7.4,6.8-48.8,23.5-61.2,36.6
        			c-12.3,12.9-28.4,23.4-38.3,20.4c-9.9-3.1-18.6-16.7-14.2-36.5c4.3-19.7,8-41.4,7.4-53.8c-0.6-12.4-3.1-29.1,0-31.6
        			c3.1-2.4,8-1.2,8-1.2s-2.4,23.5,11.8,29.7c14.2,6.1,34.6-2.5,40.8-8.7c6.2-6.1,10.5-15.4,10.5-15.4s6.2,3.1,5.6,13
        			c-0.6,9.9,4.3,24.1,13.6,29.1C448.5,424,462.7,430.9,455.2,437.7z"/>

        <g id="schema-1">
		<g>
			<g>
            		<g>
            			<path d="M328,123.9h-40.9v-7c0-8-6.5-14.6-14.6-14.6h-33.2c-8,0-14.6,6.5-14.6,14.6v7H184c-18.5,0-33.6,15.1-33.6,33.6V376
            				c0,18.5,15.1,33.6,33.6,33.6h144c18.5,0,33.6-15.1,33.6-33.6V157.5C361.7,139,346.6,123.9,328,123.9z M256,109
            				c4,0,7.3,3.2,7.3,7.3c0,4-3.2,7.3-7.3,7.3c-4,0-7.3-3.2-7.3-7.3C248.7,112.2,252,109,256,109z M216.7,144.6h78.7v30.7h-78.7
            				V144.6z M328.1,390.4H184c-7.9,0-14.4-6.5-14.4-14.4V157.5c0-7.9,6.5-14.4,14.4-14.4h13.7v34.3c0,9.2,7.5,16.7,16.7,16.7h83
            				c9.2,0,16.7-7.5,16.7-16.7v-34.3H328c7.9,0,14.4,6.5,14.4,14.4V376l0,0C342.5,383.9,336,390.4,328.1,390.4z"/>
            			<path d="M222.9,226.5l-3.4,4c-1.1-2.9-4-5-7.2-5h-22.4c-4.3,0-7.8,3.5-7.8,7.8v24.6c0,4.3,3.5,7.8,7.8,7.8h22.4
            				c4.3,0,7.8-3.5,7.8-7.8v-13.1l10.2-12.1c1.7-2,1.4-5-0.6-6.8C227.6,224.2,224.6,224.4,222.9,226.5z M214.8,257.9L214.8,257.9
            				c0,1.4-1.2,2.6-2.6,2.6h-22.4c-1.4,0-2.6-1.2-2.6-2.6v-24.6c0-1.4,1.1-2.6,2.6-2.6h22.4c1.4,0,2.6,1.1,2.6,2.6v2.7l-6.5,7.7
            				c-1.7,2-4.7,2.2-6.6,0.4l-4-3.7c-1.9-1.8-5-1.7-6.8,0.2s-1.7,5,0.2,6.8l11.2,10.4c0.9,0.8,2,1.3,3.2,1.3c0.1,0,0.2,0,0.3,0
            				c1.3-0.1,2.5-0.7,3.4-1.7l5.5-6.5C214.8,251,214.8,257.9,214.8,257.9z"/>
            			<path d="M222.9,278.7l-3.7,4.4c-1.3-2.5-3.9-4.2-6.9-4.2h-22.4c-4.3,0-7.8,3.5-7.8,7.8v24.6c0,4.3,3.5,7.8,7.8,7.8h22.4
            				c4.3,0,7.8-3.5,7.8-7.8V297l10.2-12.1c1.7-2,1.4-5-0.6-6.8C227.6,276.4,224.6,276.6,222.9,278.7z M214.8,311.3L214.8,311.3
            				c0,1.4-1.2,2.6-2.6,2.6h-22.4c-1.4,0-2.6-1.1-2.6-2.6v-24.6c0-1.4,1.1-2.6,2.6-2.6h22.4c1.4,0,2.6,1.2,2.6,2.6v1.6l-6.5,7.7
            				c-1.7,2-4.7,2.2-6.6,0.4l-4-3.7c-1.9-1.8-5-1.7-6.8,0.2c-1.8,1.9-1.7,5,0.2,6.8l11.2,10.4c0.9,0.8,2,1.3,3.2,1.3
            				c0.1,0,0.2,0,0.3,0c1.3-0.1,2.5-0.7,3.4-1.7l5.5-6.5C214.8,303.2,214.8,311.3,214.8,311.3z"/>
            			<path d="M222.9,331.2l-3.8,4.6c-1.3-2.3-3.8-4-6.7-4h-22.4c-4.3,0-7.8,3.5-7.8,7.8v24.6c0,4.3,3.5,7.8,7.8,7.8h22.4
            				c4.3,0,7.8-3.5,7.8-7.8v-14.8l10.2-12.1c1.7-2,1.4-5-0.6-6.8C227.6,328.9,224.6,329.1,222.9,331.2z M214.8,364.2L214.8,364.2
            				c0,1.4-1.2,2.6-2.6,2.6h-22.4c-1.4,0-2.6-1.2-2.6-2.6v-24.6c0-1.4,1.1-2.6,2.6-2.6h22.4c1.4,0,2.6,1.1,2.6,2.6v1.1l-6.5,7.7
            				c-1.7,2-4.7,2.2-6.6,0.4l-4-3.7c-1.9-1.8-5-1.7-6.8,0.2c-1.8,1.9-1.7,5,0.2,6.8l11.2,10.4c0.9,0.8,2,1.3,3.2,1.3
            				c0.1,0,0.2,0,0.3,0c1.3-0.1,2.5-0.7,3.4-1.7l5.5-6.5C214.8,355.7,214.8,364.2,214.8,364.2z"/>
            			<path d="M326.6,242.3h-77.6c-2.6,0-4.8,2.2-4.8,4.8s2.2,4.8,4.8,4.8h77.6c2.6,0,4.8-2.2,4.8-4.8
            				C331.4,244.5,329.2,242.3,326.6,242.3z"/>
            			<path d="M326.6,289.4h-77.6c-2.6,0-4.8,2.2-4.8,4.8s2.2,4.8,4.8,4.8h77.6c2.6,0,4.8-2.2,4.8-4.8
            				C331.4,291.5,329.2,289.4,326.6,289.4z"/>
            			<path d="M326.6,336.4h-77.6c-2.6,0-4.8,2.2-4.8,4.8c0,2.6,2.2,4.8,4.8,4.8h77.6c2.6,0,4.8-2.2,4.8-4.8
            				C331.4,338.6,329.2,336.4,326.6,336.4z"/>
            		</g>
            	</g>
            	<circle fill="none" stroke-width="15px" stroke-miterlimit="10" cx="256" cy="256" r="248"/>
		</g>
	<circle fill="none" stroke-width="15px" stroke-miterlimit="10" cx="256" cy="256" r="248"/>
        </g>

        <g id="schema-4">
            <g>
                <path d="M267.5,198c0.5-1.8-0.4-3.7-2.2-4.2c-1.8-0.5-3.7,0.4-4.2,2.2c0,0-4.1,13.2-5,16.1c-1.8,0.5-7.2,2-11,3.1
                    c-0.1-0.6-0.2-1.2-0.4-1.7h-52.3c-0.2,0.5-0.3,1.1-0.4,1.7c-3.8-1.1-9.2-2.5-11-3.1c-0.9-2.8-5-16.1-5-16.1
                    c-0.5-1.7-2.5-2.8-4.2-2.2c-1.7,0.5-2.8,2.4-2.2,4.2l6.1,19.6l15.4,4.3c-0.1,1.4-0.2,2.9-0.2,4.3c0,1.8,0.1,3.5,0.2,5.3
                    l-15.4,6.9l-4.7,27.1c-0.4,1.9,0.8,3.6,2.7,3.9c1.9,0.3,3.6-0.9,3.9-2.8c0,0,3.7-20.5,4.1-23.5c1.5-0.7,6.4-2.8,10.5-4.7
                    c3.6,15.5,14,26.6,26.3,26.6c12.2,0,22.7-11.2,26.3-26.6c4.1,1.9,9,4,10.4,4.7c0.5,3,4.2,23.5,4.2,23.5c0.3,1.9,2.1,3.1,3.9,2.8
                    c1.9-0.3,3.1-2.1,2.7-3.9l-4.7-27.1l-15.4-6.9c0.2-1.7,0.2-3.5,0.2-5.3c0-1.4-0.1-2.9-0.2-4.3l15.4-4.3L267.5,198z"/>
                <path d="M186,173.7c0.7,0.1,15.2,3.1,18.3,19.4c-4,4.2-6.4,10-6.4,16.6c0,0.1,0,0.1,0,0.2h41.5c0-0.1,0-0.1,0-0.2
                    c0-6.5-2.5-12.4-6.4-16.6c3.1-16.4,17.7-19.4,18.3-19.4c1.3-0.3,2.3-1.6,2-3c-0.2-1.3-1.6-2.2-2.9-2
                    c-0.1,0.1-16.9,3.3-21.7,20.8c-2.9-1.8-6.4-2.8-10-2.8c-3.7,0-7,1-10,2.8c-4.8-17.6-21.6-20.8-21.8-20.8c-1.4-0.2-2.7,0.7-2.9,2
                    C183.8,172.1,184.7,173.4,186,173.7z"/>
                <path d="M403.8,370.1l-43.2-43.3V102.4H108.2v290.3h239.1l16.9,16.9c0,0,18.2,0.2,29.1-12.3
                    C404.3,384.8,403.8,370.1,403.8,370.1z M124.8,376.1c0-15.1,0-241.9,0-257c14.9,0,204.2,0,219.1,0c0,10.3,0,118.3,0,191.3
                    l-23.6-23.6l-10.9,6.5l-16.5-16c25.7-36.1,22.7-86.5-9.7-118.7c-36.1-36.1-94.6-36-130.5,0c-36,36-36,94.4,0,130.6
                    c32.4,32.4,82.7,35.4,118.7,9.7l15.4,14.9l-6.2,12.5l49.9,49.9C284.2,376.1,137.9,376.1,124.8,376.1z M268.3,274.2
                    c-27.7,27.7-72.8,27.8-100.6,0c-27.7-27.8-27.7-72.8,0.1-100.6c27.7-27.7,72.8-27.8,100.6,0S296.1,246.3,268.3,274.2z"/>
            </g>
            <circle fill="none" stroke-width="15px" stroke-miterlimit="10" cx="256" cy="256" r="248"/>
        </g>

	<g id="schema-2">
		<g>
			<path d="M102.4,248.3h141.8V106.5H102.4V248.3z M141.7,170.1H166v-24.3h14.5v24.4h24.4v14.5h-24.4V209H166v-24.4h-24.3V170.1z"/>
			<path d="M102.4,405.5h141.8V263.7H102.4V405.5z M141.7,327.4h63.2v14.5h-63.2V327.4z"/>
			<path d="M267.8,106.5v141.8h141.8V106.5H267.8z M370.8,194.6l-10.3,10.3l-17.2-17.2l-17.2,17.2l-10.3-10.3l17.2-17.2l-17.2-17.2
				l10.3-10.3l17.2,17.2l17.2-17.2l10.3,10.3l-17.2,17.3L370.8,194.6z"/>
			<path d="M267.8,405.5h141.8V263.7H267.8V405.5z M353.2,367.7c-0.6,1.4-1.4,2.7-2.5,3.7c-1,1.1-2.3,1.9-3.7,2.6s-3,1-4.6,1
				c-1.7,0-3.2-0.3-4.6-1s-2.6-1.5-3.7-2.6c-1-1.1-1.9-2.3-2.5-3.7c-0.6-1.4-1-3-1-4.6c0-1.6,0.3-3.2,1-4.6c0.6-1.4,1.4-2.7,2.5-3.7
				c1-1,2.3-1.9,3.7-2.5c1.4-0.6,3-0.9,4.6-0.9c1.6,0,3.2,0.3,4.6,0.9c1.4,0.6,2.7,1.4,3.7,2.5c1,1.1,1.9,2.3,2.5,3.7
				c0.6,1.4,1,3,1,4.6C354.2,364.7,353.8,366.3,353.2,367.7z M331.5,301.5c0.6-1.4,1.4-2.7,2.5-3.7c1-1.1,2.3-1.9,3.7-2.6s3-1,4.6-1
				c1.6,0,3.2,0.3,4.6,1s2.7,1.5,3.7,2.6c1,1.1,1.9,2.3,2.5,3.7c0.6,1.4,1,3,1,4.6s-0.3,3.2-1,4.6c-0.6,1.4-1.4,2.7-2.5,3.7
				c-1,1-2.3,1.9-3.7,2.5c-1.4,0.6-2.9,1-4.6,1s-3.2-0.3-4.6-1c-1.4-0.6-2.6-1.4-3.7-2.5c-1.1-1.1-1.9-2.3-2.5-3.7
				c-0.6-1.4-1-3-1-4.6C330.6,304.5,330.9,303,331.5,301.5z M311.4,326.1H375V344h-63.6V326.1z"/>
		</g>
		<circle fill="none" stroke-width="15px" stroke-miterlimit="10" cx="256" cy="256" r="248"/>
	</g>

        <g id="schema-3">
            <g>
                <path d="M409.6,172.5v93c0,0-19.9,3.9-24,4.4c-4.1,0.5-16.9,4.7-26.2-4.3C345,251.9,294,201.1,294,201.1s-8.8-8.6-22.9-1.2
                    c-13,6.8-32.2,16.9-40.2,20.8c-15.2,8.1-27.7-4.7-27.7-14.5c0-7.6,4.7-12.7,11.5-16.5c18.3-11.1,56.9-32.8,73-41.3
                    c9.8-5.2,16.8-5.6,30.2,5.6c16.5,13.9,31.2,26.5,31.2,26.5s4.8,4,12.4,2.4C380.1,179.1,409.6,172.5,409.6,172.5z M206.6,330
                    c2.5-6.4,1.6-13.4-3.1-18.3c-4.3-4.4-10.4-5.5-16.4-4.1c1.7-5.9,0.7-12.1-3.5-16.6c-4.3-4.3-10.4-5.5-16.4-4.1
                    c1.6-5.9,0.7-12.1-3.5-16.5c-6.7-6.9-18.3-6.6-25.9,0.7c-7.6,7.3-12.4,20.5-5.6,28.2c6.8,7.7,14.5,3,20.4,1.7
                    c-1.6,5.9-6.6,11.3-0.5,19c6.1,7.7,14.5,3,20.4,1.7c-1.7,5.8-6.4,11.8-0.5,19c5.9,7.1,15.5,3.4,21.9,1.4c-2.5,6.3-7.7,13.1-1,20.8
                    c6.8,7.7,22.4,4.1,30-3.1c7.6-7.3,8.3-18.8,1.6-25.7C219.8,329.2,212.9,328,206.6,330z M345.6,281.7
                    c-55.1-55.1-29.2-29.2-58.8-58.9c0,0-8.9-8.9-20.6-3.7c-8.2,3.6-18.8,8.5-26.8,12.3c-8.8,4.6-15.1,6-18.1,6
                    c-17-0.1-30.7-13.7-30.7-30.7c0-11,5.8-20.6,14.5-26c12.2-8.5,40.4-23.5,40.4-23.5s-8.6-10.9-27.4-10.9s-58.1,25.7-58.1,25.7
                    s-11.2,7.1-27,0.7l-30.7-10.7v106.4c0,0,8.8,2.5,16.6,5.8c1.8-5,4.6-9.7,8.6-13.6c13-12.4,34.6-12.5,46.5-0.4
                    c3.6,3.7,6.1,8.2,7.3,13c4.8,1.5,9.1,4.1,12.6,7.7c3.6,3.7,6.1,8.2,7.3,13c4.8,1.5,9.1,4.1,12.6,7.7c3.9,4.1,6.5,8.9,7.7,14.2
                    c5,1.4,9.5,4.1,13.1,7.9c7.1,7.3,9.7,17.2,8.1,26.8h0.1c0.1,0.2,4.4,4.9,7.1,7.6c5.3,5.3,13.8,5.3,19.1,0c5.2-5.3,5.3-13.8,0-19.1
                    c-0.2-0.2-19-19.8-17.5-21.4c1.5-1.5,25.4,23.3,25.9,23.8c5.2,5.2,13.8,5.2,19.1,0c5.3-5.3,5.2-13.8,0-19.1
                    c-0.2-0.2-1.3-1.3-1.7-1.7c0,0-23.7-21.1-21.9-22.9c1.8-1.8,31.3,25.7,31.3,25.7c5.3,4.7,13.4,4.7,18.5-0.4c5-5,5-12.8,0.7-18.1
                    c-0.1-0.3-22.4-23.6-20.7-25.4c1.7-1.8,23.9,21,23.9,21.1c5.2,5.2,13.8,5.2,19.1,0c5.2-5.2,5.2-13.8,0-19.1
                    C345.8,281.8,345.7,281.7,345.6,281.7z"/>
            </g>
            <circle fill="none" stroke-width="15px" stroke-miterlimit="10" cx="256" cy="256" r="248"/>
        </g>
        <g id="arrow-slider">
            <polygon points="98.1,448 294.4,256 98.1,59.7 157.9,0 413.9,256 157.9,512 		"/>
        </g>
        <g id="mail">
            <path d="M256,329.1l-63.3-55.4L11.6,428.9c6.6,6.1,15.5,9.9,25.3,9.9h438.3c9.8,0,18.6-3.8,25.2-9.9l-181-155.2L256,329.1z"/>
            <path d="M500.4,83.1c-6.6-6.1-15.4-9.9-25.3-9.9H36.8c-9.8,0-18.6,3.8-25.2,10L256,292.6L500.4,83.1z"/>
            <polygon points="0,105.3 0,409.1 176.7,258.9 		"/>
            <polygon points="335.3,258.9 512,409.1 512,105.1 		"/>
        </g>

    </defs>
</svg>