<?xml version="1.0" encoding="utf-8"?>
<!-- Generator: Adobe Illustrator 19.2.0, SVG Export Plug-In . SVG Version: 6.00 Build 0)  -->
<svg version="1.1" id="Capa_1" xmlns="http://www.w3.org/2000/svg" xmlns:xlink="http://www.w3.org/1999/xlink" x="0px" y="0px"
	 viewBox="0 0 512 512" style="enable-background:new 0 0 512 512;" xml:space="preserve">
<g>
	<g>
		<g>
			<path d="M275.2,159.4c0.9-3-0.7-6.1-3.7-7c-3-0.9-6.1,0.7-7,3.7c0,0-6.8,22-8.3,26.8c-3,0.8-12,3.3-18.3,5.1
				c-0.2-1-0.4-2-0.6-2.9h-87.1c-0.3,0.9-0.5,1.9-0.7,2.9c-6.3-1.8-15.3-4.2-18.3-5.1c-1.5-4.7-8.3-26.8-8.3-26.8
				c-0.9-2.9-4.1-4.6-7-3.7c-2.9,0.9-4.6,4-3.7,7l10.1,32.6l25.6,7.2c-0.2,2.4-0.3,4.8-0.3,7.2c0,3,0.2,5.9,0.4,8.8l-25.6,11.5
				l-7.9,45.1c-0.6,3.1,1.4,6,4.5,6.5c3.1,0.5,6-1.5,6.5-4.6c0,0,6.1-34.1,6.9-39.2c2.5-1.1,10.6-4.7,17.5-7.8
				c6,25.8,23.4,44.4,43.8,44.4c20.4,0,37.8-18.6,43.8-44.4c6.9,3.1,15,6.7,17.4,7.8c0.9,5,7,39.2,7,39.2c0.5,3.1,3.5,5.1,6.5,4.6
				c3.1-0.5,5.1-3.5,4.5-6.5l-7.9-45.1l-25.6-11.5c0.3-2.9,0.4-5.8,0.4-8.8c0-2.4-0.1-4.8-0.3-7.2l25.6-7.1L275.2,159.4z"/>
			<path d="M139.3,118.8c1.1,0.2,25.3,5.1,30.5,32.4c-6.6,7-10.7,16.7-10.7,27.6c0,0.1,0,0.2,0,0.4h69.2c0-0.1,0-0.2,0-0.4
				c0-10.8-4.1-20.6-10.7-27.6c5.2-27.4,29.5-32.3,30.5-32.4c2.2-0.5,3.8-2.6,3.3-5c-0.4-2.2-2.6-3.7-4.8-3.3
				c-0.2,0.1-28.2,5.5-36.2,34.7c-4.9-3-10.6-4.7-16.6-4.7c-6.1,0-11.7,1.7-16.7,4.7c-8-29.3-36-34.7-36.3-34.7
				c-2.3-0.4-4.5,1.1-4.8,3.3C135.6,116.1,137.1,118.3,139.3,118.8z"/>
			<path d="M502.3,446.2l-72-72.1V0H9.7v483.8h398.5l28.2,28.2c0,0,30.3,0.3,48.5-20.5C503.2,470.7,502.3,446.2,502.3,446.2z
				 M37.4,456.1c0-25.2,0-403.2,0-428.4c24.8,0,340.4,0,365.2,0c0,17.1,0,197.2,0,318.8l-39.3-39.3L345.2,318l-27.5-26.6
				c42.9-60.1,37.8-144.1-16.2-197.8c-60.1-60.1-157.6-60-217.5,0c-60,60-60,157.4,0,217.6c54,54,137.8,59,197.9,16.1l25.7,24.8
				l-10.3,20.8l83.2,83.2C303,456.1,59.1,456.1,37.4,456.1z M276.5,286.3c-46.2,46.2-121.3,46.3-167.6,0
				C62.7,240,62.7,165,109,118.6c46.1-46.2,121.3-46.3,167.6,0C322.9,164.9,322.9,239.8,276.5,286.3z"/>
		</g>
	</g>
</g>
</svg>
