<?xml version="1.0" encoding="utf-8"?>
<!-- Generator: Adobe Illustrator 19.2.0, SVG Export Plug-In . SVG Version: 6.00 Build 0)  -->
<svg version="1.1" id="Capa_1" xmlns="http://www.w3.org/2000/svg" xmlns:xlink="http://www.w3.org/1999/xlink" x="0px" y="0px"
	 viewBox="0 0 512 512" style="enable-background:new 0 0 512 512;" xml:space="preserve">
<g>
	<g>
		<path d="M462.9,417.6c-13.5-5.6-24.7-14.3-23.9-31c0.8-16.7-12-27.8-12-27.8s11.2-36.6,0.8-66.9c-10.3-30.3-44.6-78.8-70.8-115.4
			c-26.2-36.6-4-78.8-27.8-132.9c-23.9-54.1-85.9-50.9-119.4-27.8c-33.5,23-23.1,80.3-21.5,107.4c1.6,27,0.7,46.3-2.4,53.3
			c-3.1,7-24.7,32.7-39,54.1c-14.3,21.5-24.7,66.1-35,84.4c-10.3,18.3-3.2,35-3.2,35s-7.2,2.4-12.7,14.4
			c-5.6,11.9-16.7,17.5-36.6,21.4c-19.9,4-19.9,16.8-15.1,31.1c4.8,14.3,0,22.3-5.6,40.6c-5.6,18.3,22.3,23.9,49.3,27
			c27.1,3.2,57.3,20.7,82.8,23.9c25.4,3.2,33.4-17.5,33.4-17.5s28.6-6.4,58.9-7.1c30.3-0.8,58.9,6.4,58.9,6.4s5.6,12.7,15.9,18.3
			c10.4,5.6,32.6,6.4,47-8.7c14.3-15.2,52.5-34.2,74-46.2C480.4,441.5,476.4,423.2,462.9,417.6z M276.7,66.7
			c13.6,0,24.7,13.5,24.7,30.2c0,11.8-5.5,22.1-13.6,27c-2.1-0.9-4.2-1.8-6.5-2.8c4.9-2.4,8.3-8.6,8.3-15.8c0-9.4-5.8-17-13-17
			c-7.1,0-12.9,7.7-12.9,17c0,3.5,0.8,6.8,2.3,9.6c-4.2-1.7-8.2-3.3-11.2-4.4c-1.7-4.1-2.6-8.7-2.6-13.6
			C252,80.2,263,66.7,276.7,66.7z M274.9,130.4c6.8,2.4,14.4,6.8,13.6,11.2c-0.8,4.4-4.4,4.4-13.6,10.1c-9.2,5.6-29.3,18-35.7,18.8
			c-6.4,0.8-10-2.8-16.9-7.2c-6.8-4.4-19.7-14.9-16.4-20.5c0,0,10-7.7,14.4-11.7c4.4-4,15.7-13.6,22.5-12.4
			C249.6,120,268.1,128,274.9,130.4z M213.4,71.5c10.8,0,19.5,12.8,19.5,28.6c0,2.9-0.3,5.6-0.8,8.2c-2.6,0.9-5.3,2.3-7.9,4.5
			c-1.3,1.1-2.5,2.1-3.6,3.1c1.7-3.2,2.4-7.7,1.6-12.5c-1.4-8.6-7.2-14.9-12.9-14c-5.7,1-9.1,8.7-7.7,17.4c1.5,8.7,7.2,15,12.9,14
			c0.3-0.1,0.6-0.2,1-0.3c-2.8,2.7-5.3,5-7.9,6.9c-7.9-3.7-13.6-14.5-13.6-27.4C193.9,84.3,202.6,71.5,213.4,71.5z M192.4,473.6
			c-2.5,11.4-15.9,19.7-15.9,19.7c-12.1,3.8-45.8-10.8-61-17.2c-15.2-6.3-54-8.3-59.1-13.9c-5.1-5.8,2.5-18.5,4.5-30.5
			c1.9-12.1-3.8-19.7-1.9-28c1.9-8.2,26.7-8.2,36.2-13.9c9.6-5.8,11.5-22.3,19.1-26.7c7.6-4.5,21.6,11.4,27.3,20.4
			c5.7,8.9,27.3,47,36.2,56.6C186.7,449.4,194.9,462.2,192.4,473.6z M333.1,362.7c-2.3,11.2-2.3,51.8-2.3,51.8s-24.7,34.2-62.9,39.8
			c-38.2,5.6-57.3,1.6-57.3,1.6l-21.5-24.6c0,0,16.7-2.4,14.3-19.1c-2.4-16.7-50.9-39.8-59.7-60.5c-8.7-20.7-1.6-55.7,9.6-73.2
			c11.1-17.5,18.3-55.7,29.4-68.4c11.2-12.7,19.9-39.7,15.9-51.7c0,0,23.9,28.7,40.6,23.9c16.7-4.8,54.2-32.7,59.7-27.9
			c5.6,4.8,53.3,109.8,58,143.2c4.8,33.4-3.2,58.9-3.2,58.9S335.5,351.5,333.1,362.7z M455.2,437.7c-7.4,6.8-48.8,23.5-61.2,36.6
			c-12.3,12.9-28.4,23.4-38.3,20.4c-9.9-3.1-18.6-16.7-14.2-36.5c4.3-19.7,8-41.4,7.4-53.8c-0.6-12.4-3.1-29.1,0-31.6
			c3.1-2.4,8-1.2,8-1.2s-2.4,23.5,11.8,29.7c14.2,6.1,34.6-2.5,40.8-8.7c6.2-6.1,10.5-15.4,10.5-15.4s6.2,3.1,5.6,13
			c-0.6,9.9,4.3,24.1,13.6,29.1C448.5,424,462.7,430.9,455.2,437.7z"/>
	</g>
</g>
</svg>
