<?xml version="1.0" encoding="utf-8"?>
<!-- Generator: Adobe Illustrator 19.2.0, SVG Export Plug-In . SVG Version: 6.00 Build 0)  -->
<svg version="1.1" id="Capa_1" xmlns="http://www.w3.org/2000/svg" xmlns:xlink="http://www.w3.org/1999/xlink" x="0px" y="0px"
	 viewBox="0 0 512 512" style="enable-background:new 0 0 512 512;" xml:space="preserve">
<g>
	<path d="M512,116.8v155c0,0-33.2,6.5-40,7.4c-6.8,0.9-28.2,7.8-43.7-7.1c-23.9-22.9-108.9-107.5-108.9-107.5s-14.7-14.4-38.2-2
		c-21.6,11.4-53.6,28.1-67,34.6c-25.3,13.5-46.2-7.9-46.2-24.2c0-12.6,7.9-21.2,19.1-27.5c30.5-18.5,94.8-54.6,121.6-68.8
		c16.3-8.7,28-9.4,50.3,9.4c27.5,23.1,52,44.2,52,44.2s8,6.7,20.7,4C462.9,127.8,512,116.8,512,116.8z M173.7,379.4
		c4.1-10.6,2.7-22.4-5.2-30.5c-7.1-7.3-17.4-9.2-27.3-6.9c2.8-9.8,1.2-20.2-5.9-27.6c-7.1-7.2-17.4-9.2-27.3-6.9
		c2.7-9.8,1.2-20.2-5.9-27.5c-11.2-11.5-30.5-11-43.2,1.1c-12.6,12.1-20.7,34.1-9.4,47c11.3,12.9,24.2,5,34,2.8
		c-2.7,9.8-11,18.9-0.8,31.7c10.1,12.8,24.2,5,34,2.8c-2.8,9.7-10.6,19.7-0.9,31.6c9.8,11.9,25.9,5.6,36.5,2.3
		c-4.1,10.5-12.9,21.9-1.6,34.6c11.3,12.8,37.3,6.9,50-5.2c12.7-12.1,13.9-31.3,2.7-42.8C195.7,378,184.2,376.1,173.7,379.4z
		 M405.4,298.8c-91.8-91.8-48.6-48.6-98-98.1c0,0-14.9-14.8-34.4-6.2c-13.7,6-31.4,14.2-44.7,20.5c-14.6,7.7-25.2,10-30.1,10
		c-28.3-0.2-51.2-22.9-51.2-51.2c0-18.3,9.7-34.3,24.2-43.3c20.4-14.1,67.4-39.1,67.4-39.1s-14.3-18.1-45.6-18.1
		c-31.3,0-96.8,42.9-96.8,42.9s-18.6,11.9-45,1.2L0,99.6v177.4c0,0,14.6,4.2,27.7,9.6c3-8.4,7.7-16.2,14.3-22.6
		c21.7-20.7,57.7-20.9,77.5-0.6c6,6.2,10.1,13.6,12.2,21.7c8,2.5,15.2,6.8,21,12.8c6,6.1,10.1,13.6,12.2,21.7
		c8,2.5,15.2,6.8,21,12.8c6.5,6.8,10.9,14.9,12.9,23.7c8.3,2.4,15.8,6.9,21.9,13.1c11.9,12.2,16.1,28.7,13.5,44.7c0,0,0.1,0,0.1,0
		c0.2,0.3,7.4,8.2,11.8,12.7c8.8,8.8,23,8.8,31.8,0c8.7-8.8,8.8-23,0-31.8c-0.3-0.3-31.6-33-29.1-35.6c2.5-2.5,42.3,38.9,43.1,39.7
		c8.7,8.7,23,8.7,31.8,0c8.8-8.8,8.7-23,0-31.8c-0.4-0.4-2.2-2.1-2.9-2.8c0,0-39.5-35.2-36.5-38.2c3-3,52.1,42.8,52.2,42.8
		c8.8,7.9,22.4,7.9,30.9-0.6c8.3-8.3,8.4-21.3,1.1-30.1c-0.2-0.5-37.4-39.4-34.5-42.3c2.9-3,39.8,35,39.9,35.1
		c8.7,8.7,23,8.7,31.8,0c8.7-8.7,8.7-23,0-31.8C405.7,299,405.5,298.9,405.4,298.8z"/>
</g>
</svg>
