<?xml version="1.0" encoding="utf-8"?>
<!-- Generator: Adobe Illustrator 19.2.0, SVG Export Plug-In . SVG Version: 6.00 Build 0)  -->
<svg version="1.1" id="Capa_1" xmlns="http://www.w3.org/2000/svg" xmlns:xlink="http://www.w3.org/1999/xlink" x="0px" y="0px"
	 viewBox="0 0 512 512" style="enable-background:new 0 0 512 512;" xml:space="preserve">
<g>
	<path d="M283.9,16.4c-77.1,0-145.4,38.5-186.7,97.3c8.6,5.6,16.9,13.2,24.9,23.1c30.8-46.1,80.7-78.4,138.3-85.4L283.9,91
		l23.4-39.6c88.6,10.7,159.1,81.1,169.8,169.8l-39.6,23.4l39.6,23.4c-7.1,59.3-41.1,110.3-89.2,140.9c3.1,7,4.8,14.1,5.1,21.5
		c0.2,5.4-0.3,10.5-1.4,15.3C463.2,407.1,512,331.4,512,244.5C512,118.7,409.7,16.4,283.9,16.4z M342.1,392.1
		c-52.6-42.3-67.3-21.5-91.2,2.4c-16.7,16.7-58.8-18.1-95.2-54.5s-71.2-78.6-54.5-95.2c23.9-23.9,44.6-38.6,2.4-91.2
		C61.2,101,33.1,141.3,9.9,164.5c-26.7,26.7-1.4,126.1,96.9,224.4s197.7,123.5,224.4,96.9C354.3,462.6,394.7,434.4,342.1,392.1z
		 M181.9,280.2c0-46.7,54.7-55.1,54.7-73.3c0-8.9-7.1-12.6-13.6-12.6c-12,0-18.8,13.5-18.8,13.5l-23-15.4c0,0,11.7-27.3,44.6-27.3
		c20.7,0,43.2,11.9,43.2,38.8c0,39.5-51,47.1-51.9,63.4H271v26.6h-87.7C182.4,288.9,181.9,284.5,181.9,280.2z M283.9,244.5
		l48.9-77.2h37.9v70.3h15.1v25.7h-15.1v30.6h-30.6v-30.6H284L283.9,244.5L283.9,244.5z M340.1,237.5v-28.3c0-6.9,1.1-14.2,1.1-14.2
		h-0.4c0,0-2.7,7.8-6.2,13.1l-19.1,29v0.4H340.1L340.1,237.5z"/>
</g>
</svg>
