<?xml version="1.0" encoding="utf-8"?>
<!-- Generator: Adobe Illustrator 19.2.0, SVG Export Plug-In . SVG Version: 6.00 Build 0)  -->
<svg version="1.1" id="Capa_1" xmlns="http://www.w3.org/2000/svg" xmlns:xlink="http://www.w3.org/1999/xlink" x="0px" y="0px"
	 viewBox="0 0 512 512" style="enable-background:new 0 0 512 512;" xml:space="preserve">
<g>
	<g>
		<path d="M0,243.1h236.3V6.8H0V243.1z M65.5,112.8H106V72.3h24.2v40.6h40.6V137h-40.6v40.6H106v-40.6H65.5V112.8z"/>
		<path d="M0,505.2h236.3V268.9H0V505.2z M65.5,375h105.3v24.2H65.5V375z"/>
		<path d="M275.7,6.8v236.3H512V6.8H275.7z M447.3,153.6l-17.1,17.1l-28.7-28.7l-28.7,28.7l-17.1-17.1l28.7-28.7l-28.7-28.7
			l17.1-17.1l28.7,28.7l28.7-28.7l17.1,17.1L418.6,125L447.3,153.6z"/>
		<path d="M275.7,505.2H512V268.9H275.7V505.2z M418,442.2c-1,2.4-2.4,4.5-4.2,6.2c-1.7,1.8-3.8,3.2-6.2,4.3c-2.4,1.1-5,1.6-7.7,1.6
			c-2.8,0-5.3-0.5-7.7-1.6c-2.4-1.1-4.4-2.5-6.2-4.3c-1.7-1.8-3.2-3.8-4.2-6.2c-1-2.4-1.6-5-1.6-7.7c0-2.7,0.5-5.3,1.6-7.7
			c1-2.4,2.4-4.5,4.2-6.2c1.7-1.7,3.8-3.1,6.2-4.2c2.4-1,5-1.5,7.7-1.5c2.7,0,5.3,0.5,7.7,1.5c2.4,1,4.5,2.4,6.2,4.2
			c1.7,1.8,3.2,3.8,4.2,6.2c1,2.4,1.6,5,1.6,7.7S419,439.8,418,442.2z M381.8,331.9c1-2.4,2.4-4.5,4.2-6.2c1.7-1.8,3.8-3.2,6.2-4.3
			c2.4-1.1,5-1.6,7.7-1.6c2.7,0,5.3,0.5,7.7,1.6c2.4,1.1,4.5,2.5,6.2,4.3c1.7,1.8,3.2,3.8,4.2,6.2c1,2.4,1.6,5,1.6,7.7
			c0,2.7-0.5,5.3-1.6,7.7c-1,2.4-2.4,4.5-4.2,6.2c-1.7,1.7-3.8,3.1-6.2,4.2c-2.4,1-4.9,1.6-7.7,1.6c-2.8,0-5.3-0.5-7.7-1.6
			c-2.4-1-4.4-2.4-6.2-4.2c-1.8-1.8-3.2-3.8-4.2-6.2c-1-2.4-1.6-5-1.6-7.7C380.3,336.9,380.8,334.4,381.8,331.9z M348.4,372.8h106
			v29.8h-106V372.8z"/>
	</g>
</g>
</svg>
