<?xml version="1.0" encoding="utf-8"?>
<!-- Generator: Adobe Illustrator 19.2.0, SVG Export Plug-In . SVG Version: 6.00 Build 0)  -->
<svg version="1.1" id="Capa_1" xmlns="http://www.w3.org/2000/svg" xmlns:xlink="http://www.w3.org/1999/xlink" x="0px" y="0px"
	 viewBox="0 0 512 512" style="enable-background:new 0 0 512 512;" xml:space="preserve">
<g>
	<path d="M468.3,32H43.7C19.6,32,0,51.6,0,75.7v262.1c0,24.1,19.6,43.7,43.7,43.7h170.4V421h-34.5c-16.3,0-29.5,13.2-29.5,29.5
		s13.2,29.5,29.5,29.5h152.8c16.3,0,29.5-13.2,29.5-29.5S348.7,421,332.4,421h-34.5v-39.5h170.4c24.1,0,43.7-19.6,43.7-43.7V75.7
		C512,51.6,492.4,32,468.3,32z M51.5,287.9c0-23,18.7-41.8,41.8-41.8c23,0,41.8,18.7,41.8,41.8c0,23-18.7,41.8-41.8,41.8
		C70.2,329.7,51.5,311,51.5,287.9z M461.3,330.8H204.1c1.2-3,0.4-6.5-2.1-8.7l-16.8-14.9c1.3-6.2,2-12.7,2-19.3
		c0-6.6-0.7-13.1-2-19.3l16.8-14.9c2.8-2.5,3.4-6.5,1.6-9.7l-17.1-29.7c-1.8-3.2-5.7-4.7-9.2-3.5l-21.3,7.1
		c-9.6-8.6-20.9-15.2-33.4-19.3l-4.5-22c-0.7-3.6-3.9-6.2-7.6-6.2H76.1c-3.7,0-6.9,2.6-7.6,6.2l-4.5,22c-4.6,1.5-9.1,3.4-13.3,5.6
		V82.7h410.6L461.3,330.8L461.3,330.8z"/>
	<path d="M230.2,204.4c-2.1-0.7-4.3,0.2-5.4,2.1L214.7,224c-1.1,1.9-0.7,4.3,0.9,5.7l9.9,8.8c-0.8,3.7-1.2,7.5-1.2,11.4
		s0.4,7.7,1.2,11.4l-9.9,8.8c-1.6,1.4-2,3.8-0.9,5.7l10.1,17.5c1.1,1.9,3.4,2.7,5.4,2.1l12.6-4.2c5.6,5.1,12.3,9,19.7,11.4l2.7,12.9
		c0.4,2.1,2.3,3.7,4.5,3.7h20.2c2.2,0,4.1-1.5,4.5-3.7l2.7-13c7.4-2.4,14-6.3,19.7-11.4l12.6,4.2c2.1,0.7,4.3-0.2,5.4-2.1l10.1-17.5
		c1.1-1.9,0.7-4.3-0.9-5.7l-9.9-8.8c0.8-3.7,1.2-7.5,1.2-11.4s-0.4-7.7-1.2-11.4l9.9-8.8c1.6-1.4,2-3.8,0.9-5.7l-10.1-17.5
		c-1.1-1.9-3.4-2.7-5.4-2.1l-12.6,4.2c-5.6-5.1-12.3-9-19.7-11.4l-2.7-12.9c-0.4-2.1-2.3-3.7-4.5-3.7h-20.2c-2.2,0-4.1,1.5-4.5,3.7
		l-2.7,13c-7.4,2.4-14,6.3-19.7,11.4L230.2,204.4z M279.7,225.3c13.6,0,24.6,11,24.6,24.6c0,13.6-11,24.6-24.6,24.6
		s-24.6-11-24.6-24.6C255.1,236.3,266.1,225.3,279.7,225.3z"/>
	<path d="M167.5,147.1c-0.5,2.5-0.8,5.1-0.8,7.8s0.3,5.3,0.8,7.8l-6.8,6c-1.1,1-1.4,2.6-0.6,3.9l6.9,12c0.7,1.3,2.3,1.9,3.7,1.4
		l8.6-2.9c3.9,3.5,8.5,6.2,13.5,7.8l1.8,8.9c0.3,1.5,1.6,2.5,3.1,2.5h13.8c1.5,0,2.8-1,3.1-2.5l1.8-8.9c5-1.7,9.6-4.3,13.5-7.8
		l8.6,2.9c1.4,0.5,3-0.1,3.7-1.4l6.9-12c0.7-1.3,0.5-2.9-0.6-3.9l-6.8-6c0.5-2.5,0.8-5.1,0.8-7.8s-0.3-5.3-0.8-7.8l6.8-6
		c1.1-1,1.4-2.6,0.6-3.9l-6.9-12c-0.7-1.3-2.3-1.9-3.7-1.4l-8.6,2.9c-3.9-3.5-8.5-6.2-13.5-7.8l-1.8-8.9c-0.3-1.5-1.6-2.5-3.1-2.5
		h-13.8c-1.5,0-2.8,1-3.1,2.5l-1.8,8.9c-5,1.7-9.6,4.3-13.5,7.8l-8.6-2.9c-1.4-0.5-3,0.1-3.7,1.4l-6.9,12c-0.7,1.3-0.5,2.9,0.6,3.9
		L167.5,147.1z M204.7,138c9.3,0,16.9,7.6,16.9,16.9s-7.6,16.9-16.9,16.9s-16.9-7.6-16.9-16.9S195.4,138,204.7,138z"/>
</g>
</svg>
