<?xml version="1.0" encoding="utf-8"?>
<!-- Generator: Adobe Illustrator 19.2.0, SVG Export Plug-In . SVG Version: 6.00 Build 0)  -->
<svg version="1.1" id="Capa_1" xmlns="http://www.w3.org/2000/svg" xmlns:xlink="http://www.w3.org/1999/xlink" x="0px" y="0px"
	 viewBox="0 0 512 512" style="enable-background:new 0 0 512 512;" xml:space="preserve">
<g>
	<g id="Icons_20_">
		<g>
			<path d="M433.5,0H210.9c-12.9,0-25.2,5.1-34.3,14.3l-132.3,133c-9,9.1-14.1,21.4-14.1,34.2v282.2c0,26.7,21.7,48.4,48.4,48.4
				h354.9c26.7,0,48.4-21.7,48.4-48.4V48.4C481.9,21.7,460.2,0,433.5,0z M447.7,463.6c0,7.9-6.4,14.3-14.3,14.3H78.5
				c-7.9,0-14.3-6.4-14.3-14.3V191h136.1c12.5,0,22.7-10.2,22.7-22.7V34.1h210.4c7.9,0,14.3,6.4,14.3,14.3L447.7,463.6L447.7,463.6z
				"/>
			<path d="M351.7,263.8H160.3c-14.1,0-25.6,11.5-25.6,25.6c0,14.1,11.5,25.6,25.6,25.6h191.4c14.1,0,25.6-11.5,25.6-25.6
				C377.3,275.2,365.8,263.8,351.7,263.8z"/>
			<path d="M351.7,178.4h-71.9c-14.1,0-25.6,11.5-25.6,25.6c0,14.1,11.5,25.6,25.6,25.6h71.9c14.1,0,25.6-11.5,25.6-25.6
				C377.3,189.9,365.8,178.4,351.7,178.4z"/>
			<path d="M351.7,93.1h-71.9c-14.1,0-25.6,11.5-25.6,25.6c0,14.1,11.5,25.6,25.6,25.6h71.9c14.1,0,25.6-11.5,25.6-25.6
				C377.3,104.6,365.8,93.1,351.7,93.1z"/>
			<path d="M351.7,360.2H160.3c-14.1,0-25.6,11.5-25.6,25.6c0,14.1,11.5,25.6,25.6,25.6h191.4c14.1,0,25.6-11.5,25.6-25.6
				C377.3,371.6,365.8,360.2,351.7,360.2z"/>
		</g>
	</g>
</g>
</svg>
