<?xml version="1.0" encoding="utf-8"?>
<!-- Generator: Adobe Illustrator 19.2.0, SVG Export Plug-In . SVG Version: 6.00 Build 0)  -->
<svg version="1.1" id="Capa_1" xmlns="http://www.w3.org/2000/svg" xmlns:xlink="http://www.w3.org/1999/xlink" x="0px" y="0px"
	 viewBox="0 0 512 512" style="enable-background:new 0 0 512 512;" xml:space="preserve">
<g>
	<g>
		<g>
			<path d="M472.3,40C469.6,38.3,405.2,0,256,0C106.8,0,42.4,38.3,39.7,40c-8.5,5.2-13.5,14.6-13.1,24.5
				c0.1,2.9,3.4,72.9,30.8,162.1c16.2,52.6,37.4,101,63.2,143.9c32.6,54.3,72.5,99.9,118.6,135.7c4.9,3.8,10.9,5.8,16.8,5.8
				c5.9,0,11.9-1.9,16.8-5.8c46.1-35.8,86-81.5,118.5-135.7c25.8-43,47.1-91.4,63.2-143.9c27.4-89.2,30.7-159.2,30.8-162.1
				C485.8,54.6,480.8,45.2,472.3,40z M357.7,172.7l-121,121c-3.5,3.5-8.2,5.4-13.1,5.4c-5,0-9.6-1.9-13.1-5.4l-56.1-56.2
				c-7.2-7.2-7.2-19,0-26.2l10.8-10.8c3.5-3.5,8.2-5.4,13.1-5.4c4.9,0,9.6,1.9,13.1,5.4l32.2,32.1l97-97c3.5-3.5,8.1-5.4,13.1-5.4
				c5,0,9.6,1.9,13.1,5.4l10.9,10.9C364.9,153.8,364.9,165.5,357.7,172.7z"/>
		</g>
	</g>
</g>
</svg>
