<?xml version="1.0" encoding="utf-8"?>
<!-- Generator: Adobe Illustrator 18.0.0, SVG Export Plug-In . SVG Version: 6.00 Build 0)  -->
<!DOCTYPE svg PUBLIC "-//W3C//DTD SVG 1.1//EN" "http://www.w3.org/Graphics/SVG/1.1/DTD/svg11.dtd">
<svg version="1.1" id="Слой_1" xmlns="http://www.w3.org/2000/svg" xmlns:xlink="http://www.w3.org/1999/xlink" x="0px" y="0px"
	 viewBox="0 0 512 512" enable-background="new 0 0 512 512" xml:space="preserve">
<g>
	<g>
		<path fill="#0D0F0F" d="M331.5,278.8c4.7-7.5,28.4-45.8,31.6-69.4c0.4-2.9,0-5.8-1-8.5c-3.3-8.5-27.7-57.8-56.7-71.8
			c0,0-22.6-10.5-22.6-10.5l-9.8-8.3l-15.2,15.1l14.9,99.6c0,0.3,0,0.7-0.2,0.9l-15.2,20.8c-0.2,0.3-0.6,0.5-1,0.5
			c-0.4,0-0.8-0.2-1-0.5L240,226c-0.2-0.3-0.3-0.6-0.2-0.9l14.9-99.6l-15.2-15.1l-9.8,8.3c0,0-22.4,10.3-23,10.5
			c-29,13.9-53.4,63.3-56.7,71.8c-1,2.7-1.4,5.6-1,8.5c3.2,23.5,26.9,61.9,31.6,69.4c3.3,5.2,8.9,8,14.6,8c3,0,6-0.8,8.8-2.4
			c1.4,3.9,3.4,7.5,5.8,10.9l0,192.8c0,11.6,9.4,20.9,20.9,20.9c11.6,0,20.9-9.4,20.9-20.9l0.2-169.9c1.5,0.1,2.9,0.2,4.4,0.2
			c1.4,0,2.8-0.1,4.2-0.2l0,169.9c0,11.6,9.4,20.9,20.9,20.9c11.6,0,20.9-9.4,20.9-20.9l0-192.2c2.6-3.4,4.7-7.2,6.2-11.3
			c2.7,1.5,5.6,2.2,8.5,2.2C322.6,286.8,328.2,284,331.5,278.8z"/>
		<path fill="#0D0F0F" d="M256.2,109.7c25.2,0,44.1-23.5,44.5-62.9C301,19.4,287.9,3,256.2,3c-31.7,0-44.8,16.4-44.5,43.7
			C212.1,86.2,231,109.7,256.2,109.7z"/>
		<path fill="#0D0F0F" d="M475.6,256.9c-2.7-7-22.7-47.3-46.4-58.7c0,0-18.5-8.6-18.5-8.6l-8.1-6.8l-12.6,12.5c0,0,0,0,0,0
			l11.3,83.8c0,0.2,0,0.5-0.2,0.7l-11.1,15.2c-0.2,0.2-0.5,0.4-0.8,0.4c-0.3,0-0.6-0.1-0.8-0.4l-11.1-15.2c-0.1-0.2-0.2-0.4-0.2-0.7
			l10.5-83.8c0,0,0,0,0-0.1l-12.6-12.5l-4.1,3.5c2.8,5.6,4.4,9.3,4.4,9.4c1.9,5,2.6,10.4,1.9,15.7c-3.4,25.2-25.5,62.1-33.1,74.2
			l-2.8,3.9c-6,7.4-15,11.7-24.6,11.7c0,0-0.1,0-0.1,0v1.9c4.5,8.4,8.7,15,10.3,17.5c2.7,4.2,7.3,6.6,11.9,6.6c2.5,0,4.9-0.7,7.2-2
			c1.1,3.2,2.8,6.2,4.7,8.9l0,157.7c0,9.5,7.7,17.1,17.1,17.1c9.5,0,17.1-7.7,17.1-17.1l0.2-139c1.2,0.1,2.4,0.2,3.6,0.2
			c1.1,0,2.3-0.1,3.5-0.2l0,139c0,9.5,7.7,17.1,17.1,17.1c9.5,0,17.1-7.7,17.1-17.1l0-157.3c2.1-2.8,3.8-5.9,5-9.2
			c2.2,1.2,4.6,1.8,6.9,1.8c4.7,0,9.2-2.3,11.9-6.6c3.9-6.1,23.3-37.5,25.9-56.8C476.8,261.5,476.5,259.1,475.6,256.9z M433.6,293.9
			l0-53.5c5.9,8,11.2,17.1,14.1,23.1C445.5,271.3,439.6,283.4,433.6,293.9z"/>
		<path fill="#0D0F0F" d="M389,182.3c20.6,0,36.1-19.2,36.4-51.5C425.6,108.4,414.9,95,389,95c-26,0-36.6,13.4-36.4,35.8
			C352.9,163,368.3,182.3,389,182.3z"/>
		<path fill="#0D0F0F" d="M170.4,289.6l-2.4-3.4c-7.3-11.6-30-49.2-33.5-74.8c-0.7-5.3-0.1-10.7,1.9-15.7c0.1-0.1,1.6-3.9,4.5-9.6
			l-3.9-3.3l-12.6,12.6c0,0,0,0,0,0l11.3,83.8c0,0.2,0,0.5-0.2,0.7l-11.1,15.2c-0.2,0.2-0.5,0.4-0.8,0.4c-0.3,0-0.6-0.1-0.8-0.4
			l-11.1-15.2c-0.1-0.2-0.2-0.4-0.2-0.7l10.5-83.8c0,0,0,0,0-0.1l-12.6-12.5l-8.1,6.8c0,0-18.4,8.4-18.8,8.6
			C59.1,209.6,39.1,250,36.4,257c-0.9,2.2-1.1,4.6-0.8,7c2.6,19.3,22,50.7,25.9,56.8c2.7,4.2,7.3,6.6,11.9,6.6c2.5,0,4.9-0.7,7.2-2
			c1.1,3.2,2.8,6.2,4.7,8.9l0,157.7c0,9.5,7.7,17.1,17.1,17.1c9.5,0,17.1-7.7,17.1-17.1l0.2-139c1.2,0.1,2.4,0.2,3.6,0.2
			c1.1,0,2.3-0.1,3.5-0.2l0,139c0,9.5,7.7,17.1,17.1,17.1c9.5,0,17.1-7.7,17.1-17.1l0-157.3c2.1-2.8,3.8-5.9,5-9.2
			c2.2,1.2,4.6,1.8,6.9,1.8c4.7,0,9.2-2.3,11.9-6.6c1.6-2.5,5.7-9.2,10.3-17.5v-1.8c-0.1,0-0.1,0-0.1,0
			C185.4,301.3,176.4,297,170.4,289.6z M64.3,263.6c3-6.2,8.4-15.4,14.4-23.6l0,54.5C72.7,283.9,66.5,271.5,64.3,263.6z"/>
		<path fill="#0D0F0F" d="M123.4,182.3c20.6,0,36.1-19.2,36.4-51.5C160,108.4,149.3,95,123.4,95c-26,0-36.6,13.4-36.4,35.8
			C87.3,163,102.7,182.3,123.4,182.3z"/>
	</g>
</g>
</svg>
