<?xml version="1.0" encoding="utf-8"?>
<!-- Generator: Adobe Illustrator 18.0.0, SVG Export Plug-In . SVG Version: 6.00 Build 0)  -->
<!DOCTYPE svg PUBLIC "-//W3C//DTD SVG 1.1//EN" "http://www.w3.org/Graphics/SVG/1.1/DTD/svg11.dtd">
<svg version="1.1" id="Слой_1" xmlns="http://www.w3.org/2000/svg" xmlns:xlink="http://www.w3.org/1999/xlink" x="0px" y="0px"
	 viewBox="0 0 512 512" enable-background="new 0 0 512 512" xml:space="preserve">
<g>
	<path fill="#0D0F0F" d="M510.2,255.8c0,140.2-114.1,254.4-254.3,254.4C115.6,510.2,1.5,396.1,1.5,255.8S115.6,1.5,255.9,1.5
		c51.3,0,101.2,15.7,143.2,44.3l39.1-39.1l31.4,120.6L349,95.9l27.3-27.4c-35.7-23-77.5-35.6-120.5-35.6
		c-122.9,0-222.9,100-222.9,222.9c0,122.9,100,223,222.9,223c122.9,0,222.9-100,222.9-223L510.2,255.8L510.2,255.8z M192.6,258.2
		c-21.4,15.1-36,28.1-43.8,39c-7.8,10.9-11.7,24.1-11.7,39.5v0h114.5v-29.1h-73.5l0.1-0.2c5.6-7.7,15.9-16.4,31-26
		c16.3-10.5,27.5-19.9,33.5-28.2c5.9-8.4,8.9-19,8.9-31.7c0-15.6-5.2-28.2-15.6-38c-10.6-9.8-24-14.7-40.6-14.7
		c-17.7,0-31.7,5.3-41.7,16c-10.1,10.7-14.9,25.1-14.3,43.4h32.4c-0.3-9.8,1.7-17.5,5.9-23.2c4.2-5.7,10.1-8.5,17.6-8.5
		c7,0,12.7,2.3,17,6.8c4.3,4.5,6.4,10.5,6.4,18c0,6.9-2,13-5.9,18.6C209,245.3,202.2,251.5,192.6,258.2z M328,336.8v-37h-66.5v-14.3
		v-14.3l62.1-102.4h18.5h18.4v104.8h18.9v26.2h-18.9v37L328,336.8L328,336.8z M328,273.5v-70l-40.7,67.7l-1.4,2.3L328,273.5
		L328,273.5z M266.1,58.7h-15.7v31.5h15.7V58.7z M266.1,415.3h-15.7v31.5h15.7V415.3z M452.3,260.6v-15.7h-31.5v15.7H452.3z
		 M95.7,260.6v-15.7H64.2v15.7H95.7z"/>
</g>
</svg>
