<?xml version="1.0" encoding="utf-8"?>
<!-- Generator: Adobe Illustrator 18.0.0, SVG Export Plug-In . SVG Version: 6.00 Build 0)  -->
<!DOCTYPE svg PUBLIC "-//W3C//DTD SVG 1.1//EN" "http://www.w3.org/Graphics/SVG/1.1/DTD/svg11.dtd">
<svg version="1.1" id="Capa_1" xmlns="http://www.w3.org/2000/svg" xmlns:xlink="http://www.w3.org/1999/xlink" x="0px" y="0px"
	 viewBox="0 0 512 512" enable-background="new 0 0 512 512" xml:space="preserve">
<g>
	<path d="M494.3,101.1L339.5,256l154.8,154.8c23,23,23,60.4,0,83.4c-11.5,11.5-26.6,17.3-41.7,17.3c-15.1,0-30.2-5.7-41.7-17.3
		L256,339.3L101.1,494.2c-11.5,11.5-26.6,17.3-41.7,17.3s-30.2-5.7-41.7-17.3c-23-23-23-60.4,0-83.4L172.6,256L17.7,101.1
		c-23-23-23-60.4,0-83.4s60.3-23,83.4,0L256,172.6L410.8,17.7c23-23,60.4-23,83.4,0C517.3,40.8,517.3,78.1,494.3,101.1z"/>
</g>
</svg>
