<?xml version="1.0" encoding="utf-8"?>
<!-- Generator: Adobe Illustrator 18.0.0, SVG Export Plug-In . SVG Version: 6.00 Build 0)  -->
<!DOCTYPE svg PUBLIC "-//W3C//DTD SVG 1.1//EN" "http://www.w3.org/Graphics/SVG/1.1/DTD/svg11.dtd">
<svg version="1.1" id="Capa_1" xmlns="http://www.w3.org/2000/svg" xmlns:xlink="http://www.w3.org/1999/xlink" x="0px" y="0px"
	 viewBox="0 0 512 512" enable-background="new 0 0 512 512" xml:space="preserve">
<g>
	<path d="M492.9,52.3l-13.7-11.7c-22.7-19.5-56.8-17.4-76.9,4.8L173.5,299.2l-69-59.4c-22.7-19.6-56.8-17.4-76.9,4.8L15.4,258
		c-9.8,10.8-14.9,25.1-14.1,39.8c0.7,14.6,7.3,28.4,18.2,38.1l126.6,116c11,10.3,25.6,15.6,40.7,14.8c15-0.8,29.1-7.7,38.9-19.1
		l273.1-317.4c9.6-11.1,14.3-25.5,13.2-40.1C510.7,75.4,503.9,61.9,492.9,52.3z"/>
</g>
</svg>
