<?xml version="1.0" encoding="utf-8"?>
<!-- Generator: Adobe Illustrator 18.0.0, SVG Export Plug-In . SVG Version: 6.00 Build 0)  -->
<!DOCTYPE svg PUBLIC "-//W3C//DTD SVG 1.1//EN" "http://www.w3.org/Graphics/SVG/1.1/DTD/svg11.dtd">
<svg version="1.1" id="Слой_1" xmlns="http://www.w3.org/2000/svg" xmlns:xlink="http://www.w3.org/1999/xlink" x="0px" y="0px"
	 viewBox="0 0 771 102" enable-background="new 0 0 771 102" xml:space="preserve">
<g>
	<linearGradient id="SVGID_1_" gradientUnits="userSpaceOnUse" x1="-0.2912" y1="25.824" x2="771.2912" y2="25.824">
		<stop  offset="0" style="stop-color:#6086C4"/>
		<stop  offset="0.1" style="stop-color:#6086C4;stop-opacity:0"/>
	</linearGradient>
	<path fill="url(#SVGID_1_)" stroke="#000000" stroke-miterlimit="10" d="M-0.3,51.5c0.1-7.2,4.3-11.3,12.6-12.6H83V25.8l44.4-25.6
		l44.4,25.6v13.1h83.3V25.8l44.4-25.6l44.4,25.6v13.1h83.3V25.8l44.4-25.6l44.4,25.6v13.1h83.3V25.8l44.4-25.6L688,25.8v13.1h70.8
		c8,0.5,12.4,4.5,12.5,12.3"/>
	<linearGradient id="SVGID_2_" gradientUnits="userSpaceOnUse" x1="-0.2912" y1="76.8393" x2="771.2912" y2="76.8393">
		<stop  offset="0" style="stop-color:#6086C4"/>
		<stop  offset="0.1" style="stop-color:#6086C4;stop-opacity:0"/>
	</linearGradient>
	<path fill="url(#SVGID_2_)" stroke="#000000" stroke-miterlimit="10" d="M-0.3,51.4c0.9,8.9,5.9,11.9,12.6,12.4H83v13.1l44.4,25.6
		l44.4-25.6V63.8h83.3v13.1l44.4,25.6l44.4-25.6V63.8h83.3v13.1l44.4,25.6l44.4-25.6V63.8h83.3v13.1l44.4,25.6L688,76.9V63.8h70.8
		c7.5-0.9,12-4.8,12.5-12.7"/>
</g>
<g>
	<g>
		<g>
			<path stroke="#000000" stroke-width="0.9286" stroke-miterlimit="10" d="M134,32.9h8.3l0,9.7l4.2-6.6v-5.5c0-0.3-0.1-0.7-0.4-0.9
				l-10.8-10.8c-0.2-0.2-0.6-0.4-0.9-0.4h-33.3c-2.1,0-3.8,1.7-3.8,3.8v57.4c0,2.1,1.7,3.8,3.8,3.8h41.5c2.1,0,3.8-1.7,3.8-3.8V63.4
				l-4.2,6.5l0,9.4h-40.7V22.7h30.8v8.6C132.5,32.2,133.2,32.9,134,32.9z"/>
			<path stroke="#000000" stroke-width="0.9286" stroke-miterlimit="10" d="M151.3,48.7l-1.7-1.1c-0.3-0.2-0.7-0.1-0.9,0.2
				l-9.4,14.4l-1.8-1.2l9.4-14.4c0.2-0.3,0.1-0.7-0.2-0.9l-1.7-1.1c-0.3-0.2-0.7-0.1-0.9,0.2l-14.1,21.5c-0.1,0.1-0.1,0.2-0.1,0.3
				l-0.4,7.5c0,0.2,0.1,0.4,0.3,0.5c0.2,0.1,0.4,0.1,0.6,0l6.7-3.3c0.1,0,0.2-0.1,0.2-0.2l14.1-21.5
				C151.7,49.3,151.6,48.9,151.3,48.7z"/>
			<path stroke="#000000" stroke-width="0.9286" stroke-miterlimit="10" d="M157.1,39.9l-6.3-4.1c-0.3-0.2-0.7-0.1-0.9,0.2l-4.3,6.5
				c-0.2,0.3-0.1,0.7,0.2,0.9l6.3,4.1c0.3,0.2,0.7,0.1,0.9-0.2l4.3-6.5C157.4,40.4,157.3,40.1,157.1,39.9z"/>
			<path stroke="#000000" stroke-width="0.9286" stroke-miterlimit="10" d="M107.8,32h12.1c0.9,0,1.5-0.7,1.5-1.5
				c0-0.9-0.7-1.5-1.5-1.5h-12.1c-0.9,0-1.5,0.7-1.5,1.5C106.3,31.3,107,32,107.8,32z"/>
			<path stroke="#000000" stroke-width="0.9286" stroke-miterlimit="10" d="M130.7,38.2c0-0.9-0.7-1.5-1.5-1.5h-21.4
				c-0.9,0-1.5,0.7-1.5,1.5c0,0.9,0.7,1.5,1.5,1.5h21.4C130,39.8,130.7,39.1,130.7,38.2z"/>
			<path stroke="#000000" stroke-width="0.9286" stroke-miterlimit="10" d="M107.8,47.5h12.1c0.9,0,1.5-0.7,1.5-1.5
				c0-0.9-0.7-1.5-1.5-1.5h-12.1c-0.9,0-1.5,0.7-1.5,1.5C106.3,46.8,107,47.5,107.8,47.5z"/>
			<path stroke="#000000" stroke-width="0.9286" stroke-miterlimit="10" d="M107.8,55.3h12.1c0.9,0,1.5-0.7,1.5-1.5
				c0-0.9-0.7-1.5-1.5-1.5h-12.1c-0.9,0-1.5,0.7-1.5,1.5C106.3,54.6,107,55.3,107.8,55.3z"/>
			<path stroke="#000000" stroke-width="0.8622" stroke-miterlimit="10" d="M108.5,75.3c-0.3,0.4,0.2,0.9,0.5,0.5
				c1-1.2,1.8-2.6,2.4-4c0.4,0.3,1,0.2,1.4,0c0.6-0.3,1.2-0.7,1.7-1.2c0.3-0.3,0.7-0.7,1.1-0.7c0.3,0,0.8,0.2,1.1,0.3
				c0.8,0.1,1.8-0.1,2.7-0.3c0.8-0.2,1.7-0.5,2.1-1.2c0.3-0.4-0.4-0.8-0.7-0.4c-0.4,0.6-1.3,0.7-1.9,0.9c-0.7,0.2-1.5,0.3-2.3,0.2
				c-0.5-0.1-1-0.4-1.6-0.2c-0.8,0.3-1.3,1-2,1.5c-0.3,0.2-0.6,0.4-1,0.4c-0.2,0-0.3,0-0.4-0.1c0.1-0.2,0.2-0.4,0.2-0.6
				c0.8-1.9,1.1-3.8,1.4-5.7c0.2-1,0.5-2.6-1-2.7c-1.3-0.1-2.4,1.7-2.8,2.7c-0.4,0.9-0.4,1.9-0.4,2.8c0,0.6,0.2,1.2,0.4,1.8
				c-1.2,0.2-2.3,1.4-2.1,2.6c0.2,1.2,1.7,0.6,2.2,0.1c0.6-0.4,0.8-1,0.8-1.6c0.1,0.2,0.2,0.4,0.3,0.6
				C110.3,72.6,109.5,74,108.5,75.3z M109.8,70.9c-0.1,0.5-0.8,1-1.3,1.1c-0.4,0-0.2-0.7-0.1-0.8c0.2-0.5,0.9-0.8,1.4-1
				C109.9,70.4,109.9,70.6,109.8,70.9z M110.5,69.4c-0.1-0.6-0.3-1.2-0.4-1.8c-0.1-1.1,0.1-2.2,0.6-3.2c0.3-0.6,1-1.5,1.7-1.6
				c0.6-0.1,0.3,1.5,0.2,1.8c-0.2,1-0.3,1.9-0.5,2.9c-0.2,0.9-0.5,1.8-0.8,2.6C111.1,69.8,110.9,69.5,110.5,69.4z"/>
		</g>
	</g>
</g>
<g>
	<path stroke="#000000" stroke-width="0.8622" stroke-miterlimit="10" d="M504,33.3V53c0,0-4.2,0.8-5.1,0.9c-0.9,0.1-3.6,1-5.6-0.9
		c-3-2.9-13.8-13.6-13.8-13.6s-1.9-1.8-4.8-0.2c-2.7,1.4-6.8,3.6-8.5,4.4c-3.2,1.7-5.9-1-5.9-3.1c0-1.6,1-2.7,2.4-3.5
		c3.9-2.3,12-6.9,15.4-8.7c2.1-1.1,3.6-1.2,6.4,1.2c3.5,2.9,6.6,5.6,6.6,5.6s1,0.8,2.6,0.5C497.8,34.7,504,33.3,504,33.3z
		 M461.1,66.7c0.5-1.3,0.3-2.8-0.7-3.9c-0.9-0.9-2.2-1.2-3.5-0.9c0.4-1.2,0.2-2.6-0.7-3.5c-0.9-0.9-2.2-1.2-3.5-0.9
		c0.3-1.2,0.2-2.6-0.8-3.5c-1.4-1.5-3.9-1.4-5.5,0.1c-1.6,1.5-2.6,4.3-1.2,6c1.4,1.6,3.1,0.6,4.3,0.4c-0.3,1.2-1.4,2.4-0.1,4
		c1.3,1.6,3.1,0.6,4.3,0.4c-0.3,1.2-1.3,2.5-0.1,4c1.2,1.5,3.3,0.7,4.6,0.3c-0.5,1.3-1.6,2.8-0.2,4.4c1.4,1.6,4.7,0.9,6.3-0.7
		c1.6-1.5,1.8-4,0.3-5.4C463.9,66.5,462.4,66.2,461.1,66.7z M490.5,56.4c-11.7-11.7-6.2-6.2-12.4-12.5c0,0-1.9-1.9-4.4-0.8
		c-1.7,0.8-4,1.8-5.7,2.6c-1.9,1-3.2,1.3-3.8,1.3c-3.6,0-6.5-2.9-6.5-6.5c0-2.3,1.2-4.4,3.1-5.5c2.6-1.8,8.6-5,8.6-5
		s-1.8-2.3-5.8-2.3c-4,0-12.3,5.4-12.3,5.4s-2.4,1.5-5.7,0.1l-6.5-2.3v22.5c0,0,1.8,0.5,3.5,1.2c0.4-1.1,1-2.1,1.8-2.9
		c2.8-2.6,7.3-2.7,9.8-0.1c0.8,0.8,1.3,1.7,1.6,2.8c1,0.3,1.9,0.9,2.7,1.6c0.8,0.8,1.3,1.7,1.6,2.8c1,0.3,1.9,0.9,2.7,1.6
		c0.8,0.9,1.4,1.9,1.6,3c1.1,0.3,2,0.9,2.8,1.7c1.5,1.5,2,3.6,1.7,5.7c0,0,0,0,0,0c0,0,0.9,1,1.5,1.6c1.1,1.1,2.9,1.1,4,0
		c1.1-1.1,1.1-2.9,0-4c0,0-4-4.2-3.7-4.5c0.3-0.3,5.4,4.9,5.5,5c1.1,1.1,2.9,1.1,4,0c1.1-1.1,1.1-2.9,0-4c-0.1-0.1-0.3-0.3-0.4-0.4
		c0,0-5-4.5-4.6-4.8c0.4-0.4,6.6,5.4,6.6,5.4c1.1,1,2.8,1,3.9-0.1c1-1,1.1-2.7,0.1-3.8c0-0.1-4.7-5-4.4-5.4c0.4-0.4,5.1,4.4,5.1,4.4
		c1.1,1.1,2.9,1.1,4,0C491.7,59.4,491.7,57.6,490.5,56.4C490.5,56.5,490.5,56.4,490.5,56.4z"/>
</g>
<g>
	<path stroke="#000000" stroke-width="0.8622" stroke-miterlimit="10" d="M330.4,47.3h-3.9c-1.6-12.1-11.2-21.7-23.3-23.3l0-3.9
		c0-0.9-0.5-1.6-1.1-1.6l-5.2,0c-0.6,0-1.1,0.7-1.1,1.6l0,3.9c-12.1,1.6-21.7,11.2-23.3,23.3h-4c-0.9,0-1.6,0.5-1.6,1.1v5.2
		c0,0.6,0.7,1.1,1.6,1.1h3.9c1.6,12.1,11.2,21.8,23.4,23.4l0,3.9c0,0.9,0.5,1.6,1.1,1.6l5.2,0c0.6,0,1.1-0.7,1.1-1.6V78
		c12.1-1.6,21.8-11.3,23.4-23.4h3.9c0.9,0,1.6-0.5,1.6-1.1v-5.2C332,47.8,331.3,47.3,330.4,47.3z M310.3,54.6h6.3
		c-0.7,3.3-2.3,6.4-4.8,8.8c-2.4,2.4-5.5,4.1-8.8,4.8v-6.3c0-0.5-0.4-0.9-0.9-0.9h-5.4c-0.5,0-0.9,0.4-0.9,0.9v6.3
		c-3.3-0.7-6.4-2.3-8.8-4.8c-2.4-2.4-4.1-5.5-4.8-8.8h6.3c0.5,0,0.9-0.4,0.9-0.9v-5.4c0-0.5-0.4-0.9-0.9-0.9h-6.3
		c0.7-3.3,2.3-6.4,4.8-8.8c2.4-2.4,5.5-4.1,8.8-4.8v6.3c0,0.5,0.4,0.9,0.9,0.9h5.4c0.5,0,0.9-0.4,0.9-0.9v-6.3
		c3.3,0.7,6.4,2.3,8.8,4.8c2.4,2.4,4.1,5.5,4.8,8.8h-6.3c-0.5,0-0.9,0.4-0.9,0.9v5.4C309.5,54.2,309.9,54.6,310.3,54.6z"/>
</g>
<g>
	<g>
		<path stroke="#000000" stroke-width="0.8622" stroke-miterlimit="10" d="M674.1,49.7h-11c0-0.8,0-1.6,0-2.3c0-1,0-1.8-0.2-2.5
			c6.7-1.4,11.9-8.6,11.9-17.4c0-1.2-0.8-2-2-2c-1.2,0-2,0.8-2,2c0,7-3.9,12.7-9.2,13.5c-1-1.4-2.2-1.8-3.7-1.8
			c-0.4-5.7-2.9-10.4-6.7-13.3c2.5-2.2,4.3-5.5,4.3-9.2c0-1.2-0.8-2-2-2c-1.2,0-2,0.8-2,2c0,2.9-1.6,5.7-4.1,7
			c-1.4-0.6-2.7-0.8-4.1-0.8c-1.4,0-2.7,0.2-4.1,0.8c-2.3-1.4-4.1-4.1-4.1-7c0-1.2-0.8-2-2-2c-1.2,0-2,0.8-2,2c0,3.7,1.6,7,4.3,9.2
			c-3.5,2.9-6.1,7.8-6.7,13.3c-1.6,0-2.9,0.6-3.7,1.8c-5.3-0.8-9.2-6.5-9.2-13.5c0-1.2-0.8-2-2-2c-1.2,0-2,0.8-2,2
			c0,8.6,5.1,15.9,11.9,17.4c0,0.8-0.2,1.6-0.2,2.5c0,0.8,0,1.6,0,2.3h-11c-1.2,0-2,0.8-2,2c0,1.2,0.8,2,2,2h11.6
			c0.4,1.6,0.8,3.3,1.4,4.7c-7.2,1-12.9,7-12.9,14.7c0,1.2,0.8,2,2,2c1.2,0,2-0.8,2-2c0-6.1,4.9-11,11-11l0,0
			c3.5,5.9,9.2,9.8,15.7,9.8c6.5,0,11.9-3.9,15.7-9.8l0,0c6.1,0,11,4.9,11,11c0,1.2,0.8,2,2,2c1.2,0,2-0.8,2-2
			c0-7.4-5.7-13.7-12.9-14.7c0.6-1.6,1.2-3.1,1.4-4.7h11.6c1.2,0,2-0.8,2-2C676.1,50.5,675.1,49.7,674.1,49.7z M656.9,53.1h-4.1
			c-0.6,4.1-3.7,7.2-7.8,7.8V65c0,0.8-0.6,1.4-1.4,1.4s-1.4-0.6-1.4-1.4v-4.1c-4.1-0.6-7.2-3.7-7.8-7.8h-4.1c-0.8,0-1.4-0.6-1.4-1.4
			s0.6-1.4,1.4-1.4h4.1c0.6-4.1,3.7-7.2,7.8-7.8v-4.1c0-0.8,0.6-1.4,1.4-1.4c0.8,0,1.4,0.6,1.4,1.4v4.1c4.1,0.6,7.2,3.7,7.8,7.8h4.1
			c0.8,0,1.4,0.6,1.4,1.4S657.7,53.1,656.9,53.1z"/>
		<g>
			<path stroke="#000000" stroke-width="0.9286" stroke-miterlimit="10" d="M637.1,50.3h5.3V45C639.7,45.6,637.5,47.8,637.1,50.3z"
				/>
			<path stroke="#000000" stroke-width="0.9286" stroke-miterlimit="10" d="M645,58.2c2.5-0.6,4.7-2.5,5.3-5.3H645V58.2z"/>
			<path stroke="#000000" stroke-width="0.9286" stroke-miterlimit="10" d="M645,45v5.3h5.3C649.7,47.8,647.5,45.6,645,45z"/>
			<path stroke="#000000" stroke-width="0.9286" stroke-miterlimit="10" d="M642.2,58.2v-5.3h-5.3C637.5,55.6,639.7,57.8,642.2,58.2
				z"/>
		</g>
	</g>
</g>
</svg>
