<?xml version="1.0" encoding="utf-8"?>
<!-- Generator: Adobe Illustrator 18.0.0, SVG Export Plug-In . SVG Version: 6.00 Build 0)  -->
<!DOCTYPE svg PUBLIC "-//W3C//DTD SVG 1.1//EN" "http://www.w3.org/Graphics/SVG/1.1/DTD/svg11.dtd">
<svg version="1.1" id="Слой_1" xmlns="http://www.w3.org/2000/svg" xmlns:xlink="http://www.w3.org/1999/xlink" x="0px" y="0px"
	 viewBox="0 0 771 167" enable-background="new 0 0 771 167" xml:space="preserve">
<path fill="#FFFFFF" stroke="#000000" stroke-miterlimit="10" d="M772.4,50.6c0.4-12.3-12.5-12.3-12.5-12.3H689V25.2L644.7-0.5
	l-44.4,25.6v13.1H517V25.2L472.6-0.5l-44.4,25.6v13.1h-83.3V25.2L300.6-0.5l-44.4,25.6v13.1h-83.3V25.2L128.5-0.5L84.1,25.2v13.1
	H13.4c0,0-12.6,0.7-12.6,12.6s12.6,12.4,12.6,12.4h70.8v13.1l44.4,25.6l44.4-25.6V63.3h83.3v13.1l44.4,25.6l44.4-25.6V63.3h83.3
	v13.1l44.4,25.6L517,76.4V63.3h83.3v13.1l44.4,25.6L689,76.4V63.3h70.8C759.8,63.3,772,62.9,772.4,50.6z"/>
<g>
	<g>
		<g>
			<path fill="none" stroke="#000000" stroke-width="0.9286" stroke-miterlimit="10" d="M135.1,32.6h8.3l0,9.7l4.2-6.6v-5.5
				c0-0.3-0.1-0.7-0.4-0.9l-10.8-10.8c-0.2-0.2-0.6-0.4-0.9-0.4h-33.3c-2.1,0-3.8,1.7-3.8,3.8v57.4c0,2.1,1.7,3.8,3.8,3.8h41.5
				c2.1,0,3.8-1.7,3.8-3.8V63.2l-4.2,6.5l0,9.4h-40.7V22.5h30.8v8.6C133.6,31.9,134.3,32.6,135.1,32.6z"/>
			<path fill="none" stroke="#000000" stroke-width="0.9286" stroke-miterlimit="10" d="M152.4,48.5l-1.7-1.1
				c-0.3-0.2-0.7-0.1-0.9,0.2l-9.4,14.4l-1.8-1.2l9.4-14.4c0.2-0.3,0.1-0.7-0.2-0.9l-1.7-1.1c-0.3-0.2-0.7-0.1-0.9,0.2L131.1,66
				c-0.1,0.1-0.1,0.2-0.1,0.3l-0.4,7.5c0,0.2,0.1,0.4,0.3,0.5c0.2,0.1,0.4,0.1,0.6,0l6.7-3.3c0.1,0,0.2-0.1,0.2-0.2l14.1-21.5
				C152.8,49,152.7,48.7,152.4,48.5z"/>
			<path fill="none" stroke="#000000" stroke-width="0.9286" stroke-miterlimit="10" d="M158.2,39.7l-6.3-4.1
				c-0.3-0.2-0.7-0.1-0.9,0.2l-4.3,6.5c-0.2,0.3-0.1,0.7,0.2,0.9l6.3,4.1c0.3,0.2,0.7,0.1,0.9-0.2l4.3-6.5
				C158.5,40.2,158.4,39.8,158.2,39.7z"/>
			<path fill="none" stroke="#000000" stroke-width="0.9286" stroke-miterlimit="10" d="M108.9,31.8H121c0.9,0,1.5-0.7,1.5-1.5
				s-0.7-1.5-1.5-1.5h-12.1c-0.9,0-1.5,0.7-1.5,1.5S108.1,31.8,108.9,31.8z"/>
			<path fill="none" stroke="#000000" stroke-width="0.9286" stroke-miterlimit="10" d="M131.8,38c0-0.9-0.7-1.5-1.5-1.5h-21.4
				c-0.9,0-1.5,0.7-1.5,1.5s0.7,1.5,1.5,1.5h21.4C131.1,39.5,131.8,38.9,131.8,38z"/>
			<path fill="none" stroke="#000000" stroke-width="0.9286" stroke-miterlimit="10" d="M108.9,47.3H121c0.9,0,1.5-0.7,1.5-1.5
				s-0.7-1.5-1.5-1.5h-12.1c-0.9,0-1.5,0.7-1.5,1.5S108.1,47.3,108.9,47.3z"/>
			<path fill="none" stroke="#000000" stroke-width="0.9286" stroke-miterlimit="10" d="M108.9,55H121c0.9,0,1.5-0.7,1.5-1.5
				c0-0.9-0.7-1.5-1.5-1.5h-12.1c-0.9,0-1.5,0.7-1.5,1.5C107.4,54.3,108.1,55,108.9,55z"/>
			<path fill="none" stroke="#000000" stroke-width="0.8622" stroke-miterlimit="10" d="M109.6,75c-0.3,0.4,0.2,0.9,0.5,0.5
				c1-1.2,1.8-2.6,2.4-4c0.4,0.3,1,0.2,1.4,0c0.6-0.3,1.2-0.7,1.7-1.2c0.3-0.3,0.7-0.7,1.1-0.7c0.3,0,0.8,0.2,1.1,0.3
				c0.8,0.1,1.8-0.1,2.7-0.3c0.8-0.2,1.7-0.5,2.1-1.2c0.3-0.4-0.4-0.8-0.7-0.4c-0.4,0.6-1.3,0.7-1.9,0.9c-0.7,0.2-1.5,0.3-2.3,0.2
				c-0.5-0.1-1-0.4-1.6-0.2c-0.8,0.3-1.3,1-2,1.5c-0.3,0.2-0.6,0.4-1,0.4c-0.2,0-0.3,0-0.4-0.1c0.1-0.2,0.2-0.4,0.2-0.6
				c0.8-1.9,1.1-3.8,1.4-5.7c0.2-1,0.5-2.6-1-2.7c-1.3-0.1-2.4,1.7-2.8,2.7c-0.4,0.9-0.4,1.9-0.4,2.8c0,0.6,0.2,1.2,0.4,1.8
				c-1.2,0.2-2.3,1.4-2.1,2.6c0.2,1.2,1.7,0.6,2.2,0.1c0.6-0.4,0.8-1,0.8-1.6c0.1,0.2,0.2,0.4,0.3,0.6
				C111.4,72.4,110.6,73.8,109.6,75z M110.9,70.6c-0.1,0.5-0.8,1-1.3,1.1c-0.4,0-0.2-0.7-0.1-0.8c0.2-0.5,0.9-0.8,1.4-1
				C111,70.1,111,70.4,110.9,70.6z M111.6,69.1c-0.1-0.6-0.3-1.2-0.4-1.8c-0.1-1.1,0.1-2.2,0.6-3.2c0.3-0.6,1-1.5,1.7-1.6
				c0.6-0.1,0.3,1.5,0.2,1.8c-0.2,1-0.3,1.9-0.5,2.9c-0.2,0.9-0.5,1.8-0.8,2.6C112.2,69.5,112,69.3,111.6,69.1z"/>
		</g>
	</g>
</g>
<g>
	<path fill="none" stroke="#000000" stroke-width="0.8622" stroke-miterlimit="10" d="M505.1,33.1v19.7c0,0-4.2,0.8-5.1,0.9
		c-0.9,0.1-3.6,1-5.6-0.9c-3-2.9-13.8-13.6-13.8-13.6s-1.9-1.8-4.8-0.2c-2.7,1.4-6.8,3.6-8.5,4.4c-3.2,1.7-5.9-1-5.9-3.1
		c0-1.6,1-2.7,2.4-3.5c3.9-2.3,12-6.9,15.4-8.7c2.1-1.1,3.6-1.2,6.4,1.2c3.5,2.9,6.6,5.6,6.6,5.6s1,0.8,2.6,0.5
		C498.9,34.5,505.1,33.1,505.1,33.1z M462.2,66.4c0.5-1.3,0.3-2.8-0.7-3.9c-0.9-0.9-2.2-1.2-3.5-0.9c0.4-1.2,0.2-2.6-0.7-3.5
		c-0.9-0.9-2.2-1.2-3.5-0.9c0.3-1.2,0.2-2.6-0.8-3.5c-1.4-1.5-3.9-1.4-5.5,0.1c-1.6,1.5-2.6,4.3-1.2,6c1.4,1.6,3.1,0.6,4.3,0.4
		c-0.3,1.2-1.4,2.4-0.1,4c1.3,1.6,3.1,0.6,4.3,0.4c-0.3,1.2-1.3,2.5-0.1,4c1.2,1.5,3.3,0.7,4.6,0.3c-0.5,1.3-1.6,2.8-0.2,4.4
		c1.4,1.6,4.7,0.9,6.3-0.7c1.6-1.5,1.8-4,0.3-5.4C465,66.3,463.5,66,462.2,66.4z M491.6,56.2c-11.7-11.7-6.2-6.2-12.4-12.5
		c0,0-1.9-1.9-4.4-0.8c-1.7,0.8-4,1.8-5.7,2.6c-1.9,1-3.2,1.3-3.8,1.3c-3.6,0-6.5-2.9-6.5-6.5c0-2.3,1.2-4.4,3.1-5.5
		c2.6-1.8,8.6-5,8.6-5s-1.8-2.3-5.8-2.3c-4,0-12.3,5.4-12.3,5.4s-2.4,1.5-5.7,0.1l-6.5-2.3v22.5c0,0,1.8,0.5,3.5,1.2
		c0.4-1.1,1-2.1,1.8-2.9c2.8-2.6,7.3-2.7,9.8-0.1c0.8,0.8,1.3,1.7,1.6,2.8c1,0.3,1.9,0.9,2.7,1.6c0.8,0.8,1.3,1.7,1.6,2.8
		c1,0.3,1.9,0.9,2.7,1.6c0.8,0.9,1.4,1.9,1.6,3c1.1,0.3,2,0.9,2.8,1.7c1.5,1.5,2,3.6,1.7,5.7c0,0,0,0,0,0c0,0,0.9,1,1.5,1.6
		c1.1,1.1,2.9,1.1,4,0c1.1-1.1,1.1-2.9,0-4c0,0-4-4.2-3.7-4.5c0.3-0.3,5.4,4.9,5.5,5c1.1,1.1,2.9,1.1,4,0c1.1-1.1,1.1-2.9,0-4
		c-0.1-0.1-0.3-0.3-0.4-0.4c0,0-5-4.5-4.6-4.8c0.4-0.4,6.6,5.4,6.6,5.4c1.1,1,2.8,1,3.9-0.1c1-1,1.1-2.7,0.1-3.8
		c0-0.1-4.7-5-4.4-5.4c0.4-0.4,5.1,4.4,5.1,4.4c1.1,1.1,2.9,1.1,4,0C492.7,59.2,492.7,57.4,491.6,56.2
		C491.6,56.2,491.6,56.2,491.6,56.2z"/>
</g>
<g>
	<path fill="none" stroke="#000000" stroke-width="0.8622" stroke-miterlimit="10" d="M331.5,47.1h-3.9
		c-1.6-12.1-11.2-21.7-23.3-23.3l0-3.9c0-0.9-0.5-1.6-1.1-1.6l-5.2,0c-0.6,0-1.1,0.7-1.1,1.6l0,3.9c-12.1,1.6-21.7,11.2-23.3,23.3
		h-4c-0.9,0-1.6,0.5-1.6,1.1v5.2c0,0.6,0.7,1.1,1.6,1.1h3.9c1.6,12.1,11.2,21.8,23.4,23.4l0,3.9c0,0.9,0.5,1.6,1.1,1.6l5.2,0
		c0.6,0,1.1-0.7,1.1-1.6v-3.9c12.1-1.6,21.8-11.3,23.4-23.4h3.9c0.9,0,1.6-0.5,1.6-1.1v-5.2C333.1,47.6,332.4,47.1,331.5,47.1z
		 M311.4,54.4h6.3c-0.7,3.3-2.3,6.4-4.8,8.8c-2.4,2.4-5.5,4.1-8.8,4.8v-6.3c0-0.5-0.4-0.9-0.9-0.9h-5.4c-0.5,0-0.9,0.4-0.9,0.9v6.3
		c-3.3-0.7-6.4-2.3-8.8-4.8c-2.4-2.4-4.1-5.5-4.8-8.8h6.3c0.5,0,0.9-0.4,0.9-0.9v-5.4c0-0.5-0.4-0.9-0.9-0.9h-6.3
		c0.7-3.3,2.3-6.4,4.8-8.8c2.4-2.4,5.5-4.1,8.8-4.8v6.3c0,0.5,0.4,0.9,0.9,0.9h5.4c0.5,0,0.9-0.4,0.9-0.9v-6.3
		c3.3,0.7,6.4,2.3,8.8,4.8c2.4,2.4,4.1,5.5,4.8,8.8h-6.3c-0.5,0-0.9,0.4-0.9,0.9v5.4C310.6,54,311,54.4,311.4,54.4z"/>
</g>
<g>
	<g>
		<path fill="none" stroke="#000000" stroke-width="0.8622" stroke-miterlimit="10" d="M675.2,49.5h-11c0-0.8,0-1.6,0-2.3
			c0-1,0-1.8-0.2-2.5c6.7-1.4,11.9-8.6,11.9-17.4c0-1.2-0.8-2-2-2c-1.2,0-2,0.8-2,2c0,7-3.9,12.7-9.2,13.5c-1-1.4-2.2-1.8-3.7-1.8
			c-0.4-5.7-2.9-10.4-6.7-13.3c2.5-2.2,4.3-5.5,4.3-9.2c0-1.2-0.8-2-2-2c-1.2,0-2,0.8-2,2c0,2.9-1.6,5.7-4.1,7
			c-1.4-0.6-2.7-0.8-4.1-0.8c-1.4,0-2.7,0.2-4.1,0.8c-2.3-1.4-4.1-4.1-4.1-7c0-1.2-0.8-2-2-2c-1.2,0-2,0.8-2,2c0,3.7,1.6,7,4.3,9.2
			c-3.5,2.9-6.1,7.8-6.7,13.3c-1.6,0-2.9,0.6-3.7,1.8c-5.3-0.8-9.2-6.5-9.2-13.5c0-1.2-0.8-2-2-2c-1.2,0-2,0.8-2,2
			c0,8.6,5.1,15.9,11.9,17.4c0,0.8-0.2,1.6-0.2,2.5c0,0.8,0,1.6,0,2.3h-11c-1.2,0-2,0.8-2,2s0.8,2,2,2h11.6c0.4,1.6,0.8,3.3,1.4,4.7
			c-7.2,1-12.9,7-12.9,14.7c0,1.2,0.8,2,2,2c1.2,0,2-0.8,2-2c0-6.1,4.9-11,11-11l0,0c3.5,5.9,9.2,9.8,15.7,9.8
			c6.5,0,11.9-3.9,15.7-9.8l0,0c6.1,0,11,4.9,11,11c0,1.2,0.8,2,2,2c1.2,0,2-0.8,2-2c0-7.4-5.7-13.7-12.9-14.7
			c0.6-1.6,1.2-3.1,1.4-4.7h11.6c1.2,0,2-0.8,2-2S676.2,49.5,675.2,49.5z M658,52.8h-4.1c-0.6,4.1-3.7,7.2-7.8,7.8v4.1
			c0,0.8-0.6,1.4-1.4,1.4s-1.4-0.6-1.4-1.4v-4.1c-4.1-0.6-7.2-3.7-7.8-7.8h-4.1c-0.8,0-1.4-0.6-1.4-1.4s0.6-1.4,1.4-1.4h4.1
			c0.6-4.1,3.7-7.2,7.8-7.8v-4.1c0-0.8,0.6-1.4,1.4-1.4c0.8,0,1.4,0.6,1.4,1.4v4.1c4.1,0.6,7.2,3.7,7.8,7.8h4.1
			c0.8,0,1.4,0.6,1.4,1.4S658.8,52.8,658,52.8z"/>
		<g>
			<path fill="none" stroke="#000000" stroke-width="0.9286" stroke-miterlimit="10" d="M638.2,50.1h5.3v-5.3
				C640.8,45.4,638.6,47.6,638.2,50.1z"/>
			<path fill="none" stroke="#000000" stroke-width="0.9286" stroke-miterlimit="10" d="M646.1,57.9c2.5-0.6,4.7-2.5,5.3-5.3h-5.3
				V57.9z"/>
			<path fill="none" stroke="#000000" stroke-width="0.9286" stroke-miterlimit="10" d="M646.1,44.8v5.3h5.3
				C650.7,47.6,648.6,45.4,646.1,44.8z"/>
			<path fill="none" stroke="#000000" stroke-width="0.9286" stroke-miterlimit="10" d="M643.3,57.9v-5.3H638
				C638.6,55.4,640.8,57.5,643.3,57.9z"/>
		</g>
	</g>
</g>
<rect x="569.7" y="105" fill="none" width="150" height="60"/>
<text transform="matrix(0.8571 0 0 1 570.8216 115.6416)"><tspan x="0" y="0" font-family="'OpenSans-Light'" font-size="14">Быстро РЕШАЕМ ПРОБЛЕ</tspan><tspan x="167.8" y="0" font-family="'OpenSans-Light'" font-size="14">-</tspan><tspan x="14.8" y="16.8" font-family="'OpenSans-Light'" font-size="14">МЫ у вас в офисе или </tspan><tspan x="55.1" y="33.6" font-family="'OpenSans-Light'" font-size="14">удаленно</tspan></text>
<rect x="397.3" y="105" fill="none" width="150.7" height="60"/>
<text transform="matrix(1.0163 0 0 1 400.4634 115.64)"><tspan x="0" y="0" font-family="'OpenSans-Light'" font-size="14">Заключаем ДОГОВОР </tspan><tspan x="7.9" y="16.8" font-family="'OpenSans-Light'" font-size="14">на обслуживание и </tspan><tspan x="19.8" y="33.6" font-family="'OpenSans-Light'" font-size="14">ПРИСТУПАЕМ К </tspan></text>
<rect x="225" y="105" fill="none" width="150" height="60"/>
<text transform="matrix(1 0 0 1 249.2814 115.6399)"><tspan x="0" y="0" font-family="'OpenSans-Light'" font-size="14">Мы делаем экс</tspan><tspan x="96.9" y="0" font-family="'OpenSans-Light'" font-size="14">-</tspan><tspan x="-21.3" y="16.8" font-family="'OpenSans-Light'" font-size="14">пресс-аудит и рассчи</tspan><tspan x="118.3" y="16.8" font-family="'OpenSans-Light'" font-size="14">-</tspan><tspan x="-17.5" y="33.6" font-family="'OpenSans-Light'" font-size="14">тываем СТОИМОСТЬ </tspan></text>
<rect x="53.5" y="105" fill="none" width="150" height="60"/>
<text transform="matrix(1.0064 0 0 1 79.1337 115.6395)"><tspan x="0" y="0" font-family="'OpenSans-Light'" font-size="14">Вы заполняете </tspan><tspan x="-15.6" y="16.8" font-family="'OpenSans-Light'" font-size="14">ЗАЯВКУ на бесплат</tspan><tspan x="109.2" y="16.8" font-family="'OpenSans-Light'" font-size="14">-</tspan><tspan x="-15.5" y="33.6" font-family="'OpenSans-Light'" font-size="14">ный экспресс-аудит</tspan></text>
</svg>
