<?xml version="1.0" encoding="utf-8"?>
<!-- Generator: Adobe Illustrator 18.0.0, SVG Export Plug-In . SVG Version: 6.00 Build 0)  -->
<!DOCTYPE svg PUBLIC "-//W3C//DTD SVG 1.1//EN" "http://www.w3.org/Graphics/SVG/1.1/DTD/svg11.dtd">
<svg version="1.1" id="Слой_1" xmlns="http://www.w3.org/2000/svg" xmlns:xlink="http://www.w3.org/1999/xlink" x="0px" y="0px"
	 viewBox="0 0 512 512" enable-background="new 0 0 512 512" xml:space="preserve">
<g>
	<g>
		<circle fill="#0D0F0F" cx="252.5" cy="81.1" r="79.6"/>
		<path fill="#0D0F0F" d="M443,431.8c-3-24.4-20.9-33.7-51-38.3c-21.1,19.3-56.6,34.1-115.8,34.1c-8.2,0-16.1-2.1-23.2-6.1
			c-7.1,4-15,6.1-23.2,6.1c-58.6,0-94-14.5-115.2-33.6c-27.1,5.3-43.1,15.1-45.9,37.8c-1.8,14.6,2.8,29,12.9,40.5
			c28.4,32.3,106,37.6,149.8,37.9c0.1,0,0.2,0,0.3,0c9.3,0,17.7-3.5,24.2-9.2c6.4,5.7,14.9,9.2,24.2,9.2c0.1,0,0.2,0,0.3,0
			c43.8-0.3,121.4-5.7,149.8-37.9C440.2,460.8,444.7,446.4,443,431.8z"/>
		<path fill="#0D0F0F" d="M231.1,416.8c9.2,0,17.5-4.1,23.2-10.5c5.7,6.4,13.9,10.5,23.2,10.5c88.9,0,117.4-35,125.7-64.4
			c19.4-68.8-58.5-149.2-94.3-171.1c-2.4-1.5-5-2.5-7.5-3.2c-8.9-5.9-18.8-10.3-29-12.8l-19.8,20l-19.2-20.2c-0.1,0-0.1,0-0.2,0
			c-13.1,3.1-25.8,9.4-36.3,18c-36.9,24.3-110.3,102.3-91.4,169.2C113.7,381.8,142.3,416.8,231.1,416.8z M171,305.3v26.3
			c2.1,0.9,6.4,3.7,6.5,4c3.6,2.6,18,8.3,50.2,8.3c8.2,0,16.1,2.1,23.2,6.1c7.1-4,15-6.1,23.2-6.1c26.8,0,41.2-3.9,47.4-6.8
			c4.2-0.9,8.4-1.9,12.5-3.1v-35.9c8,14.7,12.2,28.4,9.7,37.3c-3.4,12-28.7,19.4-66.2,19.4c-9.2,0-17.5,4.1-23.2,10.5
			c-5.7-6.4-13.9-10.5-23.2-10.5c-37.5,0-62.8-7.4-66.2-19.4C162.8,328.1,165.4,317.3,171,305.3z"/>
	</g>
</g>
</svg>
