<?xml version="1.0" encoding="utf-8"?>
<!-- Generator: Adobe Illustrator 18.0.0, SVG Export Plug-In . SVG Version: 6.00 Build 0)  -->
<!DOCTYPE svg PUBLIC "-//W3C//DTD SVG 1.1//EN" "http://www.w3.org/Graphics/SVG/1.1/DTD/svg11.dtd">
<svg version="1.1" id="Capa_1" xmlns="http://www.w3.org/2000/svg" xmlns:xlink="http://www.w3.org/1999/xlink" x="0px" y="0px"
	 viewBox="0 0 612 792" enable-background="new 0 0 612 792" xml:space="preserve">
<g>
	<g>
		<path fill="#00C2FF" d="M611.5,392.7000122c-4.9000244-30.1000061-15.4000244-60.3999939-31.2000122-86.6000061
			c-6.0999756,21.5-22.7999878,38.6000061-44.0999756,45.2999878c3.0999756,6.7000122,5.9000244,13.6000061,8.2000122,20.7000122
			c-10.5,0.2000122-21.0999756,0.2000122-31.5-0.2000122c-16.6000061-23-51.3999939-35.5-79.7999878-13.3999939
			c-7.1000061-15.2999878-12.3999939-30.8999939-15.2000122-47.2999878
			c12.6000061,0.7999878,25.2000122,1.7000122,37.7000122,3.3999939
			c-3.6000061-8.2000122-5.7000122-17.2000122-5.7000122-26.7000122c0-12.1000061,3.2999878-23.5,9-33.3000031
			c-24.3999939-2.8999939-49.1000061-3.6999969-73.6000061-5.6999969C368.5000305,247.5,355.7000122,263.6999817,355.2000122,279
			C353.8000183,321.5,366,361.1000061,385.3000183,398.1000061c-19.2999878,15.5-37.2000122,29.3999939-57,45.5
			C303.2000122,418.5,274.1000061,396.8000183,245.1000214,377.2000122C230.0000153,367,212.3000183,373,199.4000244,383.1000061
			C160.0000305,414,120.6000214,444.8999939,81.3000259,475.7999878c-6,4.7000122-9.6999969,9.8999939-11.5999985,15.2999878
			c-11.0999985,0-22.2000008,0-33.2999992,0c-48.5999985,0-48.5999985,75.2999878,0,75.2999878
			c95.4000092,0,190.8000031,0,286.2000122,0c22.7999878,0,36.6000061-11.5,44.1000061-18
			c52.5-45.5,86.1999817-68.2999878,138.6999817-113.7999878c1.2000122-1.1000061,2.2999878-2.1000061,3.3999939-3.2000122
			c24.6000061,1.1000061,49.3000183,0.5,73.6000061-0.6000061C603.5,429.8999939,614.5999756,412.5,611.5,392.7000122z
			 M182.8999939,491.1000061c14.8000031-11.6000061,29.6999969-23.2999878,44.5-34.8999939
			c14.8999939,10.6000061,29.7999878,22.1000061,43.1000061,34.8999939
			C241.3000031,491.1000061,212.1000061,491.1000061,182.8999939,491.1000061z"/>
		<path fill="#00C2FF" d="M518,342.7999878c32.2999878,0,58.5999756-26.2999878,58.5999756-58.6000061
			S550.2999878,225.5999756,518,225.5999756s-58.6000061,26.3000031-58.6000061,58.6000061S485.7000122,342.7999878,518,342.7999878
			z"/>
	</g>
</g>
</svg>
