<?xml version="1.0" encoding="utf-8"?>
<!-- Generator: Adobe Illustrator 18.0.0, SVG Export Plug-In . SVG Version: 6.00 Build 0)  -->
<!DOCTYPE svg PUBLIC "-//W3C//DTD SVG 1.1//EN" "http://www.w3.org/Graphics/SVG/1.1/DTD/svg11.dtd">
<svg version="1.1" id="Capa_1" xmlns="http://www.w3.org/2000/svg" xmlns:xlink="http://www.w3.org/1999/xlink" x="0px" y="0px"
	 viewBox="0 0 512 512" enable-background="new 0 0 512 512" xml:space="preserve">
<g>
	<g>
		<path fill="#00C2FF" d="M282.3,320.4c55.8,0,101.1-45.3,101.1-101.1s-45.3-101.1-101.1-101.1s-101.1,45.3-101.1,101.1
			S226.6,320.4,282.3,320.4z"/>
		<g>
			<path fill="#00C2FF" d="M196.4,340.5c-38.9,0-70.5,31.6-70.5,70.5v78.7c0,7.5,6.1,13.6,13.6,13.6h285.7c7.5,0,13.6-6.1,13.6-13.6
				v-76.8c1.2-2,2.3-4.3,3.2-6.6l55.3-146.4c1.9-4.8,2.8-10.1,2.8-15.4V80.3c0-24-19.4-43.4-43.4-43.4c-24,0-43.4,19.4-43.4,43.4
				v156.4l-39.2,103.8H196.4z"/>
			<path fill="#00C2FF" d="M25.5,105.3h32c6.7,0,12.4-4.8,13.4-11.5c1.9-12,5.6-20.9,11.2-26.3c5.2-5,12.3-7.4,21.8-7.4
				c9.9,0,17.4,2.7,23.2,8.3c5.7,5.7,8.4,12.4,8.4,21.4c0,4.2-1,8.2-3,12c-1.1,1.9-5,7.8-20.4,20.7c-14.2,12-23.8,23.4-29.4,34.6
				c-5.7,11.5-8.5,28.1-8.5,50.7l0,0c0,7.5,6.1,13.6,13.6,13.6h28.9c7.5,0,13.6-6.1,13.6-13.6l0,0c0-17.5,2.1-24.6,3.4-27.4
				c1-2.2,5-8.6,21.2-21.9c14.9-12.4,25.1-23.8,30.8-34.6c5.9-11.2,8.9-23.4,8.9-36.2c0-23-8.7-42.3-26-57.3
				c-16.9-14.4-38.7-21.7-65-21.7c-25.1,0-46.2,7.5-62.9,22.1C23.8,45.7,14.2,65.9,12,90.6l0,0C11.3,98.4,17.5,105.3,25.5,105.3z"/>
			<path fill="#00C2FF" d="M116.4,298c7.5,0,13.6-6.1,13.6-13.6v-28.8c0-7.5-6.1-13.6-13.6-13.6H87.6c-7.5,0-13.6,6.1-13.6,13.6
				v28.8c0,7.5,6.1,13.6,13.6,13.6H116.4z"/>
		</g>
	</g>
</g>
</svg>
