<?xml version="1.0" encoding="utf-8"?>
<!-- Generator: Adobe Illustrator 18.0.0, SVG Export Plug-In . SVG Version: 6.00 Build 0)  -->
<!DOCTYPE svg PUBLIC "-//W3C//DTD SVG 1.1//EN" "http://www.w3.org/Graphics/SVG/1.1/DTD/svg11.dtd">
<svg version="1.1" id="Capa_1" xmlns="http://www.w3.org/2000/svg" xmlns:xlink="http://www.w3.org/1999/xlink" x="0px" y="0px"
	 viewBox="0 0 512 512" enable-background="new 0 0 512 512" xml:space="preserve">
<g>
	<g id="Layer_1_95_">
		<g>
			<path fill="#00CCFF" d="M302.8,302.8h-268v-256h268v98l22.9,5.4V43.6c6.5-4.4,12-12,12-20.7c0-12-10.9-22.9-24-22.9H22.9
				C10.9,0,0,10.9,0,22.9c0,8.7,4.4,16.3,12,20.7v271.3c0,6.5,5.4,12,12,12h71.9L53.4,482.6c-3.3,12,4.4,25.1,16.3,28.3
				c2.2,1.1,4.4,1.1,5.4,1.1c9.8,0,19.6-6.5,22.9-17.4l44.7-168.9h51.2l45.8,168.9c3.3,10.9,12,17.4,22.9,17.4c2.2,0,4.4,0,6.5-1.1
				c12-3.3,19.6-16.3,16.3-28.3L244,325.7h71.9c6.5,0,12-5.4,12-12V244l-25.1-4.4V302.8L302.8,302.8z"/>
			<path fill="#00CCFF" d="M400.9,168.9c22.9,0,41.4-18.5,41.4-41.4s-18.5-41.4-41.4-41.4s-41.4,18.5-41.4,41.4
				C360.6,150.3,379.1,168.9,400.9,168.9z"/>
			<path fill="#00CCFF" d="M510.9,306.1L468.4,195c-3.3-8.7-12-15.3-21.8-15.3h-22.9c-6.5,0-12,3.3-16.3,6.5l10.9,79.5L402,280
				l-16.3-14.2l10.9-79.5c-4.4-4.4-9.8-6.5-16.3-6.5h-20.7l-132.9-28.3c-13.1-2.2-25.1,5.4-27.2,17.4c-2.2,13.1,5.4,25.1,17.4,27.2
				L353,225.5c1.1,0,3.3,0,4.4,0v107.8l-8.7,152.5c-1.1,13.1,8.7,24,21.8,25.1h1.1c12,0,22.9-9.8,22.9-21.8l7.6-130.7l7.6,130.7
				c1.1,12,10.9,21.8,22.9,21.8h1.1c13.1-1.1,22.9-12,21.8-25.1l-8.7-152.5v-64.3l20.7,53.4c4.4,12,18.5,17.4,30.5,13.1
				C508.7,331.2,515.3,318.1,510.9,306.1z"/>
			<path fill="#00CCFF" d="M52.3,165.6v99.1c0,6.5,5.4,12,12,12s12-5.4,12-12v-99.1c0-6.5-5.4-12-12-12S52.3,159,52.3,165.6z"/>
			<path fill="#00CCFF" d="M104.6,83.9v180.8c0,6.5,5.4,12,12,12s12-5.4,12-12V83.9c0-6.5-5.4-12-12-12
				C110,73,104.6,78.4,104.6,83.9z"/>
			<path fill="#00CCFF" d="M156.9,130.7v134c0,6.5,5.4,12,12,12s12-5.4,12-12v-134c0-6.5-5.4-12-12-12
				C162.3,119.8,156.9,124.2,156.9,130.7z"/>
		</g>
	</g>
</g>
</svg>
