<?xml version="1.0" encoding="utf-8"?>
<!-- Generator: Adobe Illustrator 18.0.0, SVG Export Plug-In . SVG Version: 6.00 Build 0)  -->
<!DOCTYPE svg PUBLIC "-//W3C//DTD SVG 1.1//EN" "http://www.w3.org/Graphics/SVG/1.1/DTD/svg11.dtd">
<svg version="1.1" id="Capa_1" xmlns="http://www.w3.org/2000/svg" xmlns:xlink="http://www.w3.org/1999/xlink" x="0px" y="0px"
	 viewBox="0 0 512 512" enable-background="new 0 0 512 512" xml:space="preserve">
<g>
	<g>
		<g>
			<path fill="#00CCFF" d="M386.4,334.7l-73.7-29.4l-17.2-14.5c-4.6-3.9-11.3-3.5-15.5,0.6l-24,23.9L232,291.3
				c-4.3-4.2-10.9-4.5-15.5-0.6l-17.2,14.5l-73.7,29.4c-23.7,9.4-23.7,93.5-25.8,101.2h312.4C410.2,428.1,410.2,344.2,386.4,334.7z"
				/>
			<path fill="#00CCFF" d="M171.7,215.1h13.8c8.6,44.6,38.8,70.1,70.5,70.1s50.1-15.1,62.2-42.8c-9.3,7.3-22.9,14-41.8,15.4
				c-1.7,2.6-4.7,4.3-8,4.3h-8.9c-5.3,0-9.7-4.4-9.7-9.7c0-5.3,4.4-9.7,9.7-9.7h8.9c3.1,0,5.9,1.5,7.7,3.9
				c30.5-2.5,44.7-20.9,50.5-31.3h13.8c8.4,0,15.3-6.8,15.3-15.3v-34.7c0-5.5-2.8-10.2-7.1-12.9c-5.1-42.7-44.7-76-92.6-76
				s-87.5,33.4-92.6,76c-4.3,2.7-7.1,7.5-7.1,12.9v34.7C156.4,208.2,163.2,215.1,171.7,215.1z M255.9,93.5
				c37.8,0,69.1,24.8,74.9,57.3c-1.8,0.6-3.4,1.7-4.8,3c-9-28.6-35.1-45.5-69.9-45.5s-61,16.9-70.1,45.5c-1.4-1.3-3-2.2-4.8-3
				C187,118.3,218.3,93.5,255.9,93.5z"/>
			<path fill="#00CCFF" d="M495.4,344.7l-47.5-18.9l-11.1-9.3c-2.9-2.5-7.3-2.2-9.9,0.4l-15.4,15.4L396,316.9
				c-2.7-2.7-7.1-2.9-9.9-0.4l-5.2,4.5l9.7,3.9c21,8.3,27.2,46.5,30.4,85h91.2C510.7,404.9,510.6,350.8,495.4,344.7z"/>
			<path fill="#00CCFF" d="M347.2,235.5v22.4c0,5.5,4.4,9.8,9.8,9.8h8.9c5.5,28.8,25,45.1,45.5,45.1c20.4,0,32.2-9.7,40.1-27.6
				c-6,4.7-14.8,9-26.8,9.8c-1.1,1.7-3,2.8-5.1,2.8h-5.7c-3.4,0-6.2-2.8-6.2-6.2s2.8-6.2,6.2-6.2h5.7c2,0,3.9,1,4.9,2.5
				c19.6-1.6,28.8-13.5,32.5-20.2h8.9c5.5,0,9.8-4.4,9.8-9.8v-22.4c0-3.5-1.8-6.5-4.6-8.3c-3.3-27.5-28.8-49-59.6-49
				s-56.4,21.5-59.6,49C349,228.9,347.2,232,347.2,235.5z M411.4,189.3c24.3,0,44.5,16,48.2,36.9c-1.2,0.4-2.2,1.1-3.1,1.9
				c-5.8-18.4-22.6-29.3-45-29.3c-22.5,0-39.3,10.9-45.1,29.3c-0.9-0.9-1.9-1.5-3.1-1.9C367,205.4,387.1,189.3,411.4,189.3z"/>
			<path fill="#00CCFF" d="M121.6,324.7l9.7-3.9l-5.2-4.5c-2.9-2.5-7.3-2.2-9.9,0.4l-15.6,15.4L85,316.8c-2.7-2.7-7.1-2.9-9.9-0.4
				L64,325.7l-47.5,18.9C1.3,350.8,1.3,404.8,0,409.9h91.2C94.4,371.4,100.6,333.1,121.6,324.7z"/>
			<path fill="#00CCFF" d="M46.3,267.7h8.9c5.5,28.8,25,45.1,45.5,45.1s32.2-9.7,40.1-27.6c-6,4.7-14.8,9-26.8,9.9
				c-1.1,1.7-3,2.8-5.1,2.8h-5.7c-3.4,0-6.2-2.8-6.2-6.2c0-3.4,2.8-6.2,6.2-6.2h5.7c2,0,3.9,1,4.9,2.5c19.6-1.6,28.8-13.5,32.5-20.2
				h8.9c5.5,0,9.8-4.4,9.8-9.8v-22.4c0-3.5-1.8-6.5-4.6-8.3c-3.3-27.5-28.8-49-59.6-49s-56.4,21.5-59.6,49c-2.8,1.7-4.6,4.8-4.6,8.3
				V258C36.4,263.2,40.9,267.7,46.3,267.7z M100.5,189.3c24.3,0,44.5,16,48.2,36.9c-1.2,0.4-2.2,1.1-3.1,1.9
				c-5.9-18.3-22.7-29.2-45.1-29.2s-39.3,10.9-45.1,29.3c-0.9-0.9-1.9-1.5-3.1-1.9C56.2,205.4,76.3,189.3,100.5,189.3z"/>
		</g>
	</g>
</g>
</svg>
