<?xml version="1.0" encoding="utf-8"?>
<!-- Generator: Adobe Illustrator 18.0.0, SVG Export Plug-In . SVG Version: 6.00 Build 0)  -->
<!DOCTYPE svg PUBLIC "-//W3C//DTD SVG 1.1//EN" "http://www.w3.org/Graphics/SVG/1.1/DTD/svg11.dtd">
<svg version="1.1" id="Capa_1" xmlns="http://www.w3.org/2000/svg" xmlns:xlink="http://www.w3.org/1999/xlink" x="0px" y="0px"
	 viewBox="0 0 512 512" enable-background="new 0 0 512 512" xml:space="preserve">
<g>
	<g>
		<path fill="#00C2FF" d="M502.9,253.3c-4-24.3-12.4-48.8-25.2-70c-4.9,17.4-18.4,31.2-35.6,36.6c2.5,5.4,4.8,11,6.6,16.7
			c-8.5,0.2-17.1,0.2-25.5-0.2c-13.4-18.6-41.5-28.7-64.5-10.8c-5.7-12.4-10-25-12.3-38.2c10.2,0.6,20.4,1.4,30.5,2.7
			c-2.9-6.6-4.6-13.9-4.6-21.6c0-9.8,2.7-19,7.3-26.9c-19.7-2.3-39.7-3-59.5-4.6c-13.6-1.1-23.9,12-24.3,24.3
			c-1.1,34.3,8.7,66.3,24.3,96.2c-15.6,12.5-30.1,23.8-46.1,36.8c-20.3-20.3-43.8-37.8-67.2-53.7c-12.2-8.2-26.5-3.4-36.9,4.8
			c-31.8,25-63.7,49.9-95.4,74.9c-4.8,3.8-7.8,8-9.4,12.4c-9,0-17.9,0-26.9,0c-39.3,0-39.3,60.8,0,60.8c77.1,0,154.2,0,231.3,0
			c18.4,0,29.6-9.3,35.6-14.5c42.4-36.8,69.7-55.2,112.1-92c1-0.9,1.9-1.7,2.7-2.6c19.9,0.9,39.8,0.4,59.5-0.5
			C496.4,283.4,505.4,269.3,502.9,253.3z M156.5,332.8c12-9.4,24-18.8,36-28.2c12,8.6,24.1,17.9,34.8,28.2
			C203.7,332.8,180.1,332.8,156.5,332.8z"/>
		<path fill="#00C2FF" d="M427.3,213c26.1,0,47.4-21.3,47.4-47.4s-21.3-47.4-47.4-47.4c-26.1,0-47.4,21.3-47.4,47.4
			S401.2,213,427.3,213z"/>
	</g>
</g>
</svg>
