<?xml version="1.0" encoding="utf-8"?>
<!-- Generator: Adobe Illustrator 18.0.0, SVG Export Plug-In . SVG Version: 6.00 Build 0)  -->
<!DOCTYPE svg PUBLIC "-//W3C//DTD SVG 1.1//EN" "http://www.w3.org/Graphics/SVG/1.1/DTD/svg11.dtd">
<svg version="1.1" id="Man" xmlns="http://www.w3.org/2000/svg" xmlns:xlink="http://www.w3.org/1999/xlink" x="0px" y="0px"
	 viewBox="0 0 512 512" enable-background="new 0 0 512 512" xml:space="preserve">
<g>
	<g>
		<path fill="#00C2FF" d="M378.8,286.8c-15.5-24.8-54.6-42-106-45.6c-2.5,0-4.5,0.4-6.1,2.1c-1.2,1.2-2.5,2.5-3.7,4.1
			c-2.5,2.8-4.9,5.3-6.9,6.1l0,0c-2.5-0.8-4.9-3.7-7.3-6.5c-1.2-1.6-2.5-2.8-3.7-4.1c-1.6-1.6-4.1-2.5-6.1-2.1
			c-50.9,3.7-90.4,20.8-106,46c-2.5,4.1-58.2,105.1-12.2,163.8c1.6,2.1,4.1,3.2,6.5,3.2h257.5c2.5,0,4.9-1.2,6.5-3.2
			C437.9,391.5,379.7,288,378.8,286.8z M270.9,391.9c0,0.8-0.4,2.1-0.8,2.8l-9,16.7c-1.2,2.1-3.2,3.2-5.3,3.2s-4.5-1.2-5.3-3.2
			l-9-16.7c-0.4-0.8-0.8-1.6-0.8-2.8l-3.2-118.6c0-2.1,0.8-4.1,2.5-5.3l12.2-9c2.1-1.6,4.9-1.6,7.3,0l12.2,9
			c1.6,1.2,2.5,3.2,2.5,5.3L270.9,391.9z"/>
		<path fill="#00C2FF" d="M254.6,230.9c47.6,0,86.4-38.7,86.4-86.4s-38.7-86.4-86.4-86.4s-86.4,38.7-86.4,86.4
			S206.9,230.9,254.6,230.9z"/>
	</g>
</g>
</svg>
