<svg version="1.1" xmlns="http://www.w3.org/2000/svg" xmlns:xlink="http://www.w3.org/1999/xlink" x="0px" y="0px" viewBox="0 0 512 512">
	 <defs>
        <g id="man">
            <path d="M378.8,286.8c-15.5-24.8-54.6-42-106-45.6c-2.5,0-4.5,0.4-6.1,2.1c-1.2,1.2-2.5,2.5-3.7,4.1
                c-2.5,2.8-4.9,5.3-6.9,6.1l0,0c-2.5-0.8-4.9-3.7-7.3-6.5c-1.2-1.6-2.5-2.8-3.7-4.1c-1.6-1.6-4.1-2.5-6.1-2.1
                c-50.9,3.7-90.4,20.8-106,46c-2.5,4.1-58.2,105.1-12.2,163.8c1.6,2.1,4.1,3.2,6.5,3.2h257.5c2.5,0,4.9-1.2,6.5-3.2
                C437.9,391.5,379.7,288,378.8,286.8z M270.9,391.9c0,0.8-0.4,2.1-0.8,2.8l-9,16.7c-1.2,2.1-3.2,3.2-5.3,3.2s-4.5-1.2-5.3-3.2
                l-9-16.7c-0.4-0.8-0.8-1.6-0.8-2.8l-3.2-118.6c0-2.1,0.8-4.1,2.5-5.3l12.2-9c2.1-1.6,4.9-1.6,7.3,0l12.2,9
                c1.6,1.2,2.5,3.2,2.5,5.3L270.9,391.9z"/>
            <path d="M254.6,230.9c47.6,0,86.4-38.7,86.4-86.4s-38.7-86.4-86.4-86.4s-86.4,38.7-86.4,86.4
                S206.9,230.9,254.6,230.9z"/>
        </g>

         <g id="ask">
      		 <path d="M282.3,320.4c55.8,0,101.1-45.3,101.1-101.1s-45.3-101.1-101.1-101.1s-101.1,45.3-101.1,101.1
      			S226.6,320.4,282.3,320.4z"/>
      		 <g>
      			<path d="M196.4,340.5c-38.9,0-70.5,31.6-70.5,70.5v78.7c0,7.5,6.1,13.6,13.6,13.6h285.7c7.5,0,13.6-6.1,13.6-13.6
      				v-76.8c1.2-2,2.3-4.3,3.2-6.6l55.3-146.4c1.9-4.8,2.8-10.1,2.8-15.4V80.3c0-24-19.4-43.4-43.4-43.4c-24,0-43.4,19.4-43.4,43.4
      				v156.4l-39.2,103.8H196.4z"/>
      			<path  d="M25.5,105.3h32c6.7,0,12.4-4.8,13.4-11.5c1.9-12,5.6-20.9,11.2-26.3c5.2-5,12.3-7.4,21.8-7.4
      				c9.9,0,17.4,2.7,23.2,8.3c5.7,5.7,8.4,12.4,8.4,21.4c0,4.2-1,8.2-3,12c-1.1,1.9-5,7.8-20.4,20.7c-14.2,12-23.8,23.4-29.4,34.6
      				c-5.7,11.5-8.5,28.1-8.5,50.7l0,0c0,7.5,6.1,13.6,13.6,13.6h28.9c7.5,0,13.6-6.1,13.6-13.6l0,0c0-17.5,2.1-24.6,3.4-27.4
      				c1-2.2,5-8.6,21.2-21.9c14.9-12.4,25.1-23.8,30.8-34.6c5.9-11.2,8.9-23.4,8.9-36.2c0-23-8.7-42.3-26-57.3
      				c-16.9-14.4-38.7-21.7-65-21.7c-25.1,0-46.2,7.5-62.9,22.1C23.8,45.7,14.2,65.9,12,90.6l0,0C11.3,98.4,17.5,105.3,25.5,105.3z"/>
      		 	<path  d="M116.4,298c7.5,0,13.6-6.1,13.6-13.6v-28.8c0-7.5-6.1-13.6-13.6-13.6H87.6c-7.5,0-13.6,6.1-13.6,13.6
      		 		v28.8c0,7.5,6.1,13.6,13.6,13.6H116.4z"/>
      		 </g>
      	 </g>



        <g id="leisure">
            <path d="M502.9,253.3c-4-24.3-12.4-48.8-25.2-70c-4.9,17.4-18.4,31.2-35.6,36.6c2.5,5.4,4.8,11,6.6,16.7
                c-8.5,0.2-17.1,0.2-25.5-0.2c-13.4-18.6-41.5-28.7-64.5-10.8c-5.7-12.4-10-25-12.3-38.2c10.2,0.6,20.4,1.4,30.5,2.7
                c-2.9-6.6-4.6-13.9-4.6-21.6c0-9.8,2.7-19,7.3-26.9c-19.7-2.3-39.7-3-59.5-4.6c-13.6-1.1-23.9,12-24.3,24.3
                c-1.1,34.3,8.7,66.3,24.3,96.2c-15.6,12.5-30.1,23.8-46.1,36.8c-20.3-20.3-43.8-37.8-67.2-53.7c-12.2-8.2-26.5-3.4-36.9,4.8
                c-31.8,25-63.7,49.9-95.4,74.9c-4.8,3.8-7.8,8-9.4,12.4c-9,0-17.9,0-26.9,0c-39.3,0-39.3,60.8,0,60.8c77.1,0,154.2,0,231.3,0
                c18.4,0,29.6-9.3,35.6-14.5c42.4-36.8,69.7-55.2,112.1-92c1-0.9,1.9-1.7,2.7-2.6c19.9,0.9,39.8,0.4,59.5-0.5
                C496.4,283.4,505.4,269.3,502.9,253.3z M156.5,332.8c12-9.4,24-18.8,36-28.2c12,8.6,24.1,17.9,34.8,28.2
                C203.7,332.8,180.1,332.8,156.5,332.8z"/>
            <path  d="M427.3,213c26.1,0,47.4-21.3,47.4-47.4s-21.3-47.4-47.4-47.4c-26.1,0-47.4,21.3-47.4,47.4
                S401.2,213,427.3,213z"/>
        </g>

        <g id="man337">
            <circle cx="367.8" cy="78.1" r="57.7"/>
            <path d="M249.5,381.2v-14.8c0-11.9,5.9-22.2,14.8-29.6v-48.8h-53.2c-20.7,0-37-16.3-37-37c0-2.9,1.5-5.9,1.5-8.8
                v-13.3h5.9c7.4-10.3,17.8-14.8,29.6-14.8h48.8c0-2.9,1.5-2.9,1.5-5.9V79.5c0-10.3-10.3-20.7-20.7-20.7H77.9
                c-10.3,0-19.2,8.8-19.2,20.7v131.6c0,10.3,8.8,20.7,19.2,20.7h66.6v17.8h-22.2c-10.3,0-17.8,7.4-17.8,19.2h-77
                c-5.9-1.6-8.8,1.4-8.8,5.8v20.7c0,4.4,2.9,7.4,8.8,7.4h25.1v186.3h216v-84.2C268.7,406.4,249.5,403.4,249.5,381.2z M106,200.8
                c-10.3,0-20.7-7.4-20.7-19.2v-73.9c0-10.3,10.3-19.2,20.7-19.2h106.5c10.3,0,20.7,8.8,20.7,19.2v73.9c0,10.3-8.8,19.2-20.7,19.2
                H106z"/>
            <path d="M406.2,144.6h-76.9c-45.8,0-48.8,47.3-48.8,47.3s-5.9,31-11.9,35.5c-1.5,1.5-2.9,1.5-5.9,1.5h-51.7
                c-11.9,0-22.2,10.3-22.2,22.2c0,11.9,10.3,22.2,22.2,22.2h51.7c7.4,0,14.8,0,16.3,0V328h29.6V208.2c0-23.7,16.3-51.7,40-51.7h90.2
                C429.9,147.6,418.1,144.6,406.2,144.6z"/>
            <path d="M462.5,390.1c16.3,0,29.6-13.3,29.6-29.6V208.2c0-17.8-16.3-34.1-34.1-34.1H354.5
                c-17.8,0-32.5,16.3-32.5,34.1v136.1h-32.5c-13.3,0-23.7,10.3-23.7,22.2v7.4c0,8.8,7.4,16.3,16.3,16.3h71v19.2h-11.9
                c0,0-28.1,0-28.1,26.6v37c0,8.8,5.9,14.8,14.8,14.8c8.9,0,14.8-7.4,14.8-14.8v-34.1h51.7v34.1c0,8.8,7.4,14.8,16.3,14.8
                c8.8,0,16.3-7.4,16.3-14.8v-37c0-28.1-29.6-26.6-29.6-26.6h-11.9v-19.2H462.5L462.5,390.1z"/>
        </g>

        <g id="office">
            <path d="M239.1,174.9c-3.2,25.7,14.4,48.2,40.1,51.4c25.7,3.2,48.2-14.4,51.4-40.1c3.2-25.7-14.4-48.2-40.1-51.4
                C264.8,131.6,242.4,149.3,239.1,174.9z"/>
            <path d="M231.1,341.9c0-33.7-25.7-49.8-43.3-51.4h-3.2c-9.6,0-20.9,0-32.1,0c9.6-12.8,28.9-36.9,30.5-38.5
                c3.2,6.4,8,11.2,14.4,16.1c14.4,12.8,30.5,19.3,51.4,22.5c11.2,1.6,48.2-1.6,56.2-3.2c9.6-1.6,16.1-6.4,19.3-11.2
                c4.8-9.6,4.8-19.3,4.8-19.3c0-17.7-17.7-24.1-32.1-20.9c-20.9,4.8-49.8,8-64.2-6.4c-6.4-6.4-9.6-14.4-11.2-20.9
                c6.4-12.8,4.8-28.9-3.2-41.7c-12.8-22.5-40.1-24.1-61-14.4c-20.9,11.2-75.4,73.8-89.9,120.4l0,0v1.6c-1.6,4.8-1.6,9.6-3.2,14.4
                c-1.6,9.6-1.6,17.7-1.6,25.7l0,0c0,12.8,9.6,24.1,24.1,24.1c8,0,73.8,0,94.7,0v1.6c0,19.3,0,88.3,0,120.4c0,9.6,8,16.1,16.1,16.1
                h16.1c4.8,0,8-1.6,11.2-4.8c3.2-3.2,4.8-8,4.8-11.2C231.1,430.1,231.1,361.1,231.1,341.9z"/>
            <path d="M49.8,131.6c0-14.4-11.2-24.1-24.1-24.1S0,118.8,0,131.6v247.2c0,12.8,9.6,24.1,22.5,24.1l0,0h9.6v57.8
                c0,9.6,6.4,16.1,16.1,16.1s16.1-8,16.1-16.1v-57.8h53v57.8c0,9.6,6.4,16.1,16.1,16.1s16.1-8,16.1-16.1v-57.8h16.1v-49.8H49.8
                V131.6L49.8,131.6z"/>
            <path d="M495.9,296.9c-3.2-19.3-16.1-35.3-33.7-44.9v-16.1h24.1V126.8l-89.9-32.1V78.6h-32.1V244h32.1v-9.6h17.7
                v11.2c-22.5,6.4-40.1,25.7-43.3,49.8H266.4c-9.6,0-16.1,8-16.1,17.7c0,9.6,8,17.7,16.1,17.7h33.7v149.3h183V330.6h16.1
                c9.6,0,16.1-8,16.1-17.7C512,305,505.6,296.9,495.9,296.9z"/>
            <polygon points="154.1,96.3 117.2,96.3 117.2,96.3 154.1,43.3 154.1,33.7 96.3,33.7 96.3,46.5 130,46.5 130,48.2
                93.1,101.1 93.1,112.4 154.1,112.4"/>
            <polygon points="213.5,97.9 189.4,97.9 189.4,97.9 213.5,64.2 213.5,56.2 176.6,56.2 176.6,65.8 197.4,65.8
                197.4,67.4 173.3,101.1 173.3,107.5 213.5,107.5"/>
            <polygon points="255.2,110.7 239.1,110.7 239.1,110.7 255.2,86.7 255.2,81.9 231.1,81.9 231.1,88.3 245.6,88.3
                245.6,88.3 227.9,112.4 227.9,117.2 255.2,117.2"/>
        </g>

        <g id="group">
            <path d="M386.4,334.7l-73.7-29.4l-17.2-14.5c-4.6-3.9-11.3-3.5-15.5,0.6l-24,23.9L232,291.3
                c-4.3-4.2-10.9-4.5-15.5-0.6l-17.2,14.5l-73.7,29.4c-23.7,9.4-23.7,93.5-25.8,101.2h312.4C410.2,428.1,410.2,344.2,386.4,334.7z"
                />
            <path d="M171.7,215.1h13.8c8.6,44.6,38.8,70.1,70.5,70.1s50.1-15.1,62.2-42.8c-9.3,7.3-22.9,14-41.8,15.4
                c-1.7,2.6-4.7,4.3-8,4.3h-8.9c-5.3,0-9.7-4.4-9.7-9.7c0-5.3,4.4-9.7,9.7-9.7h8.9c3.1,0,5.9,1.5,7.7,3.9
                c30.5-2.5,44.7-20.9,50.5-31.3h13.8c8.4,0,15.3-6.8,15.3-15.3v-34.7c0-5.5-2.8-10.2-7.1-12.9c-5.1-42.7-44.7-76-92.6-76
                s-87.5,33.4-92.6,76c-4.3,2.7-7.1,7.5-7.1,12.9v34.7C156.4,208.2,163.2,215.1,171.7,215.1z M255.9,93.5
                c37.8,0,69.1,24.8,74.9,57.3c-1.8,0.6-3.4,1.7-4.8,3c-9-28.6-35.1-45.5-69.9-45.5s-61,16.9-70.1,45.5c-1.4-1.3-3-2.2-4.8-3
                C187,118.3,218.3,93.5,255.9,93.5z"/>
            <path d="M495.4,344.7l-47.5-18.9l-11.1-9.3c-2.9-2.5-7.3-2.2-9.9,0.4l-15.4,15.4L396,316.9
                c-2.7-2.7-7.1-2.9-9.9-0.4l-5.2,4.5l9.7,3.9c21,8.3,27.2,46.5,30.4,85h91.2C510.7,404.9,510.6,350.8,495.4,344.7z"/>
            <path d="M347.2,235.5v22.4c0,5.5,4.4,9.8,9.8,9.8h8.9c5.5,28.8,25,45.1,45.5,45.1c20.4,0,32.2-9.7,40.1-27.6
                c-6,4.7-14.8,9-26.8,9.8c-1.1,1.7-3,2.8-5.1,2.8h-5.7c-3.4,0-6.2-2.8-6.2-6.2s2.8-6.2,6.2-6.2h5.7c2,0,3.9,1,4.9,2.5
                c19.6-1.6,28.8-13.5,32.5-20.2h8.9c5.5,0,9.8-4.4,9.8-9.8v-22.4c0-3.5-1.8-6.5-4.6-8.3c-3.3-27.5-28.8-49-59.6-49
                s-56.4,21.5-59.6,49C349,228.9,347.2,232,347.2,235.5z M411.4,189.3c24.3,0,44.5,16,48.2,36.9c-1.2,0.4-2.2,1.1-3.1,1.9
                c-5.8-18.4-22.6-29.3-45-29.3c-22.5,0-39.3,10.9-45.1,29.3c-0.9-0.9-1.9-1.5-3.1-1.9C367,205.4,387.1,189.3,411.4,189.3z"/>
            <path d="M121.6,324.7l9.7-3.9l-5.2-4.5c-2.9-2.5-7.3-2.2-9.9,0.4l-15.6,15.4L85,316.8c-2.7-2.7-7.1-2.9-9.9-0.4
                L64,325.7l-47.5,18.9C1.3,350.8,1.3,404.8,0,409.9h91.2C94.4,371.4,100.6,333.1,121.6,324.7z"/>
            <path d="M46.3,267.7h8.9c5.5,28.8,25,45.1,45.5,45.1s32.2-9.7,40.1-27.6c-6,4.7-14.8,9-26.8,9.9
                c-1.1,1.7-3,2.8-5.1,2.8h-5.7c-3.4,0-6.2-2.8-6.2-6.2c0-3.4,2.8-6.2,6.2-6.2h5.7c2,0,3.9,1,4.9,2.5c19.6-1.6,28.8-13.5,32.5-20.2
                h8.9c5.5,0,9.8-4.4,9.8-9.8v-22.4c0-3.5-1.8-6.5-4.6-8.3c-3.3-27.5-28.8-49-59.6-49s-56.4,21.5-59.6,49c-2.8,1.7-4.6,4.8-4.6,8.3
                V258C36.4,263.2,40.9,267.7,46.3,267.7z M100.5,189.3c24.3,0,44.5,16,48.2,36.9c-1.2,0.4-2.2,1.1-3.1,1.9
                c-5.9-18.3-22.7-29.2-45.1-29.2s-39.3,10.9-45.1,29.3c-0.9-0.9-1.9-1.5-3.1-1.9C56.2,205.4,76.3,189.3,100.5,189.3z"/>
        </g>

        <g id="businessman">
            <path d="M302.8,302.8h-268v-256h268v98l22.9,5.4V43.6c6.5-4.4,12-12,12-20.7c0-12-10.9-22.9-24-22.9H22.9
                C10.9,0,0,10.9,0,22.9c0,8.7,4.4,16.3,12,20.7v271.3c0,6.5,5.4,12,12,12h71.9L53.4,482.6c-3.3,12,4.4,25.1,16.3,28.3
                c2.2,1.1,4.4,1.1,5.4,1.1c9.8,0,19.6-6.5,22.9-17.4l44.7-168.9h51.2l45.8,168.9c3.3,10.9,12,17.4,22.9,17.4c2.2,0,4.4,0,6.5-1.1
                c12-3.3,19.6-16.3,16.3-28.3L244,325.7h71.9c6.5,0,12-5.4,12-12V244l-25.1-4.4V302.8L302.8,302.8z"/>
            <path d="M400.9,168.9c22.9,0,41.4-18.5,41.4-41.4s-18.5-41.4-41.4-41.4s-41.4,18.5-41.4,41.4
                C360.6,150.3,379.1,168.9,400.9,168.9z"/>
            <path d="M510.9,306.1L468.4,195c-3.3-8.7-12-15.3-21.8-15.3h-22.9c-6.5,0-12,3.3-16.3,6.5l10.9,79.5L402,280
                l-16.3-14.2l10.9-79.5c-4.4-4.4-9.8-6.5-16.3-6.5h-20.7l-132.9-28.3c-13.1-2.2-25.1,5.4-27.2,17.4c-2.2,13.1,5.4,25.1,17.4,27.2
                L353,225.5c1.1,0,3.3,0,4.4,0v107.8l-8.7,152.5c-1.1,13.1,8.7,24,21.8,25.1h1.1c12,0,22.9-9.8,22.9-21.8l7.6-130.7l7.6,130.7
                c1.1,12,10.9,21.8,22.9,21.8h1.1c13.1-1.1,22.9-12,21.8-25.1l-8.7-152.5v-64.3l20.7,53.4c4.4,12,18.5,17.4,30.5,13.1
                C508.7,331.2,515.3,318.1,510.9,306.1z"/>
            <path d="M52.3,165.6v99.1c0,6.5,5.4,12,12,12s12-5.4,12-12v-99.1c0-6.5-5.4-12-12-12S52.3,159,52.3,165.6z"/>
            <path d="M104.6,83.9v180.8c0,6.5,5.4,12,12,12s12-5.4,12-12V83.9c0-6.5-5.4-12-12-12
                C110,73,104.6,78.4,104.6,83.9z"/>
            <path d="M156.9,130.7v134c0,6.5,5.4,12,12,12s12-5.4,12-12v-134c0-6.5-5.4-12-12-12
                C162.3,119.8,156.9,124.2,156.9,130.7z"/>
        </g>

        <path id="five" d="M502.4,228.2c18.7-18.3,8.4-50.1-17.5-53.8l-122.2-17.8c-10.3-1.5-19.2-8-23.8-17.3L284.3,28.6c-11.6-23.5-45-23.5-56.6,0
        	L173,139.3c-4.6,9.3-13.5,15.8-23.8,17.3L27.1,174.3c-25.9,3.8-36.2,35.6-17.5,53.8L98,314.4c7.4,7.2,10.8,17.7,9.1,27.9L86.2,464
        	c-4.4,25.8,22.6,45.5,45.8,33.3l109.3-57.5c9.2-4.8,20.2-4.8,29.4,0L380,497.3c23.2,12.2,50.2-7.5,45.8-33.3l-20.9-121.7
        	c-1.8-10.2,1.6-20.7,9.1-27.9L502.4,228.2z M335.5,317.7c0,45.9-33.2,75.1-81,75.1c-30.1,0-50.9-8.1-68.3-20.5
        	c-5.6-4-9.6-10.2-9.6-18.3c0-12.4,10.2-23,22.6-23c5.6,0,9.3,1.6,13,4.3c13.3,9.6,26.1,14,41.3,14c20.2,0,35.1-10.9,35.1-30.1v-0.6
        	c0-18.6-15.8-29.5-38.5-29.5c-18.3,0-26.4,5.6-32.9,5.6c-6.8,0-12.1-2.8-21.7-9.6c-6.5-4.7-9.3-11.2-8.7-19.2l4.3-73.6
        	c0.6-11.5,9.6-20.5,21.1-20.5h94.3c11.5,0,21.1,9.6,21.1,21.1c0,11.5-9.6,20.8-21.1,20.8h-73.2l-2.5,37.6c8.7-2.2,16.5-3.7,28.6-3.7
        	c42.8,0,76,20.5,76,69.5L335.5,317.7L335.5,317.7z"/>

        <path id="clock" d="M510.2,255.8c0,140.2-114.1,254.4-254.3,254.4C115.6,510.2,1.5,396.1,1.5,255.8S115.6,1.5,255.9,1.5
                c51.3,0,101.2,15.7,143.2,44.3l39.1-39.1l31.4,120.6L349,95.9l27.3-27.4c-35.7-23-77.5-35.6-120.5-35.6
                c-122.9,0-222.9,100-222.9,222.9c0,122.9,100,223,222.9,223c122.9,0,222.9-100,222.9-223L510.2,255.8L510.2,255.8z M192.6,258.2
                c-21.4,15.1-36,28.1-43.8,39c-7.8,10.9-11.7,24.1-11.7,39.5v0h114.5v-29.1h-73.5l0.1-0.2c5.6-7.7,15.9-16.4,31-26
                c16.3-10.5,27.5-19.9,33.5-28.2c5.9-8.4,8.9-19,8.9-31.7c0-15.6-5.2-28.2-15.6-38c-10.6-9.8-24-14.7-40.6-14.7
                c-17.7,0-31.7,5.3-41.7,16c-10.1,10.7-14.9,25.1-14.3,43.4h32.4c-0.3-9.8,1.7-17.5,5.9-23.2c4.2-5.7,10.1-8.5,17.6-8.5
                c7,0,12.7,2.3,17,6.8c4.3,4.5,6.4,10.5,6.4,18c0,6.9-2,13-5.9,18.6C209,245.3,202.2,251.5,192.6,258.2z M328,336.8v-37h-66.5v-14.3
                v-14.3l62.1-102.4h18.5h18.4v104.8h18.9v26.2h-18.9v37L328,336.8L328,336.8z M328,273.5v-70l-40.7,67.7l-1.4,2.3L328,273.5
                L328,273.5z M266.1,58.7h-15.7v31.5h15.7V58.7z M266.1,415.3h-15.7v31.5h15.7V415.3z M452.3,260.6v-15.7h-31.5v15.7H452.3z
                 M95.7,260.6v-15.7H64.2v15.7H95.7z"/>

        <g id="prof">
            <path d="M331.5,278.8c4.7-7.5,28.4-45.8,31.6-69.4c0.4-2.9,0-5.8-1-8.5c-3.3-8.5-27.7-57.8-56.7-71.8
                c0,0-22.6-10.5-22.6-10.5l-9.8-8.3l-15.2,15.1l14.9,99.6c0,0.3,0,0.7-0.2,0.9l-15.2,20.8c-0.2,0.3-0.6,0.5-1,0.5
                c-0.4,0-0.8-0.2-1-0.5L240,226c-0.2-0.3-0.3-0.6-0.2-0.9l14.9-99.6l-15.2-15.1l-9.8,8.3c0,0-22.4,10.3-23,10.5
                c-29,13.9-53.4,63.3-56.7,71.8c-1,2.7-1.4,5.6-1,8.5c3.2,23.5,26.9,61.9,31.6,69.4c3.3,5.2,8.9,8,14.6,8c3,0,6-0.8,8.8-2.4
                c1.4,3.9,3.4,7.5,5.8,10.9l0,192.8c0,11.6,9.4,20.9,20.9,20.9c11.6,0,20.9-9.4,20.9-20.9l0.2-169.9c1.5,0.1,2.9,0.2,4.4,0.2
                c1.4,0,2.8-0.1,4.2-0.2l0,169.9c0,11.6,9.4,20.9,20.9,20.9c11.6,0,20.9-9.4,20.9-20.9l0-192.2c2.6-3.4,4.7-7.2,6.2-11.3
                c2.7,1.5,5.6,2.2,8.5,2.2C322.6,286.8,328.2,284,331.5,278.8z"/>
            <path d="M256.2,109.7c25.2,0,44.1-23.5,44.5-62.9C301,19.4,287.9,3,256.2,3c-31.7,0-44.8,16.4-44.5,43.7
                C212.1,86.2,231,109.7,256.2,109.7z"/>
            <path d="M475.6,256.9c-2.7-7-22.7-47.3-46.4-58.7c0,0-18.5-8.6-18.5-8.6l-8.1-6.8l-12.6,12.5c0,0,0,0,0,0
                l11.3,83.8c0,0.2,0,0.5-0.2,0.7l-11.1,15.2c-0.2,0.2-0.5,0.4-0.8,0.4c-0.3,0-0.6-0.1-0.8-0.4l-11.1-15.2c-0.1-0.2-0.2-0.4-0.2-0.7
                l10.5-83.8c0,0,0,0,0-0.1l-12.6-12.5l-4.1,3.5c2.8,5.6,4.4,9.3,4.4,9.4c1.9,5,2.6,10.4,1.9,15.7c-3.4,25.2-25.5,62.1-33.1,74.2
                l-2.8,3.9c-6,7.4-15,11.7-24.6,11.7c0,0-0.1,0-0.1,0v1.9c4.5,8.4,8.7,15,10.3,17.5c2.7,4.2,7.3,6.6,11.9,6.6c2.5,0,4.9-0.7,7.2-2
                c1.1,3.2,2.8,6.2,4.7,8.9l0,157.7c0,9.5,7.7,17.1,17.1,17.1c9.5,0,17.1-7.7,17.1-17.1l0.2-139c1.2,0.1,2.4,0.2,3.6,0.2
                c1.1,0,2.3-0.1,3.5-0.2l0,139c0,9.5,7.7,17.1,17.1,17.1c9.5,0,17.1-7.7,17.1-17.1l0-157.3c2.1-2.8,3.8-5.9,5-9.2
                c2.2,1.2,4.6,1.8,6.9,1.8c4.7,0,9.2-2.3,11.9-6.6c3.9-6.1,23.3-37.5,25.9-56.8C476.8,261.5,476.5,259.1,475.6,256.9z M433.6,293.9
                l0-53.5c5.9,8,11.2,17.1,14.1,23.1C445.5,271.3,439.6,283.4,433.6,293.9z"/>
            <path d="M389,182.3c20.6,0,36.1-19.2,36.4-51.5C425.6,108.4,414.9,95,389,95c-26,0-36.6,13.4-36.4,35.8
                C352.9,163,368.3,182.3,389,182.3z"/>
            <path d="M170.4,289.6l-2.4-3.4c-7.3-11.6-30-49.2-33.5-74.8c-0.7-5.3-0.1-10.7,1.9-15.7c0.1-0.1,1.6-3.9,4.5-9.6
                l-3.9-3.3l-12.6,12.6c0,0,0,0,0,0l11.3,83.8c0,0.2,0,0.5-0.2,0.7l-11.1,15.2c-0.2,0.2-0.5,0.4-0.8,0.4c-0.3,0-0.6-0.1-0.8-0.4
                l-11.1-15.2c-0.1-0.2-0.2-0.4-0.2-0.7l10.5-83.8c0,0,0,0,0-0.1l-12.6-12.5l-8.1,6.8c0,0-18.4,8.4-18.8,8.6
                C59.1,209.6,39.1,250,36.4,257c-0.9,2.2-1.1,4.6-0.8,7c2.6,19.3,22,50.7,25.9,56.8c2.7,4.2,7.3,6.6,11.9,6.6c2.5,0,4.9-0.7,7.2-2
                c1.1,3.2,2.8,6.2,4.7,8.9l0,157.7c0,9.5,7.7,17.1,17.1,17.1c9.5,0,17.1-7.7,17.1-17.1l0.2-139c1.2,0.1,2.4,0.2,3.6,0.2
                c1.1,0,2.3-0.1,3.5-0.2l0,139c0,9.5,7.7,17.1,17.1,17.1c9.5,0,17.1-7.7,17.1-17.1l0-157.3c2.1-2.8,3.8-5.9,5-9.2
                c2.2,1.2,4.6,1.8,6.9,1.8c4.7,0,9.2-2.3,11.9-6.6c1.6-2.5,5.7-9.2,10.3-17.5v-1.8c-0.1,0-0.1,0-0.1,0
                C185.4,301.3,176.4,297,170.4,289.6z M64.3,263.6c3-6.2,8.4-15.4,14.4-23.6l0,54.5C72.7,283.9,66.5,271.5,64.3,263.6z"/>
            <path d="M123.4,182.3c20.6,0,36.1-19.2,36.4-51.5C160,108.4,149.3,95,123.4,95c-26,0-36.6,13.4-36.4,35.8
                C87.3,163,102.7,182.3,123.4,182.3z"/>
        </g>

        <path id="shield" d="M466.9,80C379.5,80,312.6,55,256,0C199.4,55,132.5,80,45.1,80c0,143.3-29.7,348.6,210.9,432
        	C496.5,428.6,466.9,223.3,466.9,80z M238.5,332.2l-70.3-70.3l31.5-31.5l38.8,38.8l73.7-73.7l31.5,31.5L238.5,332.2z"/>

        <g id="meditation">
            <circle cx="252.5" cy="81.1" r="79.6"/>
            <path d="M443,431.8c-3-24.4-20.9-33.7-51-38.3c-21.1,19.3-56.6,34.1-115.8,34.1c-8.2,0-16.1-2.1-23.2-6.1
                c-7.1,4-15,6.1-23.2,6.1c-58.6,0-94-14.5-115.2-33.6c-27.1,5.3-43.1,15.1-45.9,37.8c-1.8,14.6,2.8,29,12.9,40.5
                c28.4,32.3,106,37.6,149.8,37.9c0.1,0,0.2,0,0.3,0c9.3,0,17.7-3.5,24.2-9.2c6.4,5.7,14.9,9.2,24.2,9.2c0.1,0,0.2,0,0.3,0
                c43.8-0.3,121.4-5.7,149.8-37.9C440.2,460.8,444.7,446.4,443,431.8z"/>
            <path d="M231.1,416.8c9.2,0,17.5-4.1,23.2-10.5c5.7,6.4,13.9,10.5,23.2,10.5c88.9,0,117.4-35,125.7-64.4
                c19.4-68.8-58.5-149.2-94.3-171.1c-2.4-1.5-5-2.5-7.5-3.2c-8.9-5.9-18.8-10.3-29-12.8l-19.8,20l-19.2-20.2c-0.1,0-0.1,0-0.2,0
                c-13.1,3.1-25.8,9.4-36.3,18c-36.9,24.3-110.3,102.3-91.4,169.2C113.7,381.8,142.3,416.8,231.1,416.8z M171,305.3v26.3
                c2.1,0.9,6.4,3.7,6.5,4c3.6,2.6,18,8.3,50.2,8.3c8.2,0,16.1,2.1,23.2,6.1c7.1-4,15-6.1,23.2-6.1c26.8,0,41.2-3.9,47.4-6.8
                c4.2-0.9,8.4-1.9,12.5-3.1v-35.9c8,14.7,12.2,28.4,9.7,37.3c-3.4,12-28.7,19.4-66.2,19.4c-9.2,0-17.5,4.1-23.2,10.5
                c-5.7-6.4-13.9-10.5-23.2-10.5c-37.5,0-62.8-7.4-66.2-19.4C162.8,328.1,165.4,317.3,171,305.3z"/>
        </g>

        <g id="contract">
            <path d="M283.5,90.7H109.9c-12.8,0-23.2,10.4-23.2,23.1s10.4,23.1,23.2,23.1h173.6c12.8,0,23.2-10.4,23.2-23.1
                C306.7,101,296.3,90.7,283.5,90.7z"/>
            <path d="M306.7,200.6c0-12.8-10.3-23.1-23.2-23.1H109.9c-12.8,0-23.2,10.4-23.2,23.1c0,12.8,10.4,23.2,23.2,23.2
                h173.6C296.3,223.7,306.7,213.4,306.7,200.6z"/>
            <path d="M196.7,310.5c12.8,0,23.1-10.4,23.1-23.1c0-12.8-10.4-23.2-23.1-23.2h-86.8c-12.8,0-23.2,10.4-23.2,23.2
                s10.4,23.1,23.2,23.1H196.7z"/>
            <path d="M371.5,389.3l-24.3,16v57.6H46.3V46.3h300.9v91.5l46.3-80.2V23.1c0-12.8-10.4-23.1-23.2-23.1H23.1
                C10.4,0,0,10.4,0,23.1V486c0,12.8,10.4,23.1,23.1,23.1h347.2c12.8,0,23.2-10.4,23.2-23.1V358.5l-11.1,19.1
                C379.7,382.3,375.9,386.3,371.5,389.3z"/>
            <path d="M508.3,107.2c-0.5-2.1-5.4-20.8-34.8-37.8s-48.1-11.9-50.1-11.2c-2.8,0.9-5.1,2.7-6.5,5.3L272.2,314
                c-0.9,1.6-1.4,3.3-1.5,5.1l-5.4,90.4c-0.3,4.4,2,8.5,5.8,10.7s8.5,2,12.2-0.4l75.6-49.9c1.5-1,2.8-2.3,3.7-3.9L507,115.5
                C508.5,113,508.9,110,508.3,107.2z M312.3,379.8c-3.8-3.1-8.2-6-12.9-8.8c-4.7-2.7-9.4-5-14.1-6.8l1.6-27.1
                c6,0.8,15,3.2,26.3,9.8c11.4,6.6,17.9,13.1,21.7,17.9L312.3,379.8z"/>
            <path d="M161.4,417.5c0.8,4.6,6.1,6.1,9.7,7.6c3.5,1.5,7.6-1.3,10.5-2.7c17.7-8.6,41.6,1.5,60.5,1.5
                c11.2,0,11.2-17.4,0-17.4c-22.1,0-40.4-5.6-62.3-2c0-1.3-0.5-3-1.8-5.3c-4.1-7-9.3-9-14.5-8.1c-0.3-0.8-0.7-1.6-1.2-2.5
                c-1.4-2.2-3.3-3.3-5.4-3.8c6.1-10.7,10-21.9,6-31.1c-1.2-2.8-4.7-4.2-7.5-4.3c-11.6-0.4-21.5,11.7-29,19
                c-18.6,18.3-35.1,39-51,59.7c-6.8,8.9,8.3,17.5,15,8.8c14.1-18.3,29-36,45.1-52.7c-3.9,6.3-8,12.6-12.3,18.6
                c-6.2,9.5,8.6,17.7,15,8.8c1.5-2.3,3.5-4,5.6-5.4c-0.4,1.1-0.9,2.1-1.3,3.2c0,0,0,0,0.1,0c-0.3,0.7-0.7,1.4-0.9,2
                c-3.9,9.7,10.6,14.2,15.9,6.7c1.3-1.9,2.6-3.9,3.7-6C161.1,413.6,161,415.5,161.4,417.5z"/>
        </g>

        <path id="crosshair" d="M501.8,233.8H462c-10.3-96.3-87.6-173.6-183.9-183.9V10.3c0-5.8-4.7-10.6-10.6-10.6h-23.1
        		c-5.8,0-10.6,4.7-10.6,10.6V50l0,0C137.5,60.3,60.2,137.5,49.9,233.8H10.3c-5.8,0-10.6,4.7-10.6,10.6v23.1
        		c0,5.8,4.7,10.6,10.6,10.6H50c10.3,96.3,87.6,173.6,183.9,183.9v39.7c0,5.8,4.7,10.6,10.6,10.6h23.1c5.8,0,10.6-4.7,10.6-10.6V462
        		l0,0c96.3-10.3,173.6-87.6,183.9-183.9h39.7c5.8,0,10.6-4.7,10.6-10.6v-23.1C512.3,238.5,507.5,233.8,501.8,233.8z M131.3,278.1
        		c5.8,0,10.6-4.7,10.6-10.6v-23.1c0-5.8-4.7-10.6-10.6-10.6H96.9C106.8,163,163,106.7,233.8,96.9v34.3c0,5.8,4.7,10.6,10.6,10.6
        		h23.1c5.8,0,10.6-4.7,10.6-10.6V96.9c70.8,9.8,127.1,66.1,136.9,136.9h-34.3c-5.8,0-10.6,4.7-10.6,10.6v23.1
        		c0,5.8,4.7,10.6,10.6,10.6H415c-9.8,70.8-66.1,127.1-136.9,136.9v-34.3c0-5.8-4.7-10.6-10.6-10.6h-23.1c-5.8,0-10.6,4.7-10.6,10.6
        		V415c-70.8-9.8-127.1-66.1-136.9-136.9H131.3z"/>

        <path id="argument" d="M506.1,124v151.4c0,0-32.4,6.4-39.1,7.2c-6.7,0.8-27.6,7.6-42.7-7c-23.4-22.4-106.4-105-106.4-105
        		s-14.3-14.1-37.3-1.9c-21.1,11.1-52.4,27.4-65.5,33.8c-24.7,13.1-45.2-7.7-45.2-23.6c0-12.3,7.7-20.7,18.7-26.8
        		c29.8-18.1,92.6-53.3,118.8-67.2c15.9-8.5,27.4-9.2,49.2,9.2c26.9,22.6,50.8,43.2,50.8,43.2s7.8,6.5,20.2,3.9
        		C458.2,134.8,506.1,124,506.1,124z M175.5,380.6c4-10.3,2.7-21.9-5-29.8c-6.9-7.1-17-9-26.7-6.8c2.7-9.6,1.2-19.7-5.8-26.9
        		c-6.9-7.1-17-9-26.7-6.7c2.7-9.6,1.2-19.7-5.8-26.9c-10.9-11.2-29.8-10.7-42.2,1.1c-12.3,11.8-20.2,33.3-9.2,45.9
        		s23.6,4.9,33.2,2.7c-2.7,9.6-10.7,18.4-0.8,30.9s23.6,4.9,33.3,2.7c-2.7,9.5-10.4,19.3-0.9,30.9c9.6,11.6,25.3,5.4,35.7,2.2
        		c-4,10.3-12.6,21.4-1.6,33.8c11,12.5,36.4,6.7,48.8-5.1c12.4-11.8,13.6-30.6,2.7-41.8C197.1,379.1,185.9,377.4,175.5,380.6z
        		 M402,301.8c-89.7-89.7-47.5-47.5-95.8-95.9c0,0-14.5-14.4-33.6-6.1c-13.4,5.9-30.7,13.9-43.7,20c-14.3,7.5-24.6,9.8-29.4,9.8
        		c-27.6-0.2-50-22.4-50-50c0-17.9,9.5-33.5,23.7-42.3c19.9-13.8,65.8-38.2,65.8-38.2s-14-17.7-44.6-17.7s-94.6,41.9-94.6,41.9
        		s-18.1,11.6-44,1.2L5.9,107.2v173.3c0,0,14.2,4.1,27,9.3c2.9-8.2,7.5-15.8,14-22.1c21.2-20.2,56.4-20.4,75.7-0.5
        		c5.8,6,9.9,13.3,11.9,21.2c7.8,2.4,14.8,6.7,20.5,12.5c5.8,6,9.9,13.3,12,21.2c7.8,2.4,14.8,6.7,20.5,12.5
        		c6.4,6.6,10.7,14.6,12.6,23.2c8.1,2.4,15.5,6.8,21.4,12.8c11.6,11.9,15.7,28.1,13.2,43.7h0.1c0.2,0.2,7.2,8,11.6,12.5
        		c8.6,8.6,22.5,8.6,31.1,0c8.5-8.6,8.6-22.5,0-31.1c-0.3-0.3-30.9-32.3-28.4-34.7c2.4-2.5,41.4,38,42.1,38.8
        		c8.5,8.5,22.5,8.5,31.1,0c8.6-8.6,8.5-22.5,0-31.1c-0.4-0.4-2.2-2.1-2.8-2.7c0,0-38.6-34.4-35.7-37.3c3-3,50.9,41.8,51,41.8
        		c8.6,7.8,21.9,7.7,30.2-0.6c8.1-8.1,8.2-20.8,1.1-29.4c-0.2-0.5-36.5-38.5-33.7-41.3c2.9-2.9,38.9,34.2,39,34.2
        		c8.5,8.5,22.5,8.5,31.1,0c8.5-8.5,8.5-22.5,0-31.1C402.2,302,402.1,301.9,402,301.8z"/>

<path id="bug" d="M264.432,153.174c0.884-2.89-0.669-5.889-3.516-6.73c-2.847-0.884-5.846,0.69-6.73,3.516
				c0,0-6.579,21.161-7.96,25.734c-2.89,0.798-11.562,3.171-17.58,4.897c-0.194-0.971-0.388-1.92-0.604-2.804h-83.695
				c-0.259,0.884-0.453,1.833-0.626,2.804c-6.04-1.683-14.711-4.077-17.559-4.897c-1.424-4.551-8.003-25.734-8.003-25.734
				c-0.906-2.826-3.904-4.4-6.752-3.516c-2.826,0.82-4.379,3.861-3.538,6.73l9.707,31.278l24.548,6.881
				c-0.151,2.265-0.259,4.573-0.259,6.903c0,2.847,0.151,5.673,0.431,8.456l-24.569,11.001l-7.636,43.314
				c-0.561,2.934,1.381,5.781,4.314,6.256c2.934,0.453,5.738-1.445,6.256-4.4c0,0,5.824-32.809,6.644-37.641
				c2.373-1.079,10.16-4.551,16.782-7.528c5.803,24.742,22.455,42.689,42.085,42.689c19.608,0,36.282-17.904,42.085-42.689
				c6.622,2.977,14.388,6.45,16.696,7.528c0.863,4.832,6.687,37.641,6.687,37.641c0.518,2.955,3.322,4.897,6.234,4.4
				c2.955-0.475,4.918-3.322,4.314-6.256l-7.614-43.314l-24.548-11.001c0.302-2.783,0.431-5.608,0.431-8.456
				c0-2.33-0.129-4.659-0.302-6.903l24.548-6.86L264.432,153.174z
				M133.864,114.131c1.035,0.151,24.353,4.875,29.336,31.127
                				c-6.299,6.709-10.289,16.092-10.289,26.51c0,0.129,0,0.216,0,0.345h66.46c0-0.129,0-0.216,0-0.345
                				c0-10.376-3.947-19.802-10.289-26.51c4.983-26.295,28.322-31.019,29.336-31.127c2.157-0.453,3.645-2.545,3.171-4.767
                				c-0.388-2.136-2.459-3.602-4.638-3.171c-0.237,0.065-27.114,5.242-34.794,33.37c-4.724-2.869-10.181-4.487-15.984-4.487
                				c-5.846,0-11.238,1.596-16.006,4.487c-7.679-28.128-34.578-33.305-34.837-33.37c-2.222-0.431-4.314,1.079-4.659,3.171
                				C130.262,111.586,131.707,113.678,133.864,114.131z
                M482.556,428.719l-69.221-69.264V0H9.336v464.786h382.86L419.31,491.9
                				c0,0,29.121,0.302,46.636-19.673C483.483,452.188,482.556,428.719,482.556,428.719z M35.933,438.21c0-24.246,0-387.411,0-411.614
                				c23.814,0,326.992,0,350.849,0c0,16.459,0,189.499,0,306.284l-37.727-37.749l-17.408,10.419l-26.403-25.518
                				c41.222-57.788,36.282-138.398-15.553-190.082c-57.788-57.767-151.448-57.659-208.999-0.043
                				c-57.616,57.68-57.616,151.233,0,209.086c51.921,51.856,132.423,56.666,190.146,15.445l24.72,23.857l-9.879,19.996l79.92,79.898
                				C291.094,438.21,56.77,438.21,35.933,438.21z M265.683,275.027c-44.393,44.35-116.525,44.457-161.047,0
                				c-44.371-44.479-44.371-116.547,0.086-161.091c44.306-44.393,116.504-44.479,161.026,0.043
                				C310.184,158.459,310.184,230.419,265.683,275.027z"/>


        <path  d="M494.4,294.4h-86c0-6.1,0-12.3,0-18.4c0-7.7,0-13.8-1.6-20c52.2-10.7,93.7-67.6,93.7-136.7
        			c0-9.2-6.1-15.3-15.4-15.3c-9.2,0-15.3,6.1-15.3,15.3c0,55.3-30.7,99.8-72.2,106c-7.7-10.7-16.9-13.8-29.2-13.8
        			c-3.1-44.5-23-81.4-52.2-104.4c20-16.9,33.8-43,33.8-72.2c0-9.2-6.1-15.4-15.3-15.4c-9.2,0-15.4,6.1-15.4,15.4
        			c0,23-12.3,44.5-32.2,55.3c-10.7-4.6-21.5-6.1-32.2-6.1s-21.5,1.5-32.2,6.1c-18.4-10.7-32.2-32.2-32.2-55.3
        			c0-9.2-6.1-15.4-15.3-15.4s-15.4,6.1-15.4,15.4c0,29.2,12.3,55.3,33.8,72.2c-27.6,23-47.6,61.4-52.2,104.4
        			c-12.3,0-23,4.6-29.2,13.8c-41.5-6.1-72.2-50.7-72.2-106c0-9.2-6.1-15.3-15.4-15.3s-15.4,6.1-15.4,15.3
        			c0,67.6,39.9,124.4,93.7,136.7c0,6.1-1.5,12.3-1.5,20c0,6.1,0,12.3,0,18.4h-86c-9.2,0-15.4,6.1-15.4,15.4s6.1,15.4,15.4,15.4H106
        			c3.1,12.3,6.1,26.1,10.7,36.9c-56.8,7.7-101.3,55.3-101.3,115.2c0,9.2,6.1,15.4,15.3,15.4s15.4-6.1,15.4-15.4
        			c0-47.6,38.4-86,86-86l0,0c27.6,46.1,72.2,76.8,122.8,76.8c50.7,0,93.7-30.7,122.8-76.8l0,0c47.6,0,86,38.4,86,86
        			c0,9.2,6.1,15.4,15.4,15.4c9.2,0,15.3-6.1,15.3-15.4c0-58.4-44.5-107.5-101.3-115.2c4.6-12.3,9.2-24.6,10.7-36.9h90.6
        			c9.2,0,15.3-6.1,15.3-15.4S502.1,294.4,494.4,294.4z M359.3,320.5H327c-4.6,32.2-29.2,56.8-61.4,61.4v32.2
        			c0,6.1-4.6,10.7-10.7,10.7s-10.7-4.6-10.7-10.7v-32.2c-32.2-4.6-56.8-29.2-61.4-61.4h-32.3c-6.1,0-10.7-4.6-10.7-10.7
        			s4.6-10.7,10.7-10.7h32.2c4.6-32.2,29.2-56.8,61.4-61.4v-32.3c0-6.1,4.6-10.7,10.7-10.7s10.7,4.6,10.7,10.7v32.3
        			c32.2,4.6,56.8,29.2,61.4,61.4h32.3c6.1,0,10.7,4.6,10.7,10.7C370,315.9,365.4,320.5,359.3,320.5z"/>
        		<g>
        			<path d="M204.2,299h41.5v-41.5C224.2,262.1,207.3,279,204.2,299z"/>
        			<path d="M265.6,360.4c20-4.6,36.8-20,41.5-41.5h-41.5V360.4z"/>
        			<path d="M265.6,257.5V299h41.5C302.5,279,285.6,262.1,265.6,257.5z"/>
        			<path d="M244.1,360.4V319h-41.5C207.3,340.4,224.2,357.3,244.1,360.4z"/>
        		</g>

        <polygon id="arrow-right" points="157.9,0 98.2,59.7 294.4,255.9 98.2,452.1 157.9,511.8 413.8,255.9 		"/>


        <path id="arrow-swipe" d="M392.3,281.1L173.9,499.4c-13.9,13.9-36.4,13.9-50.3,0c-13.9-13.9-13.9-36.4,0-50.3l193.2-193.2L123.6,62.7
        		c-13.9-13.9-13.9-36.4,0-50.3c13.9-13.9,36.4-13.9,50.3,0l218.4,218.4c6.9,6.9,10.4,16,10.4,25.1
        		C402.7,265,399.2,274.1,392.3,281.1z"/>

        <g id="pdf">
        	<path d="M132.5,262.2c0-13.8-9.6-22-26.5-22c-6.9,0-11.6,0.7-14,1.3v44.3c2.9,0.7,6.5,0.9,11.3,0.9
        		C121.3,286.7,132.5,277.6,132.5,262.2z"/>
        	<path d="M237.2,240.6c-7.6,0-12.5,0.7-15.4,1.3v98.2c2.9,0.7,7.6,0.7,11.8,0.7c30.7,0.2,50.8-16.7,50.8-52.6
        		C284.6,257.1,266.3,240.6,237.2,240.6z"/>
        	<path d="M437.8,182.9h-12.3v-59.4c0-0.4-0.1-0.7-0.1-1.1c0-2.4-0.8-4.7-2.4-6.5L324.1,2.9c0,0-0.1,0-0.1-0.1
        		c-0.6-0.7-1.3-1.2-2-1.7c-0.2-0.1-0.4-0.3-0.7-0.4c-0.6-0.3-1.3-0.6-2-0.8c-0.2-0.1-0.4-0.1-0.5-0.2c-0.7-0.2-1.5-0.3-2.3-0.3H73.7
        		c-11.1,0-20.1,9-20.1,20.1v163.3H41.2c-15.9,0-28.7,12.9-28.7,28.7V361c0,15.9,12.9,28.7,28.7,28.7h12.3v102.3
        		c0,11.1,9,20.1,20.1,20.1h331.7c11.1,0,20.1-9,20.1-20.1V389.8h12.3c15.9,0,28.7-12.9,28.7-28.7V211.6
        		C466.5,195.7,453.7,182.9,437.8,182.9z M73.7,19.6h232.9v102.9c0,5.6,4.5,10.1,10.1,10.1h88.8v50.4H73.7V19.6z M320.5,287.1
        		c0,28.7-10.5,48.6-25,60.8c-15.8,13.1-39.9,19.4-69.2,19.4c-17.6,0-30.1-1.1-38.5-2.2V217.6c12.5-2,28.7-3.1,45.9-3.1
        		c28.5,0,47,5.1,61.5,16C310.7,242.1,320.5,260.6,320.5,287.1z M58.3,365.8V217.6c10.5-1.8,25.2-3.1,45.9-3.1c20.9,0,35.9,4,45.9,12
        		c9.6,7.6,16,20,16,34.7c0,14.7-4.9,27.2-13.8,35.6c-11.6,10.9-28.7,15.8-48.8,15.8c-4.4,0-8.5-0.2-11.6-0.7v53.7L58.3,365.8
        		L58.3,365.8z M405.4,486.6H73.7v-96.8h331.7L405.4,486.6L405.4,486.6z M434.5,243.5h-57.7v34.3h53.9v27.6h-53.9v60.4h-34.1V215.6
        		h91.8V243.5z"/>
        </g>

        <path id="cross" d="M494.3,101.1L339.5,256l154.8,154.8c23,23,23,60.4,0,83.4c-11.5,11.5-26.6,17.3-41.7,17.3c-15.1,0-30.2-5.7-41.7-17.3
            L256,339.3L101.1,494.2c-11.5,11.5-26.6,17.3-41.7,17.3s-30.2-5.7-41.7-17.3c-23-23-23-60.4,0-83.4L172.6,256L17.7,101.1
            c-23-23-23-60.4,0-83.4s60.3-23,83.4,0L256,172.6L410.8,17.7c23-23,60.4-23,83.4,0C517.3,40.8,517.3,78.1,494.3,101.1z"/>

        <path id="check" d="M492.9,52.3l-13.7-11.7c-22.7-19.5-56.8-17.4-76.9,4.8L173.5,299.2l-69-59.4c-22.7-19.6-56.8-17.4-76.9,4.8L15.4,258
                c-9.8,10.8-14.9,25.1-14.1,39.8c0.7,14.6,7.3,28.4,18.2,38.1l126.6,116c11,10.3,25.6,15.6,40.7,14.8c15-0.8,29.1-7.7,38.9-19.1
                l273.1-317.4c9.6-11.1,14.3-25.5,13.2-40.1C510.7,75.4,503.9,61.9,492.9,52.3z"/>

    </defs>
</svg>

