<?xml version="1.0" encoding="utf-8"?>
<!-- Generator: Adobe Illustrator 18.0.0, SVG Export Plug-In . SVG Version: 6.00 Build 0)  -->
<!DOCTYPE svg PUBLIC "-//W3C//DTD SVG 1.1//EN" "http://www.w3.org/Graphics/SVG/1.1/DTD/svg11.dtd">
<svg version="1.1" id="Capa_1" xmlns="http://www.w3.org/2000/svg" xmlns:xlink="http://www.w3.org/1999/xlink" x="0px" y="0px"
	 viewBox="0 0 512 512" enable-background="new 0 0 512 512" xml:space="preserve">
<g>
	<g>
		<path fill="#00CCFF" d="M239.1,174.9c-3.2,25.7,14.4,48.2,40.1,51.4c25.7,3.2,48.2-14.4,51.4-40.1c3.2-25.7-14.4-48.2-40.1-51.4
			C264.8,131.6,242.4,149.3,239.1,174.9z"/>
		<path fill="#00CCFF" d="M231.1,341.9c0-33.7-25.7-49.8-43.3-51.4h-3.2c-9.6,0-20.9,0-32.1,0c9.6-12.8,28.9-36.9,30.5-38.5
			c3.2,6.4,8,11.2,14.4,16.1c14.4,12.8,30.5,19.3,51.4,22.5c11.2,1.6,48.2-1.6,56.2-3.2c9.6-1.6,16.1-6.4,19.3-11.2
			c4.8-9.6,4.8-19.3,4.8-19.3c0-17.7-17.7-24.1-32.1-20.9c-20.9,4.8-49.8,8-64.2-6.4c-6.4-6.4-9.6-14.4-11.2-20.9
			c6.4-12.8,4.8-28.9-3.2-41.7c-12.8-22.5-40.1-24.1-61-14.4c-20.9,11.2-75.4,73.8-89.9,120.4l0,0v1.6c-1.6,4.8-1.6,9.6-3.2,14.4
			c-1.6,9.6-1.6,17.7-1.6,25.7l0,0c0,12.8,9.6,24.1,24.1,24.1c8,0,73.8,0,94.7,0v1.6c0,19.3,0,88.3,0,120.4c0,9.6,8,16.1,16.1,16.1
			h16.1c4.8,0,8-1.6,11.2-4.8c3.2-3.2,4.8-8,4.8-11.2C231.1,430.1,231.1,361.1,231.1,341.9z"/>
		<path fill="#00CCFF" d="M49.8,131.6c0-14.4-11.2-24.1-24.1-24.1S0,118.8,0,131.6v247.2c0,12.8,9.6,24.1,22.5,24.1l0,0h9.6v57.8
			c0,9.6,6.4,16.1,16.1,16.1s16.1-8,16.1-16.1v-57.8h53v57.8c0,9.6,6.4,16.1,16.1,16.1s16.1-8,16.1-16.1v-57.8h16.1v-49.8H49.8
			V131.6L49.8,131.6z"/>
		<path fill="#00CCFF" d="M495.9,296.9c-3.2-19.3-16.1-35.3-33.7-44.9v-16.1h24.1V126.8l-89.9-32.1V78.6h-32.1V244h32.1v-9.6h17.7
			v11.2c-22.5,6.4-40.1,25.7-43.3,49.8H266.4c-9.6,0-16.1,8-16.1,17.7c0,9.6,8,17.7,16.1,17.7h33.7v149.3h183V330.6h16.1
			c9.6,0,16.1-8,16.1-17.7C512,305,505.6,296.9,495.9,296.9z"/>
		<polygon fill="#00CCFF" points="154.1,96.3 117.2,96.3 117.2,96.3 154.1,43.3 154.1,33.7 96.3,33.7 96.3,46.5 130,46.5 130,48.2 
			93.1,101.1 93.1,112.4 154.1,112.4 		"/>
		<polygon fill="#00CCFF" points="213.5,97.9 189.4,97.9 189.4,97.9 213.5,64.2 213.5,56.2 176.6,56.2 176.6,65.8 197.4,65.8 
			197.4,67.4 173.3,101.1 173.3,107.5 213.5,107.5 		"/>
		<polygon fill="#00CCFF" points="255.2,110.7 239.1,110.7 239.1,110.7 255.2,86.7 255.2,81.9 231.1,81.9 231.1,88.3 245.6,88.3 
			245.6,88.3 227.9,112.4 227.9,117.2 255.2,117.2 		"/>
	</g>
</g>
</svg>
