<?xml version="1.0" encoding="utf-8"?>
<!-- Generator: Adobe Illustrator 18.0.0, SVG Export Plug-In . SVG Version: 6.00 Build 0)  -->
<!DOCTYPE svg PUBLIC "-//W3C//DTD SVG 1.1//EN" "http://www.w3.org/Graphics/SVG/1.1/DTD/svg11.dtd">
<svg version="1.1" id="Capa_1" xmlns="http://www.w3.org/2000/svg" xmlns:xlink="http://www.w3.org/1999/xlink" x="0px" y="0px"
	 viewBox="0 0 35.6 35.6" enable-background="new 0 0 35.6 35.6" xml:space="preserve">
<g>
	<g>
		<path fill="#00CCFF" d="M20.9,22.7l0-2.6L26,14l0,0l0.2-0.2L22,9.5l-0.2,0.2l-1.4-0.5l0.3-1.5l-1.8,0.5l-0.8-1.7l-1.5,1.6
			l-1.2-1.4l-0.6,1.8L12.9,8l0.7,1.6l-1.4,0.4l1.2,1.1c-0.1,0.2-0.1,0.3-0.1,0.5c0,0.2-0.1,0.4-0.1,0.7c0,2.2,1.8,4,4.1,4
			c2.2,0,4-1.8,4-4c0-0.1,0-0.1,0-0.2l1.9,1.9l-2.6,3.2l-1.3-0.2c0,0-0.6,1.7-2.1,1.8c-1.5,0.1-2.1-1.8-2.1-1.8l-2.4,0.6l-2,5.3H5.3
			v1.9h1.2v11h0.9v-11h6.2l0,1.4h-1.5v0.7h1.3v8.5h2.9v-8.5h1.9v8.5h2.9v-8.5h1.1V26h-1.3l0-1.4h7v11h0.9v-11h1.4v-1.9H20.9z
			 M12.7,22.7l0.9-2.5l0,2.5H12.7z"/>
		<rect x="16.8" y="3.7" fill="#00CCFF" width="1.4" height="1.4"/>
		<path fill="#00CCFF" d="M17.3,1.4c0.1-0.1,0.2-0.2,0.4-0.2c0.3,0,0.4,0.1,0.4,0.4c0,0.1,0,0.1-0.1,0.2c0,0.1-0.1,0.1-0.2,0.1
			c-0.1,0-0.1,0.1-0.2,0.1c-0.1,0-0.1,0.1-0.2,0.1c-0.1,0.1-0.2,0.2-0.3,0.3c-0.1,0.1-0.1,0.2-0.1,0.3c0,0.1,0,0.2,0,0.3
			c0,0.1,0,0.2,0,0.3h1.3c0-0.1,0-0.1,0-0.2c0-0.1,0-0.1,0.1-0.2c0,0,0.1-0.1,0.1-0.1c0.1,0,0.1-0.1,0.2-0.1
			c0.1-0.1,0.2-0.1,0.3-0.2c0.1-0.1,0.2-0.1,0.3-0.2c0.1-0.1,0.2-0.2,0.2-0.3c0.1-0.1,0.1-0.3,0.1-0.5c0-0.2,0-0.3-0.1-0.5
			c-0.1-0.2-0.2-0.3-0.3-0.5c-0.1-0.1-0.3-0.3-0.6-0.3C18.3,0,18,0,17.7,0c-0.3,0-0.6,0.1-0.9,0.2c-0.2,0.1-0.4,0.2-0.6,0.4
			c-0.2,0.2-0.3,0.4-0.3,0.6c-0.1,0.2-0.1,0.4-0.1,0.6h1.4C17.2,1.6,17.2,1.5,17.3,1.4z"/>
	</g>
</g>
</svg>
