<?xml version="1.0" encoding="utf-8"?>
<!-- Generator: Adobe Illustrator 18.0.0, SVG Export Plug-In . SVG Version: 6.00 Build 0)  -->
<!DOCTYPE svg PUBLIC "-//W3C//DTD SVG 1.1//EN" "http://www.w3.org/Graphics/SVG/1.1/DTD/svg11.dtd">
<svg version="1.1" id="Capa_1" xmlns="http://www.w3.org/2000/svg" xmlns:xlink="http://www.w3.org/1999/xlink" x="0px" y="0px"
	 viewBox="0 0 612 792" enable-background="new 0 0 612 792" xml:space="preserve">
<g>
	<g>
		<path fill="#00CCFF" d="M266.7,168.1c2.1,0,4.1-0.2,6.1-0.6c0.7-0.1,1.3-0.4,1.9-0.5c1.3-0.3,2.5-0.7,3.8-1.2
			c0.7-0.3,1.4-0.7,2.1-1c1.1-0.5,2.1-1.1,3.1-1.7c0.7-0.4,1.3-0.9,2-1.4c0.9-0.7,1.8-1.4,2.6-2.1c0.6-0.6,1.1-1.2,1.7-1.8
			c0.7-0.8,1.5-1.6,2.1-2.5c0.5-0.7,0.9-1.4,1.4-2.1c0.6-0.9,1.1-1.9,1.6-2.9c0.4-0.8,0.7-1.6,1-2.4c0.4-1,0.7-2.1,1-3.2
			c0.2-0.8,0.4-1.7,0.6-2.5c0.1-0.4,0.2-0.7,0.2-1.1h13.1c0.1,0.4,0.2,0.7,0.3,1.1c0.2,0.9,0.4,1.7,0.6,2.5c0.3,1.1,0.6,2.1,1,3.2
			c0.3,0.8,0.6,1.6,1,2.4c0.5,1,1,2,1.6,2.9c0.5,0.7,0.9,1.4,1.4,2.1c0.6,0.9,1.4,1.7,2.1,2.5c0.6,0.6,1.1,1.2,1.7,1.8
			c0.8,0.8,1.7,1.5,2.6,2.1c0.6,0.5,1.3,1,1.9,1.4c1,0.6,2,1.2,3.1,1.7c0.7,0.3,1.3,0.7,2.1,1c1.2,0.5,2.5,0.8,3.7,1.2
			c0.6,0.2,1.2,0.4,1.9,0.5c2,0.4,4,0.6,6.1,0.6c17.3,0,31.3-14.1,31.3-31.3c0-16.6-12.8-30.2-29.3-31.1c-0.7-0.1-1.3-0.2-2-0.2
			c-0.1,0-0.2,0-0.3,0c-0.1,0-0.2,0-0.3,0l-71.8,0l-1.3,0.1c-0.5-0.1-1-0.1-1.5-0.1c-17.3,0-31.3,14-31.3,31.3
			C235.4,154,249.4,168.1,266.7,168.1z M336.9,114.6l1-0.2c1.3-0.2,2.6-0.4,4-0.4c12.6,0,22.8,10.2,22.8,22.8
			c0,12.6-10.2,22.8-22.8,22.8c-12.6,0-22.8-10.2-22.8-22.8C319.1,125.9,326.7,116.9,336.9,114.6z M320.6,114
			c-5.1,4.8-8.6,11.3-9.6,18.6h-13.4c-1-7.3-4.4-13.8-9.6-18.6H320.6z M266.7,114c12.6,0,22.8,10.2,22.8,22.8
			c0,12.6-10.2,22.8-22.8,22.8c-12.6,0-22.8-10.2-22.8-22.8C243.9,124.2,254.1,114,266.7,114z"/>
		<path fill="#00CCFF" d="M334.1,174.5c-2-0.5-3.4-0.9-4.8-1.5c-0.6-0.2-1.2-0.5-1.8-0.9c-1.8-0.9-3-1.5-4.1-2.2
			c-0.6-0.4-1.2-0.9-1.8-1.3c-1.5-1.1-2.4-1.9-3.4-2.7c-0.7-0.7-1.3-1.4-2-2.1c-0.8-0.9-1.6-1.9-2.3-2.9c-0.6-0.8-1.1-1.5-1.6-2.4
			c-0.6-1.1-1.3-2.2-1.8-3.3c-0.4-0.9-0.8-1.7-1.2-2.7c-0.5-1.2-0.8-2.4-1.1-3.6c0-0.2-0.1-0.3-0.1-0.5h-6.4c0,0.2-0.1,0.3-0.1,0.5
			c-0.3,1.2-0.7,2.4-1.1,3.6c-0.3,0.9-0.7,1.8-1.1,2.7c-0.6,1.1-1.1,2.2-1.8,3.3c-0.5,0.8-1,1.6-1.6,2.4c-0.7,1-1.5,2-2.4,2.9
			c-0.6,0.7-1.2,1.4-1.9,2c-1,0.9-1.9,1.7-2.9,2.5c-1,0.8-1.6,1.2-2.2,1.6c-1.1,0.7-2.3,1.3-3.5,1.9c-1.2,0.6-1.8,0.9-2.4,1.1
			c-1.4,0.5-2.8,0.9-4.2,1.3c-1.1,0.3-1.6,0.5-2.2,0.6c-6.6,1.3-13,0.7-18.8-1.3c8.3,19.2,27.3,32.6,49.5,32.6
			c22.2,0,41.3-13.5,49.5-32.7c-3.7,1.4-7.8,2.2-12,2.2c-2.3,0-4.6-0.2-6.9-0.7C335.1,174.9,334.6,174.7,334.1,174.5z"/>
		<path fill="#00CCFF" d="M305,90c-9,0-17.4,2.2-24.8,6.1h49.6C322.4,92.2,314,90,305,90z"/>
		<path fill="#00CCFF" d="M473.7,143.3L393,113c0,0-16.2-6-26.2-3c7,6.5,11.4,15.6,11.4,25.8c0,7.7-2.6,14.8-6.7,20.7l28.1,16.3
			c-24.8,17.5-45.1,27.7-62.8,44.5c-22.6,17.9-30.7,69.1-30.7,69.1c-6-36.1-30.3-68.7-30.3-68.7c-17.5-16.8-42.6-31.6-67.5-49.2
			l29.6-13.1c-3.7-5.6-6-12.4-6-19.6c0-10.4,4.6-19.7,11.8-26.2c-5.1-2.7-24.7,3.4-24.7,3.4l-80.6,30.3c-4.9,5.5-7.2,12.8-6.4,20.1
			c0.9,7.3,4.9,13.9,10.9,18c16.7,11.4,58.1,40.4,83.4,60.9l1,14.1l-0.5,207.9v206.9c0,17,12.5,30.8,30,30.8
			c17.5,0,31.7-13.8,31.7-30.8V455.6c0,0,1-10.9,12.2-11.1c11.1-0.1,10.8,10.5,10.8,10.5v215.6c0,17,14.2,30.8,31.7,30.8
			c17.5,0,31.7-13.8,31.7-30.8l1.1-222.4c0-2.1,0.3-196.3,0.3-196.3s-0.1-0.3-0.3-1.2c22.6-20.1,74.2-56.3,93.3-69.3
			c6.1-4.1,10.1-10.7,10.9-18C480.9,156.1,478.6,148.8,473.7,143.3z"/>
		<path fill="#00CCFF" d="M336.7,217.4l-61,0.4C294.1,224.4,315.4,226.7,336.7,217.4z"/>
	</g>
</g>
</svg>
