<?xml version="1.0" standalone="no"?>
<!DOCTYPE svg PUBLIC "-//W3C//DTD SVG 20010904//EN"
 "http://www.w3.org/TR/2001/REC-SVG-20010904/DTD/svg10.dtd">
<svg version="1.0" xmlns="http://www.w3.org/2000/svg"
 width="1024.000000pt" height="1024.000000pt" viewBox="0 0 1024.000000 1024.000000"
 preserveAspectRatio="xMidYMid meet">
<metadata>
Created by potrace 1.12, written by Peter Selinger 2001-2015
</metadata>
<g transform="translate(0.000000,1024.000000) scale(0.100000,-0.100000)"
fill="#000000" stroke="none">
<path d="M4920 9244 c-25 -2 -106 -8 -180 -14 -183 -15 -445 -60 -641 -111
-923 -236 -1722 -774 -2297 -1544 -384 -515 -645 -1130 -752 -1768 -42 -256
-54 -405 -54 -687 0 -282 12 -431 54 -687 176 -1052 755 -1993 1625 -2639 506
-376 1127 -638 1758 -744 256 -42 405 -54 687 -54 282 0 431 12 687 54 1049
175 1986 750 2631 1615 384 515 645 1130 752 1768 42 256 54 405 54 687 0 282
-12 431 -54 687 -232 1390 -1170 2573 -2476 3122 -355 149 -766 254 -1160 296
-134 15 -542 27 -634 19z m-2153 -3069 c65 -19 127 -65 161 -119 15 -23 151
-324 302 -669 151 -345 278 -623 281 -619 4 4 106 240 228 526 146 343 236
541 266 587 157 235 448 352 733 293 145 -30 261 -90 375 -194 l67 -62 56 50
c163 146 437 235 666 218 200 -15 371 -87 498 -212 l55 -53 75 60 c88 70 223
139 335 171 69 20 103 23 245 23 193 0 253 -12 400 -82 80 -39 107 -59 180
-132 65 -66 94 -104 122 -161 69 -144 68 -127 68 -911 0 -789 3 -759 -71 -843
-22 -25 -65 -57 -97 -73 -50 -25 -68 -28 -152 -28 -82 0 -103 4 -152 27 -72
33 -132 95 -156 161 -18 48 -20 96 -25 671 -6 603 -7 620 -28 662 -91 188
-456 195 -557 10 -15 -28 -18 -94 -22 -661 -5 -569 -8 -635 -24 -676 -26 -70
-78 -124 -154 -161 -61 -30 -74 -33 -162 -33 -81 0 -103 4 -150 26 -77 36
-124 80 -157 147 l-28 57 -5 630 -5 630 -27 46 c-54 92 -160 136 -304 127 -90
-5 -158 -34 -211 -90 -60 -62 -58 -39 -63 -728 l-5 -635 -27 -51 c-77 -145
-278 -206 -439 -132 -73 33 -109 66 -144 130 l-30 53 -5 695 c-5 732 -5 726
-51 750 -25 14 -50 6 -77 -23 -11 -12 -165 -332 -341 -710 -221 -476 -333
-705 -362 -743 -170 -220 -475 -236 -661 -35 -70 75 -81 96 -484 966 -332 715
-339 731 -342 802 -7 124 43 220 146 280 87 51 172 64 259 38z"/>
</g>
</svg>
